<svg class="main-svg" xmlns="http://www.w3.org/2000/svg" xmlns:xlink="http://www.w3.org/1999/xlink" width="1400" height="900" style="" viewBox="0 0 1400 900"><rect x="0" y="0" width="1400" height="900" style="fill: rgb(255, 255, 255); fill-opacity: 1;"/><defs id="defs-6bef84"><g class="clips"><clipPath id="clip6bef84xyplot" class="plotclip"><rect width="998" height="720"/></clipPath><clipPath class="axesclip" id="clip6bef84x"><rect x="135" y="0" width="998" height="900"/></clipPath><clipPath class="axesclip" id="clip6bef84y"><rect x="0" y="100" width="1400" height="720"/></clipPath><clipPath class="axesclip" id="clip6bef84xy"><rect x="135" y="100" width="998" height="720"/></clipPath></g><g class="gradients"/></defs><g class="bglayer"><rect class="bg" x="135" y="100" width="998" height="720" style="fill: rgb(229, 236, 246); fill-opacity: 1; stroke-width: 0;"/></g><g class="layer-below"><g class="imagelayer"/><g class="shapelayer"/></g><g class="cartesianlayer"><g class="subplot xy"><g class="layer-subplot"><g class="shapelayer"/><g class="imagelayer"/></g><g class="gridlayer"><g class="x"><path class="xgrid crisp" transform="translate(348.86,0)" d="M0,100v720" style="stroke: rgb(255, 255, 255); stroke-opacity: 1; stroke-width: 1px;"/><path class="xgrid crisp" transform="translate(538.95,0)" d="M0,100v720" style="stroke: rgb(255, 255, 255); stroke-opacity: 1; stroke-width: 1px;"/><path class="xgrid crisp" transform="translate(729.05,0)" d="M0,100v720" style="stroke: rgb(255, 255, 255); stroke-opacity: 1; stroke-width: 1px;"/><path class="xgrid crisp" transform="translate(919.14,0)" d="M0,100v720" style="stroke: rgb(255, 255, 255); stroke-opacity: 1; stroke-width: 1px;"/><path class="xgrid crisp" transform="translate(1109.24,0)" d="M0,100v720" style="stroke: rgb(255, 255, 255); stroke-opacity: 1; stroke-width: 1px;"/></g><g class="y"><path class="ygrid crisp" transform="translate(0,649.4)" d="M135,0h998" style="stroke: rgb(255, 255, 255); stroke-opacity: 1; stroke-width: 1px;"/><path class="ygrid crisp" transform="translate(0,521.05)" d="M135,0h998" style="stroke: rgb(255, 255, 255); stroke-opacity: 1; stroke-width: 1px;"/><path class="ygrid crisp" transform="translate(0,392.7)" d="M135,0h998" style="stroke: rgb(255, 255, 255); stroke-opacity: 1; stroke-width: 1px;"/><path class="ygrid crisp" transform="translate(0,264.35)" d="M135,0h998" style="stroke: rgb(255, 255, 255); stroke-opacity: 1; stroke-width: 1px;"/><path class="ygrid crisp" transform="translate(0,136)" d="M135,0h998" style="stroke: rgb(255, 255, 255); stroke-opacity: 1; stroke-width: 1px;"/></g></g><g class="zerolinelayer"><path class="xzl zl crisp" transform="translate(158.76,0)" d="M0,100v720" style="stroke: rgb(78, 78, 78); stroke-opacity: 1; stroke-width: 2px;"/><path class="yzl zl crisp" transform="translate(0,777.75)" d="M135,0h998" style="stroke: rgb(78, 78, 78); stroke-opacity: 1; stroke-width: 2px;"/></g><path class="xlines-below"/><path class="ylines-below"/><g class="overlines-below"/><g class="xaxislayer-below"/><g class="yaxislayer-below"/><g class="overaxes-below"/><g class="plot" transform="translate(135,100)" clip-path="url('#clip6bef84xyplot')"><g class="scatterlayer mlayer"><g class="trace scatter tracebcb47f" style="stroke-miterlimit: 2; opacity: 1;"><g class="fills"/><g class="errorbars"/><g class="lines"><path class="js-line" d="M23.76,36L36.02,150.52L42.77,204.59L55.03,289.02L61.78,328.89L74.04,391.14L80.79,420.53L93.05,466.43L99.8,488.1L112.06,521.94L118.81,537.92L131.07,562.87L137.82,574.65L150.08,593.05L156.83,601.74L169.09,615.3L175.84,621.71L188.1,631.71L194.85,636.43L207.11,643.8L213.86,647.28L232.87,655.29L235.81,656.32L254.82,661.95L264.14,664.14L292.84,669.16L302.16,670.35L340.17,673.73L346.92,674.14L397.2,676.14L403.95,676.3L492.25,677.4L499,677.43L692.04,677.74L701.36,677.74L974.24,677.75" style="vector-effect: non-scaling-stroke; fill: none; stroke: rgb(0, 113, 188); stroke-opacity: 1; stroke-width: 4px; opacity: 1;"/></g><g class="points"/><g class="text"/></g><g class="trace scatter trace3bfe48" style="stroke-miterlimit: 2; opacity: 1;"><g class="fills"/><g class="errorbars"/><g class="lines"/><g class="points"><path class="point" transform="translate(23.76,186.35)" d="M5,0A5,5 0 1,1 0,-5A5,5 0 0,1 5,0Z" style="opacity: 0.5; stroke-width: 0px; fill: rgb(0, 113, 188); fill-opacity: 1;"/><path class="point" transform="translate(42.77,319.47)" d="M5,0A5,5 0 1,1 0,-5A5,5 0 0,1 5,0Z" style="opacity: 0.5; stroke-width: 0px; fill: rgb(0, 113, 188); fill-opacity: 1;"/><path class="point" transform="translate(61.78,370.07)" d="M5,0A5,5 0 1,1 0,-5A5,5 0 0,1 5,0Z" style="opacity: 0.5; stroke-width: 0px; fill: rgb(0, 113, 188); fill-opacity: 1;"/><path class="point" transform="translate(80.79,596.65)" d="M5,0A5,5 0 1,1 0,-5A5,5 0 0,1 5,0Z" style="opacity: 0.5; stroke-width: 0px; fill: rgb(0, 113, 188); fill-opacity: 1;"/><path class="point" transform="translate(99.8,492.27)" d="M5,0A5,5 0 1,1 0,-5A5,5 0 0,1 5,0Z" style="opacity: 0.5; stroke-width: 0px; fill: rgb(0, 113, 188); fill-opacity: 1;"/><path class="point" transform="translate(118.81,529.62)" d="M5,0A5,5 0 1,1 0,-5A5,5 0 0,1 5,0Z" style="opacity: 0.5; stroke-width: 0px; fill: rgb(0, 113, 188); fill-opacity: 1;"/><path class="point" transform="translate(137.82,630.28)" d="M5,0A5,5 0 1,1 0,-5A5,5 0 0,1 5,0Z" style="opacity: 0.5; stroke-width: 0px; fill: rgb(0, 113, 188); fill-opacity: 1;"/><path class="point" transform="translate(156.83,537.77)" d="M5,0A5,5 0 1,1 0,-5A5,5 0 0,1 5,0Z" style="opacity: 0.5; stroke-width: 0px; fill: rgb(0, 113, 188); fill-opacity: 1;"/><path class="point" transform="translate(175.84,618.17)" d="M5,0A5,5 0 1,1 0,-5A5,5 0 0,1 5,0Z" style="opacity: 0.5; stroke-width: 0px; fill: rgb(0, 113, 188); fill-opacity: 1;"/><path class="point" transform="translate(194.85,649.07)" d="M5,0A5,5 0 1,1 0,-5A5,5 0 0,1 5,0Z" style="opacity: 0.5; stroke-width: 0px; fill: rgb(0, 113, 188); fill-opacity: 1;"/><path class="point" transform="translate(213.86,677.75)" d="M5,0A5,5 0 1,1 0,-5A5,5 0 0,1 5,0Z" style="opacity: 0.5; stroke-width: 0px; fill: rgb(0, 113, 188); fill-opacity: 1;"/><path class="point" transform="translate(232.87,540.48)" d="M5,0A5,5 0 1,1 0,-5A5,5 0 0,1 5,0Z" style="opacity: 0.5; stroke-width: 0px; fill: rgb(0, 113, 188); fill-opacity: 1;"/><path class="point" transform="translate(251.88,619.73)" d="M5,0A5,5 0 1,1 0,-5A5,5 0 0,1 5,0Z" style="opacity: 0.5; stroke-width: 0px; fill: rgb(0, 113, 188); fill-opacity: 1;"/><path class="point" transform="translate(270.89,468.24)" d="M5,0A5,5 0 1,1 0,-5A5,5 0 0,1 5,0Z" style="opacity: 0.5; stroke-width: 0px; fill: rgb(0, 113, 188); fill-opacity: 1;"/><path class="point" transform="translate(289.9,675.46)" d="M5,0A5,5 0 1,1 0,-5A5,5 0 0,1 5,0Z" style="opacity: 0.5; stroke-width: 0px; fill: rgb(0, 113, 188); fill-opacity: 1;"/><path class="point" transform="translate(308.9,646.47)" d="M5,0A5,5 0 1,1 0,-5A5,5 0 0,1 5,0Z" style="opacity: 0.5; stroke-width: 0px; fill: rgb(0, 113, 188); fill-opacity: 1;"/><path class="point" transform="translate(327.91,586.69)" d="M5,0A5,5 0 1,1 0,-5A5,5 0 0,1 5,0Z" style="opacity: 0.5; stroke-width: 0px; fill: rgb(0, 113, 188); fill-opacity: 1;"/><path class="point" transform="translate(346.92,577.84)" d="M5,0A5,5 0 1,1 0,-5A5,5 0 0,1 5,0Z" style="opacity: 0.5; stroke-width: 0px; fill: rgb(0, 113, 188); fill-opacity: 1;"/><path class="point" transform="translate(365.93,677.75)" d="M5,0A5,5 0 1,1 0,-5A5,5 0 0,1 5,0Z" style="opacity: 0.5; stroke-width: 0px; fill: rgb(0, 113, 188); fill-opacity: 1;"/><path class="point" transform="translate(384.94,610.9)" d="M5,0A5,5 0 1,1 0,-5A5,5 0 0,1 5,0Z" style="opacity: 0.5; stroke-width: 0px; fill: rgb(0, 113, 188); fill-opacity: 1;"/><path class="point" transform="translate(403.95,672.4)" d="M5,0A5,5 0 1,1 0,-5A5,5 0 0,1 5,0Z" style="opacity: 0.5; stroke-width: 0px; fill: rgb(0, 113, 188); fill-opacity: 1;"/><path class="point" transform="translate(422.96,677.75)" d="M5,0A5,5 0 1,1 0,-5A5,5 0 0,1 5,0Z" style="opacity: 0.5; stroke-width: 0px; fill: rgb(0, 113, 188); fill-opacity: 1;"/><path class="point" transform="translate(441.97,677.67)" d="M5,0A5,5 0 1,1 0,-5A5,5 0 0,1 5,0Z" style="opacity: 0.5; stroke-width: 0px; fill: rgb(0, 113, 188); fill-opacity: 1;"/><path class="point" transform="translate(460.98,623.64)" d="M5,0A5,5 0 1,1 0,-5A5,5 0 0,1 5,0Z" style="opacity: 0.5; stroke-width: 0px; fill: rgb(0, 113, 188); fill-opacity: 1;"/><path class="point" transform="translate(479.99,677.75)" d="M5,0A5,5 0 1,1 0,-5A5,5 0 0,1 5,0Z" style="opacity: 0.5; stroke-width: 0px; fill: rgb(0, 113, 188); fill-opacity: 1;"/><path class="point" transform="translate(499,673.48)" d="M5,0A5,5 0 1,1 0,-5A5,5 0 0,1 5,0Z" style="opacity: 0.5; stroke-width: 0px; fill: rgb(0, 113, 188); fill-opacity: 1;"/><path class="point" transform="translate(518.01,677.75)" d="M5,0A5,5 0 1,1 0,-5A5,5 0 0,1 5,0Z" style="opacity: 0.5; stroke-width: 0px; fill: rgb(0, 113, 188); fill-opacity: 1;"/><path class="point" transform="translate(537.02,677.75)" d="M5,0A5,5 0 1,1 0,-5A5,5 0 0,1 5,0Z" style="opacity: 0.5; stroke-width: 0px; fill: rgb(0, 113, 188); fill-opacity: 1;"/><path class="point" transform="translate(556.03,677.75)" d="M5,0A5,5 0 1,1 0,-5A5,5 0 0,1 5,0Z" style="opacity: 0.5; stroke-width: 0px; fill: rgb(0, 113, 188); fill-opacity: 1;"/><path class="point" transform="translate(575.04,677.02)" d="M5,0A5,5 0 1,1 0,-5A5,5 0 0,1 5,0Z" style="opacity: 0.5; stroke-width: 0px; fill: rgb(0, 113, 188); fill-opacity: 1;"/><path class="point" transform="translate(594.05,677.75)" d="M5,0A5,5 0 1,1 0,-5A5,5 0 0,1 5,0Z" style="opacity: 0.5; stroke-width: 0px; fill: rgb(0, 113, 188); fill-opacity: 1;"/><path class="point" transform="translate(613.06,642.55)" d="M5,0A5,5 0 1,1 0,-5A5,5 0 0,1 5,0Z" style="opacity: 0.5; stroke-width: 0px; fill: rgb(0, 113, 188); fill-opacity: 1;"/><path class="point" transform="translate(632.07,674.31)" d="M5,0A5,5 0 1,1 0,-5A5,5 0 0,1 5,0Z" style="opacity: 0.5; stroke-width: 0px; fill: rgb(0, 113, 188); fill-opacity: 1;"/><path class="point" transform="translate(651.08,616.41)" d="M5,0A5,5 0 1,1 0,-5A5,5 0 0,1 5,0Z" style="opacity: 0.5; stroke-width: 0px; fill: rgb(0, 113, 188); fill-opacity: 1;"/><path class="point" transform="translate(670.09,675.27)" d="M5,0A5,5 0 1,1 0,-5A5,5 0 0,1 5,0Z" style="opacity: 0.5; stroke-width: 0px; fill: rgb(0, 113, 188); fill-opacity: 1;"/><path class="point" transform="translate(689.1,562.92)" d="M5,0A5,5 0 1,1 0,-5A5,5 0 0,1 5,0Z" style="opacity: 0.5; stroke-width: 0px; fill: rgb(0, 113, 188); fill-opacity: 1;"/><path class="point" transform="translate(708.1,632.74)" d="M5,0A5,5 0 1,1 0,-5A5,5 0 0,1 5,0Z" style="opacity: 0.5; stroke-width: 0px; fill: rgb(0, 113, 188); fill-opacity: 1;"/><path class="point" transform="translate(727.11,677.75)" d="M5,0A5,5 0 1,1 0,-5A5,5 0 0,1 5,0Z" style="opacity: 0.5; stroke-width: 0px; fill: rgb(0, 113, 188); fill-opacity: 1;"/><path class="point" transform="translate(746.12,677.75)" d="M5,0A5,5 0 1,1 0,-5A5,5 0 0,1 5,0Z" style="opacity: 0.5; stroke-width: 0px; fill: rgb(0, 113, 188); fill-opacity: 1;"/><path class="point" transform="translate(765.13,598.87)" d="M5,0A5,5 0 1,1 0,-5A5,5 0 0,1 5,0Z" style="opacity: 0.5; stroke-width: 0px; fill: rgb(0, 113, 188); fill-opacity: 1;"/><path class="point" transform="translate(784.14,643.63)" d="M5,0A5,5 0 1,1 0,-5A5,5 0 0,1 5,0Z" style="opacity: 0.5; stroke-width: 0px; fill: rgb(0, 113, 188); fill-opacity: 1;"/><path class="point" transform="translate(803.15,667.42)" d="M5,0A5,5 0 1,1 0,-5A5,5 0 0,1 5,0Z" style="opacity: 0.5; stroke-width: 0px; fill: rgb(0, 113, 188); fill-opacity: 1;"/><path class="point" transform="translate(822.16,677.75)" d="M5,0A5,5 0 1,1 0,-5A5,5 0 0,1 5,0Z" style="opacity: 0.5; stroke-width: 0px; fill: rgb(0, 113, 188); fill-opacity: 1;"/><path class="point" transform="translate(841.17,677.75)" d="M5,0A5,5 0 1,1 0,-5A5,5 0 0,1 5,0Z" style="opacity: 0.5; stroke-width: 0px; fill: rgb(0, 113, 188); fill-opacity: 1;"/><path class="point" transform="translate(860.18,637.48)" d="M5,0A5,5 0 1,1 0,-5A5,5 0 0,1 5,0Z" style="opacity: 0.5; stroke-width: 0px; fill: rgb(0, 113, 188); fill-opacity: 1;"/><path class="point" transform="translate(879.19,677.75)" d="M5,0A5,5 0 1,1 0,-5A5,5 0 0,1 5,0Z" style="opacity: 0.5; stroke-width: 0px; fill: rgb(0, 113, 188); fill-opacity: 1;"/><path class="point" transform="translate(898.2,585.02)" d="M5,0A5,5 0 1,1 0,-5A5,5 0 0,1 5,0Z" style="opacity: 0.5; stroke-width: 0px; fill: rgb(0, 113, 188); fill-opacity: 1;"/><path class="point" transform="translate(917.21,677.75)" d="M5,0A5,5 0 1,1 0,-5A5,5 0 0,1 5,0Z" style="opacity: 0.5; stroke-width: 0px; fill: rgb(0, 113, 188); fill-opacity: 1;"/><path class="point" transform="translate(936.22,676.79)" d="M5,0A5,5 0 1,1 0,-5A5,5 0 0,1 5,0Z" style="opacity: 0.5; stroke-width: 0px; fill: rgb(0, 113, 188); fill-opacity: 1;"/><path class="point" transform="translate(955.23,641.06)" d="M5,0A5,5 0 1,1 0,-5A5,5 0 0,1 5,0Z" style="opacity: 0.5; stroke-width: 0px; fill: rgb(0, 113, 188); fill-opacity: 1;"/><path class="point" transform="translate(974.24,573.64)" d="M5,0A5,5 0 1,1 0,-5A5,5 0 0,1 5,0Z" style="opacity: 0.5; stroke-width: 0px; fill: rgb(0, 113, 188); fill-opacity: 1;"/></g><g class="text"/></g><g class="trace scatter tracee85886" style="stroke-miterlimit: 2; opacity: 1;"><g class="fills"/><g class="errorbars"/><g class="lines"><path class="js-line" d="M23.76,677.75L36.02,564.72L42.77,512.61L45.72,491.84L55.03,433.41L64.73,382.88L74.04,342.81L83.74,308.63L93.05,281.99L102.75,259.75L112.06,242.89L121.76,229.34L131.07,219.59L140.77,212.33L150.08,207.72L159.78,205L169.09,204.08L178.79,204.6L188.1,206.3L197.8,209.11L207.11,212.65L226.12,221.88L232.87,225.66L254.82,239.26L264.14,245.46L311.85,279.27L321.16,286.01L387.89,333.28L397.2,339.61L444.92,370.62L454.23,376.38L501.95,404.42L511.26,409.6L558.98,434.71L568.29,439.34L616,461.73L625.32,465.85L673.03,485.77L682.35,489.44L730.06,507.15L739.37,510.41L796.4,529.05L803.15,531.12L863.13,548.25L872.44,550.72L936.22,566.45L939.17,567.12L974.24,574.88" style="vector-effect: non-scaling-stroke; fill: none; stroke: rgb(216, 82, 24); stroke-opacity: 1; stroke-width: 4px; opacity: 1;"/></g><g class="points"/><g class="text"/></g><g class="trace scatter trace34eb93" style="stroke-miterlimit: 2; opacity: 1;"><g class="fills"/><g class="errorbars"/><g class="lines"/><g class="points"><path class="point" transform="translate(23.76,677.75)" d="M5,0A5,5 0 1,1 0,-5A5,5 0 0,1 5,0Z" style="opacity: 0.5; stroke-width: 0px; fill: rgb(216, 82, 24); fill-opacity: 1;"/><path class="point" transform="translate(42.77,558.65)" d="M5,0A5,5 0 1,1 0,-5A5,5 0 0,1 5,0Z" style="opacity: 0.5; stroke-width: 0px; fill: rgb(216, 82, 24); fill-opacity: 1;"/><path class="point" transform="translate(61.78,440.62)" d="M5,0A5,5 0 1,1 0,-5A5,5 0 0,1 5,0Z" style="opacity: 0.5; stroke-width: 0px; fill: rgb(216, 82, 24); fill-opacity: 1;"/><path class="point" transform="translate(80.79,331.68)" d="M5,0A5,5 0 1,1 0,-5A5,5 0 0,1 5,0Z" style="opacity: 0.5; stroke-width: 0px; fill: rgb(216, 82, 24); fill-opacity: 1;"/><path class="point" transform="translate(99.8,287.08)" d="M5,0A5,5 0 1,1 0,-5A5,5 0 0,1 5,0Z" style="opacity: 0.5; stroke-width: 0px; fill: rgb(216, 82, 24); fill-opacity: 1;"/><path class="point" transform="translate(118.81,248.64)" d="M5,0A5,5 0 1,1 0,-5A5,5 0 0,1 5,0Z" style="opacity: 0.5; stroke-width: 0px; fill: rgb(216, 82, 24); fill-opacity: 1;"/><path class="point" transform="translate(137.82,209.58)" d="M5,0A5,5 0 1,1 0,-5A5,5 0 0,1 5,0Z" style="opacity: 0.5; stroke-width: 0px; fill: rgb(216, 82, 24); fill-opacity: 1;"/><path class="point" transform="translate(156.83,224.23)" d="M5,0A5,5 0 1,1 0,-5A5,5 0 0,1 5,0Z" style="opacity: 0.5; stroke-width: 0px; fill: rgb(216, 82, 24); fill-opacity: 1;"/><path class="point" transform="translate(175.84,208.39)" d="M5,0A5,5 0 1,1 0,-5A5,5 0 0,1 5,0Z" style="opacity: 0.5; stroke-width: 0px; fill: rgb(216, 82, 24); fill-opacity: 1;"/><path class="point" transform="translate(194.85,204.03)" d="M5,0A5,5 0 1,1 0,-5A5,5 0 0,1 5,0Z" style="opacity: 0.5; stroke-width: 0px; fill: rgb(216, 82, 24); fill-opacity: 1;"/><path class="point" transform="translate(213.86,228.34)" d="M5,0A5,5 0 1,1 0,-5A5,5 0 0,1 5,0Z" style="opacity: 0.5; stroke-width: 0px; fill: rgb(216, 82, 24); fill-opacity: 1;"/><path class="point" transform="translate(232.87,200.88)" d="M5,0A5,5 0 1,1 0,-5A5,5 0 0,1 5,0Z" style="opacity: 0.5; stroke-width: 0px; fill: rgb(216, 82, 24); fill-opacity: 1;"/><path class="point" transform="translate(251.88,218.01)" d="M5,0A5,5 0 1,1 0,-5A5,5 0 0,1 5,0Z" style="opacity: 0.5; stroke-width: 0px; fill: rgb(216, 82, 24); fill-opacity: 1;"/><path class="point" transform="translate(270.89,228.48)" d="M5,0A5,5 0 1,1 0,-5A5,5 0 0,1 5,0Z" style="opacity: 0.5; stroke-width: 0px; fill: rgb(216, 82, 24); fill-opacity: 1;"/><path class="point" transform="translate(289.9,259.08)" d="M5,0A5,5 0 1,1 0,-5A5,5 0 0,1 5,0Z" style="opacity: 0.5; stroke-width: 0px; fill: rgb(216, 82, 24); fill-opacity: 1;"/><path class="point" transform="translate(308.9,290.34)" d="M5,0A5,5 0 1,1 0,-5A5,5 0 0,1 5,0Z" style="opacity: 0.5; stroke-width: 0px; fill: rgb(216, 82, 24); fill-opacity: 1;"/><path class="point" transform="translate(327.91,289.96)" d="M5,0A5,5 0 1,1 0,-5A5,5 0 0,1 5,0Z" style="opacity: 0.5; stroke-width: 0px; fill: rgb(216, 82, 24); fill-opacity: 1;"/><path class="point" transform="translate(346.92,287.64)" d="M5,0A5,5 0 1,1 0,-5A5,5 0 0,1 5,0Z" style="opacity: 0.5; stroke-width: 0px; fill: rgb(216, 82, 24); fill-opacity: 1;"/><path class="point" transform="translate(365.93,266.56)" d="M5,0A5,5 0 1,1 0,-5A5,5 0 0,1 5,0Z" style="opacity: 0.5; stroke-width: 0px; fill: rgb(216, 82, 24); fill-opacity: 1;"/><path class="point" transform="translate(384.94,308)" d="M5,0A5,5 0 1,1 0,-5A5,5 0 0,1 5,0Z" style="opacity: 0.5; stroke-width: 0px; fill: rgb(216, 82, 24); fill-opacity: 1;"/><path class="point" transform="translate(403.95,327.59)" d="M5,0A5,5 0 1,1 0,-5A5,5 0 0,1 5,0Z" style="opacity: 0.5; stroke-width: 0px; fill: rgb(216, 82, 24); fill-opacity: 1;"/><path class="point" transform="translate(422.96,372.45)" d="M5,0A5,5 0 1,1 0,-5A5,5 0 0,1 5,0Z" style="opacity: 0.5; stroke-width: 0px; fill: rgb(216, 82, 24); fill-opacity: 1;"/><path class="point" transform="translate(441.97,339.21)" d="M5,0A5,5 0 1,1 0,-5A5,5 0 0,1 5,0Z" style="opacity: 0.5; stroke-width: 0px; fill: rgb(216, 82, 24); fill-opacity: 1;"/><path class="point" transform="translate(460.98,348.69)" d="M5,0A5,5 0 1,1 0,-5A5,5 0 0,1 5,0Z" style="opacity: 0.5; stroke-width: 0px; fill: rgb(216, 82, 24); fill-opacity: 1;"/><path class="point" transform="translate(479.99,428.26)" d="M5,0A5,5 0 1,1 0,-5A5,5 0 0,1 5,0Z" style="opacity: 0.5; stroke-width: 0px; fill: rgb(216, 82, 24); fill-opacity: 1;"/><path class="point" transform="translate(499,392.89)" d="M5,0A5,5 0 1,1 0,-5A5,5 0 0,1 5,0Z" style="opacity: 0.5; stroke-width: 0px; fill: rgb(216, 82, 24); fill-opacity: 1;"/><path class="point" transform="translate(518.01,439.17)" d="M5,0A5,5 0 1,1 0,-5A5,5 0 0,1 5,0Z" style="opacity: 0.5; stroke-width: 0px; fill: rgb(216, 82, 24); fill-opacity: 1;"/><path class="point" transform="translate(537.02,385.59)" d="M5,0A5,5 0 1,1 0,-5A5,5 0 0,1 5,0Z" style="opacity: 0.5; stroke-width: 0px; fill: rgb(216, 82, 24); fill-opacity: 1;"/><path class="point" transform="translate(556.03,440.18)" d="M5,0A5,5 0 1,1 0,-5A5,5 0 0,1 5,0Z" style="opacity: 0.5; stroke-width: 0px; fill: rgb(216, 82, 24); fill-opacity: 1;"/><path class="point" transform="translate(575.04,429.68)" d="M5,0A5,5 0 1,1 0,-5A5,5 0 0,1 5,0Z" style="opacity: 0.5; stroke-width: 0px; fill: rgb(216, 82, 24); fill-opacity: 1;"/><path class="point" transform="translate(594.05,447.01)" d="M5,0A5,5 0 1,1 0,-5A5,5 0 0,1 5,0Z" style="opacity: 0.5; stroke-width: 0px; fill: rgb(216, 82, 24); fill-opacity: 1;"/><path class="point" transform="translate(613.06,479.51)" d="M5,0A5,5 0 1,1 0,-5A5,5 0 0,1 5,0Z" style="opacity: 0.5; stroke-width: 0px; fill: rgb(216, 82, 24); fill-opacity: 1;"/><path class="point" transform="translate(632.07,476.85)" d="M5,0A5,5 0 1,1 0,-5A5,5 0 0,1 5,0Z" style="opacity: 0.5; stroke-width: 0px; fill: rgb(216, 82, 24); fill-opacity: 1;"/><path class="point" transform="translate(651.08,497.1)" d="M5,0A5,5 0 1,1 0,-5A5,5 0 0,1 5,0Z" style="opacity: 0.5; stroke-width: 0px; fill: rgb(216, 82, 24); fill-opacity: 1;"/><path class="point" transform="translate(670.09,476.14)" d="M5,0A5,5 0 1,1 0,-5A5,5 0 0,1 5,0Z" style="opacity: 0.5; stroke-width: 0px; fill: rgb(216, 82, 24); fill-opacity: 1;"/><path class="point" transform="translate(689.1,528.66)" d="M5,0A5,5 0 1,1 0,-5A5,5 0 0,1 5,0Z" style="opacity: 0.5; stroke-width: 0px; fill: rgb(216, 82, 24); fill-opacity: 1;"/><path class="point" transform="translate(708.1,501.64)" d="M5,0A5,5 0 1,1 0,-5A5,5 0 0,1 5,0Z" style="opacity: 0.5; stroke-width: 0px; fill: rgb(216, 82, 24); fill-opacity: 1;"/><path class="point" transform="translate(727.11,525.89)" d="M5,0A5,5 0 1,1 0,-5A5,5 0 0,1 5,0Z" style="opacity: 0.5; stroke-width: 0px; fill: rgb(216, 82, 24); fill-opacity: 1;"/><path class="point" transform="translate(746.12,536.82)" d="M5,0A5,5 0 1,1 0,-5A5,5 0 0,1 5,0Z" style="opacity: 0.5; stroke-width: 0px; fill: rgb(216, 82, 24); fill-opacity: 1;"/><path class="point" transform="translate(765.13,548.73)" d="M5,0A5,5 0 1,1 0,-5A5,5 0 0,1 5,0Z" style="opacity: 0.5; stroke-width: 0px; fill: rgb(216, 82, 24); fill-opacity: 1;"/><path class="point" transform="translate(784.14,507.29)" d="M5,0A5,5 0 1,1 0,-5A5,5 0 0,1 5,0Z" style="opacity: 0.5; stroke-width: 0px; fill: rgb(216, 82, 24); fill-opacity: 1;"/><path class="point" transform="translate(803.15,519.03)" d="M5,0A5,5 0 1,1 0,-5A5,5 0 0,1 5,0Z" style="opacity: 0.5; stroke-width: 0px; fill: rgb(216, 82, 24); fill-opacity: 1;"/><path class="point" transform="translate(822.16,536.36)" d="M5,0A5,5 0 1,1 0,-5A5,5 0 0,1 5,0Z" style="opacity: 0.5; stroke-width: 0px; fill: rgb(216, 82, 24); fill-opacity: 1;"/><path class="point" transform="translate(841.17,554.27)" d="M5,0A5,5 0 1,1 0,-5A5,5 0 0,1 5,0Z" style="opacity: 0.5; stroke-width: 0px; fill: rgb(216, 82, 24); fill-opacity: 1;"/><path class="point" transform="translate(860.18,586.8)" d="M5,0A5,5 0 1,1 0,-5A5,5 0 0,1 5,0Z" style="opacity: 0.5; stroke-width: 0px; fill: rgb(216, 82, 24); fill-opacity: 1;"/><path class="point" transform="translate(879.19,591.72)" d="M5,0A5,5 0 1,1 0,-5A5,5 0 0,1 5,0Z" style="opacity: 0.5; stroke-width: 0px; fill: rgb(216, 82, 24); fill-opacity: 1;"/><path class="point" transform="translate(898.2,604.44)" d="M5,0A5,5 0 1,1 0,-5A5,5 0 0,1 5,0Z" style="opacity: 0.5; stroke-width: 0px; fill: rgb(216, 82, 24); fill-opacity: 1;"/><path class="point" transform="translate(917.21,602.51)" d="M5,0A5,5 0 1,1 0,-5A5,5 0 0,1 5,0Z" style="opacity: 0.5; stroke-width: 0px; fill: rgb(216, 82, 24); fill-opacity: 1;"/><path class="point" transform="translate(936.22,588.12)" d="M5,0A5,5 0 1,1 0,-5A5,5 0 0,1 5,0Z" style="opacity: 0.5; stroke-width: 0px; fill: rgb(216, 82, 24); fill-opacity: 1;"/><path class="point" transform="translate(955.23,585.42)" d="M5,0A5,5 0 1,1 0,-5A5,5 0 0,1 5,0Z" style="opacity: 0.5; stroke-width: 0px; fill: rgb(216, 82, 24); fill-opacity: 1;"/><path class="point" transform="translate(974.24,627.82)" d="M5,0A5,5 0 1,1 0,-5A5,5 0 0,1 5,0Z" style="opacity: 0.5; stroke-width: 0px; fill: rgb(216, 82, 24); fill-opacity: 1;"/></g><g class="text"/></g><g class="trace scatter trace44b54b" style="stroke-miterlimit: 2; opacity: 1;"><g class="fills"/><g class="errorbars"/><g class="lines"><path class="js-line" d="M23.76,677.75L26.71,677.66L36.02,676.26L45.72,673.24L55.03,669.07L64.73,663.64L74.04,657.55L93.05,643.08L99.8,637.43L121.76,617.78L131.07,609.03L197.8,544.05L207.11,535.04L254.82,490.29L264.14,481.89L308.9,443.25L311.85,440.81L349.87,410.51L359.18,403.42L397.2,375.75L403.95,371.06L444.92,343.88L454.23,338.01L501.95,309.63L511.26,304.41L558.98,279.16L568.29,274.52L616,252.07L625.32,247.94L673.03,228L682.35,224.33L739.37,203.35L746.12,201.02L806.1,181.74L815.41,178.96L872.44,163.03L879.19,161.26L939.17,146.63L948.48,144.51L974.24,138.87" style="vector-effect: non-scaling-stroke; fill: none; stroke: rgb(236, 176, 31); stroke-opacity: 1; stroke-width: 4px; opacity: 1;"/></g><g class="points"/><g class="text"/></g><g class="trace scatter traceaa5df8" style="stroke-miterlimit: 2; opacity: 1;"><g class="fills"/><g class="errorbars"/><g class="lines"/><g class="points"><path class="point" transform="translate(23.76,677.75)" d="M5,0A5,5 0 1,1 0,-5A5,5 0 0,1 5,0Z" style="opacity: 0.5; stroke-width: 0px; fill: rgb(236, 176, 31); fill-opacity: 1;"/><path class="point" transform="translate(42.77,661.13)" d="M5,0A5,5 0 1,1 0,-5A5,5 0 0,1 5,0Z" style="opacity: 0.5; stroke-width: 0px; fill: rgb(236, 176, 31); fill-opacity: 1;"/><path class="point" transform="translate(61.78,677.75)" d="M5,0A5,5 0 1,1 0,-5A5,5 0 0,1 5,0Z" style="opacity: 0.5; stroke-width: 0px; fill: rgb(236, 176, 31); fill-opacity: 1;"/><path class="point" transform="translate(80.79,648.65)" d="M5,0A5,5 0 1,1 0,-5A5,5 0 0,1 5,0Z" style="opacity: 0.5; stroke-width: 0px; fill: rgb(236, 176, 31); fill-opacity: 1;"/><path class="point" transform="translate(99.8,670.08)" d="M5,0A5,5 0 1,1 0,-5A5,5 0 0,1 5,0Z" style="opacity: 0.5; stroke-width: 0px; fill: rgb(236, 176, 31); fill-opacity: 1;"/><path class="point" transform="translate(118.81,654.79)" d="M5,0A5,5 0 1,1 0,-5A5,5 0 0,1 5,0Z" style="opacity: 0.5; stroke-width: 0px; fill: rgb(236, 176, 31); fill-opacity: 1;"/><path class="point" transform="translate(137.82,608.03)" d="M5,0A5,5 0 1,1 0,-5A5,5 0 0,1 5,0Z" style="opacity: 0.5; stroke-width: 0px; fill: rgb(236, 176, 31); fill-opacity: 1;"/><path class="point" transform="translate(156.83,595.98)" d="M5,0A5,5 0 1,1 0,-5A5,5 0 0,1 5,0Z" style="opacity: 0.5; stroke-width: 0px; fill: rgb(236, 176, 31); fill-opacity: 1;"/><path class="point" transform="translate(175.84,591.29)" d="M5,0A5,5 0 1,1 0,-5A5,5 0 0,1 5,0Z" style="opacity: 0.5; stroke-width: 0px; fill: rgb(236, 176, 31); fill-opacity: 1;"/><path class="point" transform="translate(194.85,602.53)" d="M5,0A5,5 0 1,1 0,-5A5,5 0 0,1 5,0Z" style="opacity: 0.5; stroke-width: 0px; fill: rgb(236, 176, 31); fill-opacity: 1;"/><path class="point" transform="translate(213.86,561.17)" d="M5,0A5,5 0 1,1 0,-5A5,5 0 0,1 5,0Z" style="opacity: 0.5; stroke-width: 0px; fill: rgb(236, 176, 31); fill-opacity: 1;"/><path class="point" transform="translate(232.87,542.73)" d="M5,0A5,5 0 1,1 0,-5A5,5 0 0,1 5,0Z" style="opacity: 0.5; stroke-width: 0px; fill: rgb(236, 176, 31); fill-opacity: 1;"/><path class="point" transform="translate(251.88,493.69)" d="M5,0A5,5 0 1,1 0,-5A5,5 0 0,1 5,0Z" style="opacity: 0.5; stroke-width: 0px; fill: rgb(236, 176, 31); fill-opacity: 1;"/><path class="point" transform="translate(270.89,490.93)" d="M5,0A5,5 0 1,1 0,-5A5,5 0 0,1 5,0Z" style="opacity: 0.5; stroke-width: 0px; fill: rgb(236, 176, 31); fill-opacity: 1;"/><path class="point" transform="translate(289.9,468.15)" d="M5,0A5,5 0 1,1 0,-5A5,5 0 0,1 5,0Z" style="opacity: 0.5; stroke-width: 0px; fill: rgb(236, 176, 31); fill-opacity: 1;"/><path class="point" transform="translate(308.9,467.76)" d="M5,0A5,5 0 1,1 0,-5A5,5 0 0,1 5,0Z" style="opacity: 0.5; stroke-width: 0px; fill: rgb(236, 176, 31); fill-opacity: 1;"/><path class="point" transform="translate(327.91,439.21)" d="M5,0A5,5 0 1,1 0,-5A5,5 0 0,1 5,0Z" style="opacity: 0.5; stroke-width: 0px; fill: rgb(236, 176, 31); fill-opacity: 1;"/><path class="point" transform="translate(346.92,452.41)" d="M5,0A5,5 0 1,1 0,-5A5,5 0 0,1 5,0Z" style="opacity: 0.5; stroke-width: 0px; fill: rgb(236, 176, 31); fill-opacity: 1;"/><path class="point" transform="translate(365.93,407.01)" d="M5,0A5,5 0 1,1 0,-5A5,5 0 0,1 5,0Z" style="opacity: 0.5; stroke-width: 0px; fill: rgb(236, 176, 31); fill-opacity: 1;"/><path class="point" transform="translate(384.94,383.64)" d="M5,0A5,5 0 1,1 0,-5A5,5 0 0,1 5,0Z" style="opacity: 0.5; stroke-width: 0px; fill: rgb(236, 176, 31); fill-opacity: 1;"/><path class="point" transform="translate(403.95,397.1)" d="M5,0A5,5 0 1,1 0,-5A5,5 0 0,1 5,0Z" style="opacity: 0.5; stroke-width: 0px; fill: rgb(236, 176, 31); fill-opacity: 1;"/><path class="point" transform="translate(422.96,353.77)" d="M5,0A5,5 0 1,1 0,-5A5,5 0 0,1 5,0Z" style="opacity: 0.5; stroke-width: 0px; fill: rgb(236, 176, 31); fill-opacity: 1;"/><path class="point" transform="translate(441.97,373.72)" d="M5,0A5,5 0 1,1 0,-5A5,5 0 0,1 5,0Z" style="opacity: 0.5; stroke-width: 0px; fill: rgb(236, 176, 31); fill-opacity: 1;"/><path class="point" transform="translate(460.98,379.73)" d="M5,0A5,5 0 1,1 0,-5A5,5 0 0,1 5,0Z" style="opacity: 0.5; stroke-width: 0px; fill: rgb(236, 176, 31); fill-opacity: 1;"/><path class="point" transform="translate(479.99,346.66)" d="M5,0A5,5 0 1,1 0,-5A5,5 0 0,1 5,0Z" style="opacity: 0.5; stroke-width: 0px; fill: rgb(236, 176, 31); fill-opacity: 1;"/><path class="point" transform="translate(499,309.04)" d="M5,0A5,5 0 1,1 0,-5A5,5 0 0,1 5,0Z" style="opacity: 0.5; stroke-width: 0px; fill: rgb(236, 176, 31); fill-opacity: 1;"/><path class="point" transform="translate(518.01,287.95)" d="M5,0A5,5 0 1,1 0,-5A5,5 0 0,1 5,0Z" style="opacity: 0.5; stroke-width: 0px; fill: rgb(236, 176, 31); fill-opacity: 1;"/><path class="point" transform="translate(537.02,303.75)" d="M5,0A5,5 0 1,1 0,-5A5,5 0 0,1 5,0Z" style="opacity: 0.5; stroke-width: 0px; fill: rgb(236, 176, 31); fill-opacity: 1;"/><path class="point" transform="translate(556.03,294.08)" d="M5,0A5,5 0 1,1 0,-5A5,5 0 0,1 5,0Z" style="opacity: 0.5; stroke-width: 0px; fill: rgb(236, 176, 31); fill-opacity: 1;"/><path class="point" transform="translate(575.04,270.4)" d="M5,0A5,5 0 1,1 0,-5A5,5 0 0,1 5,0Z" style="opacity: 0.5; stroke-width: 0px; fill: rgb(236, 176, 31); fill-opacity: 1;"/><path class="point" transform="translate(594.05,233.45)" d="M5,0A5,5 0 1,1 0,-5A5,5 0 0,1 5,0Z" style="opacity: 0.5; stroke-width: 0px; fill: rgb(236, 176, 31); fill-opacity: 1;"/><path class="point" transform="translate(613.06,235.11)" d="M5,0A5,5 0 1,1 0,-5A5,5 0 0,1 5,0Z" style="opacity: 0.5; stroke-width: 0px; fill: rgb(236, 176, 31); fill-opacity: 1;"/><path class="point" transform="translate(632.07,285.83)" d="M5,0A5,5 0 1,1 0,-5A5,5 0 0,1 5,0Z" style="opacity: 0.5; stroke-width: 0px; fill: rgb(236, 176, 31); fill-opacity: 1;"/><path class="point" transform="translate(651.08,216.44)" d="M5,0A5,5 0 1,1 0,-5A5,5 0 0,1 5,0Z" style="opacity: 0.5; stroke-width: 0px; fill: rgb(236, 176, 31); fill-opacity: 1;"/><path class="point" transform="translate(670.09,266.45)" d="M5,0A5,5 0 1,1 0,-5A5,5 0 0,1 5,0Z" style="opacity: 0.5; stroke-width: 0px; fill: rgb(236, 176, 31); fill-opacity: 1;"/><path class="point" transform="translate(689.1,168.15)" d="M5,0A5,5 0 1,1 0,-5A5,5 0 0,1 5,0Z" style="opacity: 0.5; stroke-width: 0px; fill: rgb(236, 176, 31); fill-opacity: 1;"/><path class="point" transform="translate(708.1,216.32)" d="M5,0A5,5 0 1,1 0,-5A5,5 0 0,1 5,0Z" style="opacity: 0.5; stroke-width: 0px; fill: rgb(236, 176, 31); fill-opacity: 1;"/><path class="point" transform="translate(727.11,189.43)" d="M5,0A5,5 0 1,1 0,-5A5,5 0 0,1 5,0Z" style="opacity: 0.5; stroke-width: 0px; fill: rgb(236, 176, 31); fill-opacity: 1;"/><path class="point" transform="translate(746.12,203.26)" d="M5,0A5,5 0 1,1 0,-5A5,5 0 0,1 5,0Z" style="opacity: 0.5; stroke-width: 0px; fill: rgb(236, 176, 31); fill-opacity: 1;"/><path class="point" transform="translate(765.13,218.6)" d="M5,0A5,5 0 1,1 0,-5A5,5 0 0,1 5,0Z" style="opacity: 0.5; stroke-width: 0px; fill: rgb(236, 176, 31); fill-opacity: 1;"/><path class="point" transform="translate(784.14,191.59)" d="M5,0A5,5 0 1,1 0,-5A5,5 0 0,1 5,0Z" style="opacity: 0.5; stroke-width: 0px; fill: rgb(236, 176, 31); fill-opacity: 1;"/><path class="point" transform="translate(803.15,240.4)" d="M5,0A5,5 0 1,1 0,-5A5,5 0 0,1 5,0Z" style="opacity: 0.5; stroke-width: 0px; fill: rgb(236, 176, 31); fill-opacity: 1;"/><path class="point" transform="translate(822.16,133.93)" d="M5,0A5,5 0 1,1 0,-5A5,5 0 0,1 5,0Z" style="opacity: 0.5; stroke-width: 0px; fill: rgb(236, 176, 31); fill-opacity: 1;"/><path class="point" transform="translate(841.17,137.92)" d="M5,0A5,5 0 1,1 0,-5A5,5 0 0,1 5,0Z" style="opacity: 0.5; stroke-width: 0px; fill: rgb(236, 176, 31); fill-opacity: 1;"/><path class="point" transform="translate(860.18,144.51)" d="M5,0A5,5 0 1,1 0,-5A5,5 0 0,1 5,0Z" style="opacity: 0.5; stroke-width: 0px; fill: rgb(236, 176, 31); fill-opacity: 1;"/><path class="point" transform="translate(879.19,162.19)" d="M5,0A5,5 0 1,1 0,-5A5,5 0 0,1 5,0Z" style="opacity: 0.5; stroke-width: 0px; fill: rgb(236, 176, 31); fill-opacity: 1;"/><path class="point" transform="translate(898.2,176.66)" d="M5,0A5,5 0 1,1 0,-5A5,5 0 0,1 5,0Z" style="opacity: 0.5; stroke-width: 0px; fill: rgb(236, 176, 31); fill-opacity: 1;"/><path class="point" transform="translate(917.21,130.63)" d="M5,0A5,5 0 1,1 0,-5A5,5 0 0,1 5,0Z" style="opacity: 0.5; stroke-width: 0px; fill: rgb(236, 176, 31); fill-opacity: 1;"/><path class="point" transform="translate(936.22,140.82)" d="M5,0A5,5 0 1,1 0,-5A5,5 0 0,1 5,0Z" style="opacity: 0.5; stroke-width: 0px; fill: rgb(236, 176, 31); fill-opacity: 1;"/><path class="point" transform="translate(955.23,99.73)" d="M5,0A5,5 0 1,1 0,-5A5,5 0 0,1 5,0Z" style="opacity: 0.5; stroke-width: 0px; fill: rgb(236, 176, 31); fill-opacity: 1;"/><path class="point" transform="translate(974.24,134.65)" d="M5,0A5,5 0 1,1 0,-5A5,5 0 0,1 5,0Z" style="opacity: 0.5; stroke-width: 0px; fill: rgb(236, 176, 31); fill-opacity: 1;"/></g><g class="text"/></g></g></g><g class="overplot"/><path class="xlines-above crisp" d="M0,0" style="fill: none;"/><path class="ylines-above crisp" d="M0,0" style="fill: none;"/><g class="overlines-above"/><g class="xaxislayer-above"><g class="xtick"><text text-anchor="middle" x="0" y="845" transform="translate(158.76,0)" style="font-family: 'Open Sans', verdana, arial, sans-serif; font-size: 24px; fill: rgb(42, 63, 95); fill-opacity: 1; white-space: pre;">0</text></g><g class="xtick"><text text-anchor="middle" x="0" y="845" transform="translate(348.86,0)" style="font-family: 'Open Sans', verdana, arial, sans-serif; font-size: 24px; fill: rgb(42, 63, 95); fill-opacity: 1; white-space: pre;">2</text></g><g class="xtick"><text text-anchor="middle" x="0" y="845" transform="translate(538.95,0)" style="font-family: 'Open Sans', verdana, arial, sans-serif; font-size: 24px; fill: rgb(42, 63, 95); fill-opacity: 1; white-space: pre;">4</text></g><g class="xtick"><text text-anchor="middle" x="0" y="845" transform="translate(729.05,0)" style="font-family: 'Open Sans', verdana, arial, sans-serif; font-size: 24px; fill: rgb(42, 63, 95); fill-opacity: 1; white-space: pre;">6</text></g><g class="xtick"><text text-anchor="middle" x="0" y="845" transform="translate(919.14,0)" style="font-family: 'Open Sans', verdana, arial, sans-serif; font-size: 24px; fill: rgb(42, 63, 95); fill-opacity: 1; white-space: pre;">8</text></g><g class="xtick"><text text-anchor="middle" x="0" y="845" transform="translate(1109.24,0)" style="font-family: 'Open Sans', verdana, arial, sans-serif; font-size: 24px; fill: rgb(42, 63, 95); fill-opacity: 1; white-space: pre;">10</text></g></g><g class="yaxislayer-above"><g class="ytick"><text text-anchor="end" x="134" y="8.399999999999999" transform="translate(0,777.75)" style="font-family: 'Open Sans', verdana, arial, sans-serif; font-size: 24px; fill: rgb(42, 63, 95); fill-opacity: 1; white-space: pre;">0</text></g><g class="ytick"><text text-anchor="end" x="134" y="8.399999999999999" transform="translate(0,649.4)" style="font-family: 'Open Sans', verdana, arial, sans-serif; font-size: 24px; fill: rgb(42, 63, 95); fill-opacity: 1; white-space: pre;">0.0002</text></g><g class="ytick"><text text-anchor="end" x="134" y="8.399999999999999" transform="translate(0,521.05)" style="font-family: 'Open Sans', verdana, arial, sans-serif; font-size: 24px; fill: rgb(42, 63, 95); fill-opacity: 1; white-space: pre;">0.0004</text></g><g class="ytick"><text text-anchor="end" x="134" y="8.399999999999999" transform="translate(0,392.7)" style="font-family: 'Open Sans', verdana, arial, sans-serif; font-size: 24px; fill: rgb(42, 63, 95); fill-opacity: 1; white-space: pre;">0.0006</text></g><g class="ytick"><text text-anchor="end" x="134" y="8.399999999999999" transform="translate(0,264.35)" style="font-family: 'Open Sans', verdana, arial, sans-serif; font-size: 24px; fill: rgb(42, 63, 95); fill-opacity: 1; white-space: pre;">0.0008</text></g><g class="ytick"><text text-anchor="end" x="134" y="8.399999999999999" transform="translate(0,136)" style="font-family: 'Open Sans', verdana, arial, sans-serif; font-size: 24px; fill: rgb(42, 63, 95); fill-opacity: 1; white-space: pre;">0.001</text></g></g><g class="overaxes-above"/></g></g><g class="polarlayer"/><g class="ternarylayer"/><g class="geolayer"/><g class="funnelarealayer"/><g class="pielayer"/><g class="treemaplayer"/><g class="sunburstlayer"/><g class="glimages"/><defs id="topdefs-6bef84"><g class="clips"/><clipPath id="legend6bef84"><rect width="235" height="278" x="0" y="0"/></clipPath></defs><g class="layer-above"><g class="imagelayer"/><g class="shapelayer"/></g><g class="infolayer"><g class="legend" pointer-events="all" transform="translate(1152.96,100)"><rect class="bg" shape-rendering="crispEdges" width="235" height="278" x="0" y="0" style="stroke: rgb(68, 68, 68); stroke-opacity: 1; fill: rgb(255, 255, 255); fill-opacity: 1; stroke-width: 0px;"/><g class="scrollbox" transform="" clip-path="url('#legend6bef84')"><g class="groups"><g class="traces" transform="translate(0,27.3)" style="opacity: 1;"><text class="legendtext" text-anchor="start" x="40" y="12.48" style="font-family: 'Open Sans', verdana, arial, sans-serif; font-size: 32px; fill: rgb(42, 63, 95); fill-opacity: 1; white-space: pre;">A</text><g class="layers" style="opacity: 1;"><g class="legendfill"/><g class="legendlines"><path class="js-line" d="M5,0h30" style="fill: none; stroke: rgb(0, 113, 188); stroke-opacity: 1; stroke-width: 4px;"/></g><g class="legendsymbols"><g class="legendpoints"/></g></g><rect class="legendtoggle" x="0" y="-22.3" width="229.265625" height="44.6" style="fill: rgb(0, 0, 0); fill-opacity: 0;"/></g><g class="traces" transform="translate(0,71.9)" style="opacity: 1;"><text class="legendtext" text-anchor="start" x="40" y="12.48" style="font-family: 'Open Sans', verdana, arial, sans-serif; font-size: 32px; fill: rgb(42, 63, 95); fill-opacity: 1; white-space: pre;">A (spectral)</text><g class="layers" style="opacity: 1;"><g class="legendfill"/><g class="legendlines"/><g class="legendsymbols"><g class="legendpoints"><path class="scatterpts" transform="translate(20,0)" d="M5,0A5,5 0 1,1 0,-5A5,5 0 0,1 5,0Z" style="opacity: 0.5; stroke-width: 0px; fill: rgb(0, 113, 188); fill-opacity: 1;"/></g></g></g><rect class="legendtoggle" x="0" y="-22.3" width="229.265625" height="44.6" style="fill: rgb(0, 0, 0); fill-opacity: 0;"/></g><g class="traces" transform="translate(0,116.5)" style="opacity: 1;"><text class="legendtext" text-anchor="start" x="40" y="12.48" style="font-family: 'Open Sans', verdana, arial, sans-serif; font-size: 32px; fill: rgb(42, 63, 95); fill-opacity: 1; white-space: pre;">B</text><g class="layers" style="opacity: 1;"><g class="legendfill"/><g class="legendlines"><path class="js-line" d="M5,0h30" style="fill: none; stroke: rgb(216, 82, 24); stroke-opacity: 1; stroke-width: 4px;"/></g><g class="legendsymbols"><g class="legendpoints"/></g></g><rect class="legendtoggle" x="0" y="-22.3" width="229.265625" height="44.6" style="fill: rgb(0, 0, 0); fill-opacity: 0;"/></g><g class="traces" transform="translate(0,161.10000000000002)" style="opacity: 1;"><text class="legendtext" text-anchor="start" x="40" y="12.48" style="font-family: 'Open Sans', verdana, arial, sans-serif; font-size: 32px; fill: rgb(42, 63, 95); fill-opacity: 1; white-space: pre;">B (spectral)</text><g class="layers" style="opacity: 1;"><g class="legendfill"/><g class="legendlines"/><g class="legendsymbols"><g class="legendpoints"><path class="scatterpts" transform="translate(20,0)" d="M5,0A5,5 0 1,1 0,-5A5,5 0 0,1 5,0Z" style="opacity: 0.5; stroke-width: 0px; fill: rgb(216, 82, 24); fill-opacity: 1;"/></g></g></g><rect class="legendtoggle" x="0" y="-22.3" width="229.265625" height="44.6" style="fill: rgb(0, 0, 0); fill-opacity: 0;"/></g><g class="traces" transform="translate(0,205.70000000000002)" style="opacity: 1;"><text class="legendtext" text-anchor="start" x="40" y="12.48" style="font-family: 'Open Sans', verdana, arial, sans-serif; font-size: 32px; fill: rgb(42, 63, 95); fill-opacity: 1; white-space: pre;">C</text><g class="layers" style="opacity: 1;"><g class="legendfill"/><g class="legendlines"><path class="js-line" d="M5,0h30" style="fill: none; stroke: rgb(236, 176, 31); stroke-opacity: 1; stroke-width: 4px;"/></g><g class="legendsymbols"><g class="legendpoints"/></g></g><rect class="legendtoggle" x="0" y="-22.3" width="229.265625" height="44.6" style="fill: rgb(0, 0, 0); fill-opacity: 0;"/></g><g class="traces" transform="translate(0,250.3)" style="opacity: 1;"><text class="legendtext" text-anchor="start" x="40" y="12.48" style="font-family: 'Open Sans', verdana, arial, sans-serif; font-size: 32px; fill: rgb(42, 63, 95); fill-opacity: 1; white-space: pre;">C (spectral)</text><g class="layers" style="opacity: 1;"><g class="legendfill"/><g class="legendlines"/><g class="legendsymbols"><g class="legendpoints"><path class="scatterpts" transform="translate(20,0)" d="M5,0A5,5 0 1,1 0,-5A5,5 0 0,1 5,0Z" style="opacity: 0.5; stroke-width: 0px; fill: rgb(236, 176, 31); fill-opacity: 1;"/></g></g></g><rect class="legendtoggle" x="0" y="-22.3" width="229.265625" height="44.6" style="fill: rgb(0, 0, 0); fill-opacity: 0;"/></g></g></g><rect class="scrollbar" rx="20" ry="3" width="0" height="0" x="0" y="0" style="fill: rgb(128, 139, 164); fill-opacity: 1;"/></g><g class="g-gtitle"><text class="gtitle" x="70" y="50" text-anchor="start" dy="0em" style="font-family: 'Open Sans', verdana, arial, sans-serif; font-size: 32px; fill: rgb(42, 63, 95); opacity: 1; font-weight: normal; white-space: pre;">Model: reaction-1 | Concentration Profiles</text></g><g class="g-xtitle"><text class="xtitle" x="634" y="887.4" text-anchor="middle" style="font-family: 'Open Sans', verdana, arial, sans-serif; font-size: 32px; fill: rgb(42, 63, 95); opacity: 1; font-weight: normal; white-space: pre;">Time [hr]</text></g><g class="g-ytitle" transform="translate(20.431640625,0)"><text class="ytitle" transform="rotate(-90,11.568749999999994,460)" x="11.568749999999994" y="460" text-anchor="middle" style="font-family: 'Open Sans', verdana, arial, sans-serif; font-size: 32px; fill: rgb(42, 63, 95); opacity: 1; font-weight: normal; white-space: pre;">Concentration [dimensionless]</text></g></g></svg>