<svg class="main-svg" xmlns="http://www.w3.org/2000/svg" xmlns:xlink="http://www.w3.org/1999/xlink" width="1400" height="900" style="" viewBox="0 0 1400 900"><rect x="0" y="0" width="1400" height="900" style="fill: rgb(255, 255, 255); fill-opacity: 1;"/><defs id="defs-d5200e"><g class="clips"><clipPath id="clipd5200exyplot" class="plotclip"><rect width="1191" height="720"/></clipPath><clipPath class="axesclip" id="clipd5200ex"><rect x="105" y="0" width="1191" height="900"/></clipPath><clipPath class="axesclip" id="clipd5200ey"><rect x="0" y="100" width="1400" height="720"/></clipPath><clipPath class="axesclip" id="clipd5200exy"><rect x="105" y="100" width="1191" height="720"/></clipPath></g><g class="gradients"/></defs><g class="bglayer"><rect class="bg" x="105" y="100" width="1191" height="720" style="fill: rgb(229, 236, 246); fill-opacity: 1; stroke-width: 0;"/></g><g class="layer-below"><g class="imagelayer"/><g class="shapelayer"/></g><g class="cartesianlayer"><g class="subplot xy"><g class="layer-subplot"><g class="shapelayer"/><g class="imagelayer"/></g><g class="gridlayer"><g class="x"><path class="xgrid crisp" transform="translate(121.9,0)" d="M0,100v720" style="stroke: rgb(255, 255, 255); stroke-opacity: 1; stroke-width: 1px;"/><path class="xgrid crisp" transform="translate(351.05,0)" d="M0,100v720" style="stroke: rgb(255, 255, 255); stroke-opacity: 1; stroke-width: 1px;"/><path class="xgrid crisp" transform="translate(580.2,0)" d="M0,100v720" style="stroke: rgb(255, 255, 255); stroke-opacity: 1; stroke-width: 1px;"/><path class="xgrid crisp" transform="translate(809.35,0)" d="M0,100v720" style="stroke: rgb(255, 255, 255); stroke-opacity: 1; stroke-width: 1px;"/><path class="xgrid crisp" transform="translate(1038.49,0)" d="M0,100v720" style="stroke: rgb(255, 255, 255); stroke-opacity: 1; stroke-width: 1px;"/><path class="xgrid crisp" transform="translate(1267.64,0)" d="M0,100v720" style="stroke: rgb(255, 255, 255); stroke-opacity: 1; stroke-width: 1px;"/></g><g class="y"><path class="ygrid crisp" transform="translate(0,625.28)" d="M105,0h1191" style="stroke: rgb(255, 255, 255); stroke-opacity: 1; stroke-width: 1px;"/><path class="ygrid crisp" transform="translate(0,466.56)" d="M105,0h1191" style="stroke: rgb(255, 255, 255); stroke-opacity: 1; stroke-width: 1px;"/><path class="ygrid crisp" transform="translate(0,307.84000000000003)" d="M105,0h1191" style="stroke: rgb(255, 255, 255); stroke-opacity: 1; stroke-width: 1px;"/><path class="ygrid crisp" transform="translate(0,149.11)" d="M105,0h1191" style="stroke: rgb(255, 255, 255); stroke-opacity: 1; stroke-width: 1px;"/></g></g><g class="zerolinelayer"><path class="yzl zl crisp" transform="translate(0,784)" d="M105,0h1191" style="stroke: rgb(78, 78, 78); stroke-opacity: 1; stroke-width: 2px;"/></g><path class="xlines-below"/><path class="ylines-below"/><g class="overlines-below"/><g class="xaxislayer-below"/><g class="yaxislayer-below"/><g class="overaxes-below"/><g class="plot" transform="translate(105,100)" clip-path="url('#clipd5200exyplot')"><g class="scatterlayer mlayer"><g class="trace scatter trace1d3850" style="stroke-miterlimit: 2; opacity: 1;"><g class="fills"/><g class="errorbars"/><g class="lines"><path class="js-line" d="M28.36,442.95L39.81,443.48L51.27,438.67L62.73,434.93L74.19,421.18L85.64,410.2L97.1,419.29L108.56,417.71L120.02,417.71L131.47,419.58L142.93,422.96L154.39,425.04L165.85,435.18L177.3,442.73L188.76,442.02L211.68,433.71L223.13,435.14L234.59,438.15L246.05,436.05L257.51,433.98L268.96,438.82L280.42,446.53L291.88,450.9L314.79,459.41L326.25,461.28L337.71,461.64L349.17,467.55L360.62,468.67L372.08,474.49L383.54,478.5L394.99,477.15L406.45,479.92L417.91,477.65L429.37,470.05L440.82,456.78L452.28,447.5L463.74,440.7L475.2,432.34L486.65,430.23L498.11,437.13L509.57,445.31L532.48,450.97L543.94,447.73L555.4,443.83L566.86,435.7L578.31,423.15L589.77,407.45L601.23,381.23L612.69,380.63L635.6,363.9L647.06,367.66L658.52,378.48L669.97,369.41L681.43,359.96L692.89,346.49L704.35,339.09L715.8,328.84L727.26,313.73L738.72,304.3L750.18,299.76L761.63,292.13L773.09,288.13L784.55,278.86L796.01,282.86L807.46,292.15L818.92,297.55L830.38,299.25L841.83,303.37L853.29,313.96L864.75,324.05L876.21,331L887.66,337.27L899.12,340.5L910.58,339.48L922.04,332.23L933.49,320.18L944.95,300.2L956.41,284.87L967.87,281.96L979.32,288.37L990.78,298.92L1002.24,300.73L1013.7,282.14L1025.15,260.62L1036.61,248.75L1048.07,241.53L1059.53,253.39L1070.98,268.21L1082.44,281.34L1093.9,286.83L1105.36,297.31L1128.27,272.1L1139.73,270.55L1151.19,277.99L1162.64,278.53" style="vector-effect: non-scaling-stroke; fill: none; stroke: rgb(0, 113, 188); stroke-opacity: 1; stroke-width: 4px; opacity: 1;"/></g><g class="points"/><g class="text"/></g><g class="trace scatter trace4f0060" style="stroke-miterlimit: 2; opacity: 1;"><g class="fills"/><g class="errorbars"/><g class="lines"><path class="js-line" d="M28.36,383.54L39.81,411.26L51.27,469.04L62.73,515.35L74.19,604.65L85.64,668.53L97.1,663.65L108.56,684L120.02,684L142.93,684L154.39,660.15L165.85,596.99L177.3,557.14L188.76,545.79L200.22,561.79L211.68,569.34L223.13,553.36L234.59,530.33L246.05,525.64L257.51,526.34L268.96,493.85L280.42,468.9L291.88,447.92L303.34,447.81L314.79,423.28L326.25,416.07L337.71,416.96L349.17,408.5L360.62,421.14L372.08,410.42L383.54,395.12L394.99,385.93L406.45,354.52L417.91,301.61L429.37,239.49L452.28,72.33L463.74,36L475.2,38.63L486.65,59.95L498.11,48.63L509.57,51.34L521.03,79.56L532.48,114.45L543.94,161.86L555.4,215.72L578.31,325.2L589.77,389.73L601.23,480.14L612.69,436.11L624.14,404.27L635.6,361.29L647.06,276.87L658.52,169.82L669.97,147.7L681.43,123.37L692.89,135.65L704.35,137.7L715.8,172.25L727.26,221.09L738.72,255.08L750.18,308.12L761.63,374.55L773.09,423.16L784.55,490.26L796.01,509.28L807.46,494.42L818.92,498.01L830.38,509.34L841.83,524.37L853.29,494.44L864.75,483.41L876.21,468.18L887.66,460.77L899.12,449.86L910.58,452.2L922.04,461.46L933.49,453.86L944.95,462.8L956.41,405.75L967.87,336.45L979.32,290.66L990.78,270.18L1002.24,278.96L1013.7,331.03L1025.15,377.04L1036.61,379.73L1048.07,379.26L1059.53,282.5L1070.98,213.21L1082.44,165.5L1093.9,143.73L1105.36,110.74L1116.81,165.41L1128.27,222.54L1139.73,250.92L1151.19,218.14L1162.64,234.04" style="vector-effect: non-scaling-stroke; fill: none; stroke: rgb(216, 82, 24); stroke-opacity: 1; stroke-width: 4px; opacity: 1;"/></g><g class="points"/><g class="text"/></g><g class="trace scatter trace3fdae5" style="stroke-miterlimit: 2; opacity: 1;"><g class="fills"/><g class="errorbars"/><g class="lines"><path class="js-line" d="M28.36,402.6L39.81,406.3L51.27,411.18L62.73,414.95L74.19,419.79L97.1,429.42L108.56,435.56L120.02,438.7L131.47,443.04L142.93,443.42L154.39,439.78L165.85,442.38L177.3,447.26L188.76,447.89L200.22,445.17L234.59,441.17L246.05,438.69L257.51,439.33L268.96,445.34L280.42,450.02L291.88,452.35L303.34,454.74L314.79,459.27L326.25,462.19L337.71,464.05L349.17,466.99L360.62,473.48L372.08,479.23L383.54,482.35L394.99,484.68L406.45,485.1L417.91,481.25L429.37,471.46L440.82,456.85L452.28,436.63L475.2,374.87L486.65,364.65L498.11,380.49L509.57,399.25L521.03,409.24L532.48,411.88L543.94,410.93L555.4,408.12L566.86,407.01L578.31,407.03L589.77,405.65L601.23,401.39L612.69,397.49L624.14,390.65L635.6,379.33L647.06,366.41L658.52,349.39L669.97,330.15L681.43,312.6L692.89,298.38L704.35,288.22L715.8,287.13L761.63,295.91L773.09,299.76L830.38,324.12L841.83,333.23L864.75,351.16L876.21,359.18L899.12,370.97L910.58,370.74L922.04,368.99L933.49,349.9L944.95,323.93L956.41,317.79L967.87,307.95L979.32,300.58L990.78,301.28L1002.24,300.65L1013.7,297.14L1025.15,282.67L1036.61,269.59L1048.07,267.19L1059.53,270.39L1070.98,267.4L1082.44,261.79L1093.9,257.88L1105.36,259.44L1116.81,258.98L1139.73,271.91L1151.19,273.53L1162.64,270.65" style="vector-effect: non-scaling-stroke; fill: none; stroke: rgb(236, 176, 31); stroke-opacity: 1; stroke-width: 4px; opacity: 1;"/></g><g class="points"/><g class="text"/></g></g></g><g class="overplot"/><path class="xlines-above crisp" d="M0,0" style="fill: none;"/><path class="ylines-above crisp" d="M0,0" style="fill: none;"/><g class="overlines-above"/><g class="xaxislayer-above"><g class="xtick"><text text-anchor="middle" x="0" y="845" transform="translate(121.9,0)" style="font-family: 'Open Sans', verdana, arial, sans-serif; font-size: 24px; fill: rgb(42, 63, 95); fill-opacity: 1; white-space: pre;">1600</text></g><g class="xtick"><text text-anchor="middle" x="0" y="845" transform="translate(351.05,0)" style="font-family: 'Open Sans', verdana, arial, sans-serif; font-size: 24px; fill: rgb(42, 63, 95); fill-opacity: 1; white-space: pre;">1800</text></g><g class="xtick"><text text-anchor="middle" x="0" y="845" transform="translate(580.2,0)" style="font-family: 'Open Sans', verdana, arial, sans-serif; font-size: 24px; fill: rgb(42, 63, 95); fill-opacity: 1; white-space: pre;">2000</text></g><g class="xtick"><text text-anchor="middle" x="0" y="845" transform="translate(809.35,0)" style="font-family: 'Open Sans', verdana, arial, sans-serif; font-size: 24px; fill: rgb(42, 63, 95); fill-opacity: 1; white-space: pre;">2200</text></g><g class="xtick"><text text-anchor="middle" x="0" y="845" transform="translate(1038.49,0)" style="font-family: 'Open Sans', verdana, arial, sans-serif; font-size: 24px; fill: rgb(42, 63, 95); fill-opacity: 1; white-space: pre;">2400</text></g><g class="xtick"><text text-anchor="middle" x="0" y="845" transform="translate(1267.64,0)" style="font-family: 'Open Sans', verdana, arial, sans-serif; font-size: 24px; fill: rgb(42, 63, 95); fill-opacity: 1; white-space: pre;">2600</text></g></g><g class="yaxislayer-above"><g class="ytick"><text text-anchor="end" x="104" y="8.399999999999999" transform="translate(0,784)" style="font-family: 'Open Sans', verdana, arial, sans-serif; font-size: 24px; fill: rgb(42, 63, 95); fill-opacity: 1; white-space: pre;">0</text></g><g class="ytick"><text text-anchor="end" x="104" y="8.399999999999999" transform="translate(0,625.28)" style="font-family: 'Open Sans', verdana, arial, sans-serif; font-size: 24px; fill: rgb(42, 63, 95); fill-opacity: 1; white-space: pre;">0.05</text></g><g class="ytick"><text text-anchor="end" x="104" y="8.399999999999999" transform="translate(0,466.56)" style="font-family: 'Open Sans', verdana, arial, sans-serif; font-size: 24px; fill: rgb(42, 63, 95); fill-opacity: 1; white-space: pre;">0.1</text></g><g class="ytick"><text text-anchor="end" x="104" y="8.399999999999999" transform="translate(0,307.84000000000003)" style="font-family: 'Open Sans', verdana, arial, sans-serif; font-size: 24px; fill: rgb(42, 63, 95); fill-opacity: 1; white-space: pre;">0.15</text></g><g class="ytick"><text text-anchor="end" x="104" y="8.399999999999999" transform="translate(0,149.11)" style="font-family: 'Open Sans', verdana, arial, sans-serif; font-size: 24px; fill: rgb(42, 63, 95); fill-opacity: 1; white-space: pre;">0.2</text></g></g><g class="overaxes-above"/></g></g><g class="polarlayer"/><g class="ternarylayer"/><g class="geolayer"/><g class="funnelarealayer"/><g class="pielayer"/><g class="treemaplayer"/><g class="sunburstlayer"/><g class="glimages"/><defs id="topdefs-d5200e"><g class="clips"/><clipPath id="legendd5200e"><rect width="68" height="144" x="0" y="0"/></clipPath></defs><g class="layer-above"><g class="imagelayer"/><g class="shapelayer"/></g><g class="infolayer"><g class="legend" pointer-events="all" transform="translate(1319.82,100)"><rect class="bg" shape-rendering="crispEdges" width="68" height="144" x="0" y="0" style="stroke: rgb(68, 68, 68); stroke-opacity: 1; fill: rgb(255, 255, 255); fill-opacity: 1; stroke-width: 0px;"/><g class="scrollbox" transform="" clip-path="url('#legendd5200e')"><g class="groups"><g class="traces" transform="translate(0,27.3)" style="opacity: 1;"><text class="legendtext" text-anchor="start" x="40" y="12.48" style="font-family: 'Open Sans', verdana, arial, sans-serif; font-size: 32px; fill: rgb(42, 63, 95); fill-opacity: 1; white-space: pre;">A</text><g class="layers" style="opacity: 1;"><g class="legendfill"/><g class="legendlines"><path class="js-line" d="M5,0h30" style="fill: none; stroke: rgb(0, 113, 188); stroke-opacity: 1; stroke-width: 4px;"/></g><g class="legendsymbols"><g class="legendpoints"/></g></g><rect class="legendtoggle" x="0" y="-22.3" width="62.34375" height="44.6" style="fill: rgb(0, 0, 0); fill-opacity: 0;"/></g><g class="traces" transform="translate(0,71.9)" style="opacity: 1;"><text class="legendtext" text-anchor="start" x="40" y="12.48" style="font-family: 'Open Sans', verdana, arial, sans-serif; font-size: 32px; fill: rgb(42, 63, 95); fill-opacity: 1; white-space: pre;">B</text><g class="layers" style="opacity: 1;"><g class="legendfill"/><g class="legendlines"><path class="js-line" d="M5,0h30" style="fill: none; stroke: rgb(216, 82, 24); stroke-opacity: 1; stroke-width: 4px;"/></g><g class="legendsymbols"><g class="legendpoints"/></g></g><rect class="legendtoggle" x="0" y="-22.3" width="62.34375" height="44.6" style="fill: rgb(0, 0, 0); fill-opacity: 0;"/></g><g class="traces" transform="translate(0,116.5)" style="opacity: 1;"><text class="legendtext" text-anchor="start" x="40" y="12.48" style="font-family: 'Open Sans', verdana, arial, sans-serif; font-size: 32px; fill: rgb(42, 63, 95); fill-opacity: 1; white-space: pre;">C</text><g class="layers" style="opacity: 1;"><g class="legendfill"/><g class="legendlines"><path class="js-line" d="M5,0h30" style="fill: none; stroke: rgb(236, 176, 31); stroke-opacity: 1; stroke-width: 4px;"/></g><g class="legendsymbols"><g class="legendpoints"/></g></g><rect class="legendtoggle" x="0" y="-22.3" width="62.34375" height="44.6" style="fill: rgb(0, 0, 0); fill-opacity: 0;"/></g></g></g><rect class="scrollbar" rx="20" ry="3" width="0" height="0" x="0" y="0" style="fill: rgb(128, 139, 164); fill-opacity: 1;"/></g><g class="g-gtitle"><text class="gtitle" x="70" y="50" text-anchor="start" dy="0em" style="font-family: 'Open Sans', verdana, arial, sans-serif; font-size: 32px; fill: rgb(42, 63, 95); opacity: 1; font-weight: normal; white-space: pre;">Model: reaction-1 | Description: Single species absorbance profiles</text></g><g class="g-xtitle"><text class="xtitle" x="700.5" y="887.4" text-anchor="middle" style="font-family: 'Open Sans', verdana, arial, sans-serif; font-size: 32px; fill: rgb(42, 63, 95); opacity: 1; font-weight: normal; white-space: pre;">Wavelength [centimeter]</text></g><g class="g-ytitle" transform="translate(19.916015625,0)"><text class="ytitle" transform="rotate(-90,12.084374999999994,460)" x="12.084374999999994" y="460" text-anchor="middle" style="font-family: 'Open Sans', verdana, arial, sans-serif; font-size: 32px; fill: rgb(42, 63, 95); opacity: 1; font-weight: normal; white-space: pre;">Absorbance [liter / mol / centimeter]</text></g></g></svg>