<svg class="main-svg" xmlns="http://www.w3.org/2000/svg" xmlns:xlink="http://www.w3.org/1999/xlink" width="1400" height="900" style="" viewBox="0 0 1400 900"><rect x="0" y="0" width="1400" height="900" style="fill: rgb(255, 255, 255); fill-opacity: 1;"/><defs id="defs-45ddf6"><g class="clips"><clipPath id="clip45ddf6xyplot" class="plotclip"><rect width="1102" height="720"/></clipPath><clipPath class="axesclip" id="clip45ddf6x"><rect x="90" y="0" width="1102" height="900"/></clipPath><clipPath class="axesclip" id="clip45ddf6y"><rect x="0" y="100" width="1400" height="720"/></clipPath><clipPath class="axesclip" id="clip45ddf6xy"><rect x="90" y="100" width="1102" height="720"/></clipPath></g><g class="gradients"/></defs><g class="bglayer"><rect class="bg" x="90" y="100" width="1102" height="720" style="fill: rgb(229, 236, 246); fill-opacity: 1; stroke-width: 0;"/></g><g class="layer-below"><g class="imagelayer"/><g class="shapelayer"/></g><g class="cartesianlayer"><g class="subplot xy"><g class="layer-subplot"><g class="shapelayer"/><g class="imagelayer"/></g><g class="gridlayer"><g class="x"><path class="xgrid crisp" transform="translate(326.14,0)" d="M0,100v720" style="stroke: rgb(255, 255, 255); stroke-opacity: 1; stroke-width: 1px;"/><path class="xgrid crisp" transform="translate(536.05,0)" d="M0,100v720" style="stroke: rgb(255, 255, 255); stroke-opacity: 1; stroke-width: 1px;"/><path class="xgrid crisp" transform="translate(745.95,0)" d="M0,100v720" style="stroke: rgb(255, 255, 255); stroke-opacity: 1; stroke-width: 1px;"/><path class="xgrid crisp" transform="translate(955.86,0)" d="M0,100v720" style="stroke: rgb(255, 255, 255); stroke-opacity: 1; stroke-width: 1px;"/><path class="xgrid crisp" transform="translate(1165.76,0)" d="M0,100v720" style="stroke: rgb(255, 255, 255); stroke-opacity: 1; stroke-width: 1px;"/></g><g class="y"><path class="ygrid crisp" transform="translate(0,654.14)" d="M90,0h1102" style="stroke: rgb(255, 255, 255); stroke-opacity: 1; stroke-width: 1px;"/><path class="ygrid crisp" transform="translate(0,524.6)" d="M90,0h1102" style="stroke: rgb(255, 255, 255); stroke-opacity: 1; stroke-width: 1px;"/><path class="ygrid crisp" transform="translate(0,395.07)" d="M90,0h1102" style="stroke: rgb(255, 255, 255); stroke-opacity: 1; stroke-width: 1px;"/><path class="ygrid crisp" transform="translate(0,265.53)" d="M90,0h1102" style="stroke: rgb(255, 255, 255); stroke-opacity: 1; stroke-width: 1px;"/><path class="ygrid crisp" transform="translate(0,136)" d="M90,0h1102" style="stroke: rgb(255, 255, 255); stroke-opacity: 1; stroke-width: 1px;"/></g></g><g class="zerolinelayer"><path class="xzl zl crisp" transform="translate(116.24,0)" d="M0,100v720" style="stroke: rgb(78, 78, 78); stroke-opacity: 1; stroke-width: 2px;"/><path class="yzl zl crisp" transform="translate(0,783.67)" d="M90,0h1102" style="stroke: rgb(78, 78, 78); stroke-opacity: 1; stroke-width: 2px;"/></g><path class="xlines-below"/><path class="ylines-below"/><g class="overlines-below"/><g class="xaxislayer-below"/><g class="yaxislayer-below"/><g class="overaxes-below"/><g class="plot" transform="translate(90,100)" clip-path="url('#clip45ddf6xyplot')"><g class="scatterlayer mlayer"><g class="trace scatter trace2000db" style="stroke-miterlimit: 2; opacity: 1;"><g class="fills"/><g class="errorbars"/><g class="lines"><path class="js-line" d="M26.24,36L113.33,167.35L126.85,187.09L173.15,252.34L178.05,258.99L214.64,306.97L219.56,313.18L249.41,349.48L256.17,357.37L279.15,383.27L292.67,397.82L330.08,435.4L334.35,439.45L361.96,464.35L375.48,475.79L407.98,501.31L412.88,504.92L444.76,526.96L458.29,535.58L495.69,557.29L499.97,559.58L539.29,578.97L546.08,582.02L582.99,597.23L596.51,602.25L638.19,616.06L651.71,620.05L693.4,630.97L706.92,634.11L758.12,644.44L760.26,644.82L803.81,651.87L817.33,653.79L882.44,661.56L884.59,661.78L955.55,667.94L965.35,668.64L1048.16,673.46L1052.44,673.66L1075.76,674.7" style="vector-effect: non-scaling-stroke; fill: none; stroke: rgb(0, 113, 188); stroke-opacity: 1; stroke-width: 4px; opacity: 1;"/></g><g class="points"/><g class="text"/></g><g class="trace scatter trace99a5b1" style="stroke-miterlimit: 2; opacity: 1;"><g class="fills"/><g class="errorbars"/><g class="lines"/><g class="points"><path class="point" transform="translate(26.24,247.2)" d="M7.5,0A7.5,7.5 0 1,1 0,-7.5A7.5,7.5 0 0,1 7.5,0Z" style="opacity: 0.75; stroke-width: 0px; fill: rgb(0, 113, 188); fill-opacity: 1;"/><path class="point" transform="translate(81.44,112.2)" d="M7.5,0A7.5,7.5 0 1,1 0,-7.5A7.5,7.5 0 0,1 7.5,0Z" style="opacity: 0.75; stroke-width: 0px; fill: rgb(0, 113, 188); fill-opacity: 1;"/><path class="point" transform="translate(136.65,187.25)" d="M7.5,0A7.5,7.5 0 1,1 0,-7.5A7.5,7.5 0 0,1 7.5,0Z" style="opacity: 0.75; stroke-width: 0px; fill: rgb(0, 113, 188); fill-opacity: 1;"/><path class="point" transform="translate(191.85,284.18)" d="M7.5,0A7.5,7.5 0 1,1 0,-7.5A7.5,7.5 0 0,1 7.5,0Z" style="opacity: 0.75; stroke-width: 0px; fill: rgb(0, 113, 188); fill-opacity: 1;"/><path class="point" transform="translate(247.27,369.38)" d="M7.5,0A7.5,7.5 0 1,1 0,-7.5A7.5,7.5 0 0,1 7.5,0Z" style="opacity: 0.75; stroke-width: 0px; fill: rgb(0, 113, 188); fill-opacity: 1;"/><path class="point" transform="translate(302.47,414.26)" d="M7.5,0A7.5,7.5 0 1,1 0,-7.5A7.5,7.5 0 0,1 7.5,0Z" style="opacity: 0.75; stroke-width: 0px; fill: rgb(0, 113, 188); fill-opacity: 1;"/><path class="point" transform="translate(357.68,477.97)" d="M7.5,0A7.5,7.5 0 1,1 0,-7.5A7.5,7.5 0 0,1 7.5,0Z" style="opacity: 0.75; stroke-width: 0px; fill: rgb(0, 113, 188); fill-opacity: 1;"/><path class="point" transform="translate(412.88,486.97)" d="M7.5,0A7.5,7.5 0 1,1 0,-7.5A7.5,7.5 0 0,1 7.5,0Z" style="opacity: 0.75; stroke-width: 0px; fill: rgb(0, 113, 188); fill-opacity: 1;"/><path class="point" transform="translate(468.09,536.26)" d="M7.5,0A7.5,7.5 0 1,1 0,-7.5A7.5,7.5 0 0,1 7.5,0Z" style="opacity: 0.75; stroke-width: 0px; fill: rgb(0, 113, 188); fill-opacity: 1;"/><path class="point" transform="translate(523.29,588.01)" d="M7.5,0A7.5,7.5 0 1,1 0,-7.5A7.5,7.5 0 0,1 7.5,0Z" style="opacity: 0.75; stroke-width: 0px; fill: rgb(0, 113, 188); fill-opacity: 1;"/><path class="point" transform="translate(578.71,568.9)" d="M7.5,0A7.5,7.5 0 1,1 0,-7.5A7.5,7.5 0 0,1 7.5,0Z" style="opacity: 0.75; stroke-width: 0px; fill: rgb(0, 113, 188); fill-opacity: 1;"/><path class="point" transform="translate(633.91,609.21)" d="M7.5,0A7.5,7.5 0 1,1 0,-7.5A7.5,7.5 0 0,1 7.5,0Z" style="opacity: 0.75; stroke-width: 0px; fill: rgb(0, 113, 188); fill-opacity: 1;"/><path class="point" transform="translate(689.12,633.56)" d="M7.5,0A7.5,7.5 0 1,1 0,-7.5A7.5,7.5 0 0,1 7.5,0Z" style="opacity: 0.75; stroke-width: 0px; fill: rgb(0, 113, 188); fill-opacity: 1;"/><path class="point" transform="translate(744.32,631.97)" d="M7.5,0A7.5,7.5 0 1,1 0,-7.5A7.5,7.5 0 0,1 7.5,0Z" style="opacity: 0.75; stroke-width: 0px; fill: rgb(0, 113, 188); fill-opacity: 1;"/><path class="point" transform="translate(799.53,645.5)" d="M7.5,0A7.5,7.5 0 1,1 0,-7.5A7.5,7.5 0 0,1 7.5,0Z" style="opacity: 0.75; stroke-width: 0px; fill: rgb(0, 113, 188); fill-opacity: 1;"/><path class="point" transform="translate(854.73,660.97)" d="M7.5,0A7.5,7.5 0 1,1 0,-7.5A7.5,7.5 0 0,1 7.5,0Z" style="opacity: 0.75; stroke-width: 0px; fill: rgb(0, 113, 188); fill-opacity: 1;"/><path class="point" transform="translate(910.15,674.63)" d="M7.5,0A7.5,7.5 0 1,1 0,-7.5A7.5,7.5 0 0,1 7.5,0Z" style="opacity: 0.75; stroke-width: 0px; fill: rgb(0, 113, 188); fill-opacity: 1;"/><path class="point" transform="translate(965.35,659.81)" d="M7.5,0A7.5,7.5 0 1,1 0,-7.5A7.5,7.5 0 0,1 7.5,0Z" style="opacity: 0.75; stroke-width: 0px; fill: rgb(0, 113, 188); fill-opacity: 1;"/><path class="point" transform="translate(1020.56,660.52)" d="M7.5,0A7.5,7.5 0 1,1 0,-7.5A7.5,7.5 0 0,1 7.5,0Z" style="opacity: 0.75; stroke-width: 0px; fill: rgb(0, 113, 188); fill-opacity: 1;"/><path class="point" transform="translate(1075.76,665.77)" d="M7.5,0A7.5,7.5 0 1,1 0,-7.5A7.5,7.5 0 0,1 7.5,0Z" style="opacity: 0.75; stroke-width: 0px; fill: rgb(0, 113, 188); fill-opacity: 1;"/></g><g class="text"/></g></g></g><g class="overplot"/><path class="xlines-above crisp" d="M0,0" style="fill: none;"/><path class="ylines-above crisp" d="M0,0" style="fill: none;"/><g class="overlines-above"/><g class="xaxislayer-above"><g class="xtick"><text text-anchor="middle" x="0" y="845" transform="translate(116.24,0)" style="font-family: 'Open Sans', verdana, arial, sans-serif; font-size: 24px; fill: rgb(42, 63, 95); fill-opacity: 1; white-space: pre;">0</text></g><g class="xtick"><text text-anchor="middle" x="0" y="845" transform="translate(326.14,0)" style="font-family: 'Open Sans', verdana, arial, sans-serif; font-size: 24px; fill: rgb(42, 63, 95); fill-opacity: 1; white-space: pre;">1</text></g><g class="xtick"><text text-anchor="middle" x="0" y="845" transform="translate(536.05,0)" style="font-family: 'Open Sans', verdana, arial, sans-serif; font-size: 24px; fill: rgb(42, 63, 95); fill-opacity: 1; white-space: pre;">2</text></g><g class="xtick"><text text-anchor="middle" x="0" y="845" transform="translate(745.95,0)" style="font-family: 'Open Sans', verdana, arial, sans-serif; font-size: 24px; fill: rgb(42, 63, 95); fill-opacity: 1; white-space: pre;">3</text></g><g class="xtick"><text text-anchor="middle" x="0" y="845" transform="translate(955.86,0)" style="font-family: 'Open Sans', verdana, arial, sans-serif; font-size: 24px; fill: rgb(42, 63, 95); fill-opacity: 1; white-space: pre;">4</text></g><g class="xtick"><text text-anchor="middle" x="0" y="845" transform="translate(1165.76,0)" style="font-family: 'Open Sans', verdana, arial, sans-serif; font-size: 24px; fill: rgb(42, 63, 95); fill-opacity: 1; white-space: pre;">5</text></g></g><g class="yaxislayer-above"><g class="ytick"><text text-anchor="end" x="89" y="8.399999999999999" transform="translate(0,783.67)" style="font-family: 'Open Sans', verdana, arial, sans-serif; font-size: 24px; fill: rgb(42, 63, 95); fill-opacity: 1; white-space: pre;">0</text></g><g class="ytick"><text text-anchor="end" x="89" y="8.399999999999999" transform="translate(0,654.14)" style="font-family: 'Open Sans', verdana, arial, sans-serif; font-size: 24px; fill: rgb(42, 63, 95); fill-opacity: 1; white-space: pre;">0.2</text></g><g class="ytick"><text text-anchor="end" x="89" y="8.399999999999999" transform="translate(0,524.6)" style="font-family: 'Open Sans', verdana, arial, sans-serif; font-size: 24px; fill: rgb(42, 63, 95); fill-opacity: 1; white-space: pre;">0.4</text></g><g class="ytick"><text text-anchor="end" x="89" y="8.399999999999999" transform="translate(0,395.07)" style="font-family: 'Open Sans', verdana, arial, sans-serif; font-size: 24px; fill: rgb(42, 63, 95); fill-opacity: 1; white-space: pre;">0.6</text></g><g class="ytick"><text text-anchor="end" x="89" y="8.399999999999999" transform="translate(0,265.53)" style="font-family: 'Open Sans', verdana, arial, sans-serif; font-size: 24px; fill: rgb(42, 63, 95); fill-opacity: 1; white-space: pre;">0.8</text></g><g class="ytick"><text text-anchor="end" x="89" y="8.399999999999999" transform="translate(0,136)" style="font-family: 'Open Sans', verdana, arial, sans-serif; font-size: 24px; fill: rgb(42, 63, 95); fill-opacity: 1; white-space: pre;">1</text></g></g><g class="overaxes-above"/></g></g><g class="polarlayer"/><g class="ternarylayer"/><g class="geolayer"/><g class="funnelarealayer"/><g class="pielayer"/><g class="treemaplayer"/><g class="sunburstlayer"/><g class="glimages"/><defs id="topdefs-45ddf6"><g class="clips"/><clipPath id="legend45ddf6"><rect width="174" height="100" x="0" y="0"/></clipPath></defs><g class="layer-above"><g class="imagelayer"/><g class="shapelayer"/></g><g class="infolayer"><g class="legend" pointer-events="all" transform="translate(1214.04,100)"><rect class="bg" shape-rendering="crispEdges" style="stroke: rgb(68, 68, 68); stroke-opacity: 1; fill: rgb(255, 255, 255); fill-opacity: 1; stroke-width: 0px;" width="174" height="100" x="0" y="0"/><g class="scrollbox" transform="" clip-path="url('#legend45ddf6')"><g class="groups"><g class="traces" transform="translate(0,27.3)" style="opacity: 1;"><text class="legendtext" text-anchor="start" x="40" y="12.48" style="font-family: 'Open Sans', verdana, arial, sans-serif; font-size: 32px; fill: rgb(42, 63, 95); fill-opacity: 1; white-space: pre;">y</text><g class="layers" style="opacity: 1;"><g class="legendfill"/><g class="legendlines"><path class="js-line" d="M5,0h30" style="fill: none; stroke: rgb(0, 113, 188); stroke-opacity: 1; stroke-width: 4px;"/></g><g class="legendsymbols"><g class="legendpoints"/></g></g><rect class="legendtoggle" x="0" y="-22.3" width="168.828125" height="44.6" style="fill: rgb(0, 0, 0); fill-opacity: 0;"/></g><g class="traces" transform="translate(0,71.9)" style="opacity: 1;"><text class="legendtext" text-anchor="start" x="40" y="12.48" style="font-family: 'Open Sans', verdana, arial, sans-serif; font-size: 32px; fill: rgb(42, 63, 95); fill-opacity: 1; white-space: pre;">y (exp.)</text><g class="layers" style="opacity: 1;"><g class="legendfill"/><g class="legendlines"/><g class="legendsymbols"><g class="legendpoints"><path class="scatterpts" transform="translate(20,0)" d="M7.5,0A7.5,7.5 0 1,1 0,-7.5A7.5,7.5 0 0,1 7.5,0Z" style="opacity: 0.75; stroke-width: 0px; fill: rgb(0, 113, 188); fill-opacity: 1;"/></g></g></g><rect class="legendtoggle" x="0" y="-22.3" width="168.828125" height="44.6" style="fill: rgb(0, 0, 0); fill-opacity: 0;"/></g></g></g><rect class="scrollbar" rx="20" ry="3" width="0" height="0" style="fill: rgb(128, 139, 164); fill-opacity: 1;" x="0" y="0"/></g><g class="g-gtitle"><text class="gtitle" x="70" y="50" text-anchor="start" dy="0em" style="font-family: 'Open Sans', verdana, arial, sans-serif; font-size: 32px; fill: rgb(42, 63, 95); opacity: 1; font-weight: normal; white-space: pre;">Model: reaction-1 | Variable: y | Description: Ratio of B to (B + C)</text></g><g class="g-xtitle"><text class="xtitle" x="641" y="887.4" text-anchor="middle" style="font-family: 'Open Sans', verdana, arial, sans-serif; font-size: 32px; fill: rgb(42, 63, 95); opacity: 1; font-weight: normal; white-space: pre;">Time [s]</text></g><g class="g-ytitle" transform="translate(19.650390625,0)"><text class="ytitle" transform="rotate(-90,12.349999999999994,460)" x="12.349999999999994" y="460" text-anchor="middle" style="font-family: 'Open Sans', verdana, arial, sans-serif; font-size: 32px; fill: rgb(42, 63, 95); opacity: 1; font-weight: normal; white-space: pre;">[None]</text></g></g></svg>