<svg class="main-svg" xmlns="http://www.w3.org/2000/svg" xmlns:xlink="http://www.w3.org/1999/xlink" width="1400" height="900" style="" viewBox="0 0 1400 900"><rect x="0" y="0" width="1400" height="900" style="fill: rgb(255, 255, 255); fill-opacity: 1;"/><defs id="defs-afc1fd"><g class="clips"><clipPath id="clipafc1fdxyplot" class="plotclip"><rect width="1230" height="720"/></clipPath><clipPath class="axesclip" id="clipafc1fdx"><rect x="90" y="0" width="1230" height="900"/></clipPath><clipPath class="axesclip" id="clipafc1fdy"><rect x="0" y="100" width="1400" height="720"/></clipPath><clipPath class="axesclip" id="clipafc1fdxy"><rect x="90" y="100" width="1230" height="720"/></clipPath></g><g class="gradients"/></defs><g class="bglayer"><rect class="bg" x="90" y="100" width="1230" height="720" style="fill: rgb(229, 236, 246); fill-opacity: 1; stroke-width: 0;"/></g><g class="layer-below"><g class="imagelayer"/><g class="shapelayer"/></g><g class="cartesianlayer"><g class="subplot xy"><g class="layer-subplot"><g class="shapelayer"/><g class="imagelayer"/></g><g class="gridlayer"><g class="x"><path class="xgrid crisp" transform="translate(201.82,0)" d="M0,100v720" style="stroke: rgb(255, 255, 255); stroke-opacity: 1; stroke-width: 1px;"/><path class="xgrid crisp" transform="translate(326.06,0)" d="M0,100v720" style="stroke: rgb(255, 255, 255); stroke-opacity: 1; stroke-width: 1px;"/><path class="xgrid crisp" transform="translate(450.3,0)" d="M0,100v720" style="stroke: rgb(255, 255, 255); stroke-opacity: 1; stroke-width: 1px;"/><path class="xgrid crisp" transform="translate(574.55,0)" d="M0,100v720" style="stroke: rgb(255, 255, 255); stroke-opacity: 1; stroke-width: 1px;"/><path class="xgrid crisp" transform="translate(698.79,0)" d="M0,100v720" style="stroke: rgb(255, 255, 255); stroke-opacity: 1; stroke-width: 1px;"/><path class="xgrid crisp" transform="translate(823.03,0)" d="M0,100v720" style="stroke: rgb(255, 255, 255); stroke-opacity: 1; stroke-width: 1px;"/><path class="xgrid crisp" transform="translate(947.27,0)" d="M0,100v720" style="stroke: rgb(255, 255, 255); stroke-opacity: 1; stroke-width: 1px;"/><path class="xgrid crisp" transform="translate(1071.52,0)" d="M0,100v720" style="stroke: rgb(255, 255, 255); stroke-opacity: 1; stroke-width: 1px;"/><path class="xgrid crisp" transform="translate(1195.76,0)" d="M0,100v720" style="stroke: rgb(255, 255, 255); stroke-opacity: 1; stroke-width: 1px;"/></g><g class="y"><path class="ygrid crisp" transform="translate(0,659.63)" d="M90,0h1230" style="stroke: rgb(255, 255, 255); stroke-opacity: 1; stroke-width: 1px;"/><path class="ygrid crisp" transform="translate(0,519.35)" d="M90,0h1230" style="stroke: rgb(255, 255, 255); stroke-opacity: 1; stroke-width: 1px;"/><path class="ygrid crisp" transform="translate(0,379.07)" d="M90,0h1230" style="stroke: rgb(255, 255, 255); stroke-opacity: 1; stroke-width: 1px;"/><path class="ygrid crisp" transform="translate(0,238.79)" d="M90,0h1230" style="stroke: rgb(255, 255, 255); stroke-opacity: 1; stroke-width: 1px;"/></g></g><g class="zerolinelayer"><path class="yzl zl crisp" transform="translate(0,799.92)" d="M90,0h1230" style="stroke: rgb(78, 78, 78); stroke-opacity: 1; stroke-width: 2px;"/></g><path class="xlines-below"/><path class="ylines-below"/><g class="overlines-below"/><g class="xaxislayer-below"/><g class="yaxislayer-below"/><g class="overaxes-below"/><g class="plot" transform="translate(90,100)" clip-path="url('#clipafc1fdxyplot')"><g class="scatterlayer mlayer"><g class="trace scatter trace1b4462" style="stroke-miterlimit: 2; opacity: 1;"><g class="fills"/><g class="errorbars"/><g class="lines"><path class="js-line" d="M0,71.27L12.42,59.35L24.85,66.54L37.27,87.4L49.7,189.17L62.12,318.49L74.55,271.39L86.97,380.61L99.39,453.32L111.82,503.37L124.24,436.18L136.67,362.13L149.09,322.25L161.52,359.47L173.94,420.6L186.36,414.25L198.79,463.32L211.21,453.26L223.64,391.46L236.06,372.13L248.48,456.58L260.91,683.82L273.33,656.14L285.76,614.28L298.18,684L310.61,464.02L323.03,403.19L335.45,376.84L347.88,354.24L360.3,298.07L372.73,223.42L385.15,199.84L397.58,150.64L410,115.88L422.42,74.94L434.85,54.18L447.27,36L459.7,36.03L472.12,127.89L484.55,454.48L496.97,369.24L509.39,456.29L521.82,279.99L534.24,225.87L546.67,289.96L559.09,371.6L571.52,505.71L583.94,442.48L596.36,547.66L608.79,649.35L621.21,382.77L633.64,315.86L646.06,215.18L658.48,201.89L670.91,257.11L683.33,461.36L695.76,404.62L708.18,302.48L720.61,227.1L733.03,186.3L745.45,197.99L757.88,273.79L770.3,405.89L782.73,404.48L795.15,455.14L807.58,512.17L820,660.75L832.42,670.34L844.85,640.22L857.27,613.09L869.7,661.15L882.12,578.49L894.55,454.73L906.97,435.49L919.39,311.82L931.82,269.15L944.24,194.87L956.67,202.11L969.09,150.18L981.52,288.32L993.94,539L1006.36,181.62L1018.79,154.84L1031.21,251.21L1043.64,455.01L1056.06,564.66L1068.48,332.02L1080.91,396.71L1093.33,496.53L1105.76,383.53L1118.18,226.02L1130.61,400.89L1143.03,508.56L1155.45,355.21L1167.88,322.48L1180.3,334.42L1192.73,588.56L1205.15,531.93L1217.58,468.3L1230,595.94" style="vector-effect: non-scaling-stroke; fill: none; stroke: rgb(99, 110, 250); stroke-opacity: 1; stroke-width: 4px; opacity: 1;"/></g><g class="points"/><g class="text"/></g></g></g><g class="overplot"/><path class="xlines-above crisp" d="M0,0" style="fill: none;"/><path class="ylines-above crisp" d="M0,0" style="fill: none;"/><g class="overlines-above"/><g class="xaxislayer-above"><g class="xtick"><text text-anchor="middle" x="0" y="845" transform="translate(201.82,0)" style="font-family: 'Open Sans', verdana, arial, sans-serif; font-size: 24px; fill: rgb(42, 63, 95); fill-opacity: 1; white-space: pre;">1700</text></g><g class="xtick"><text text-anchor="middle" x="0" y="845" transform="translate(326.06,0)" style="font-family: 'Open Sans', verdana, arial, sans-serif; font-size: 24px; fill: rgb(42, 63, 95); fill-opacity: 1; white-space: pre;">1800</text></g><g class="xtick"><text text-anchor="middle" x="0" y="845" transform="translate(450.3,0)" style="font-family: 'Open Sans', verdana, arial, sans-serif; font-size: 24px; fill: rgb(42, 63, 95); fill-opacity: 1; white-space: pre;">1900</text></g><g class="xtick"><text text-anchor="middle" x="0" y="845" transform="translate(574.55,0)" style="font-family: 'Open Sans', verdana, arial, sans-serif; font-size: 24px; fill: rgb(42, 63, 95); fill-opacity: 1; white-space: pre;">2000</text></g><g class="xtick"><text text-anchor="middle" x="0" y="845" transform="translate(698.79,0)" style="font-family: 'Open Sans', verdana, arial, sans-serif; font-size: 24px; fill: rgb(42, 63, 95); fill-opacity: 1; white-space: pre;">2100</text></g><g class="xtick"><text text-anchor="middle" x="0" y="845" transform="translate(823.03,0)" style="font-family: 'Open Sans', verdana, arial, sans-serif; font-size: 24px; fill: rgb(42, 63, 95); fill-opacity: 1; white-space: pre;">2200</text></g><g class="xtick"><text text-anchor="middle" x="0" y="845" transform="translate(947.27,0)" style="font-family: 'Open Sans', verdana, arial, sans-serif; font-size: 24px; fill: rgb(42, 63, 95); fill-opacity: 1; white-space: pre;">2300</text></g><g class="xtick"><text text-anchor="middle" x="0" y="845" transform="translate(1071.52,0)" style="font-family: 'Open Sans', verdana, arial, sans-serif; font-size: 24px; fill: rgb(42, 63, 95); fill-opacity: 1; white-space: pre;">2400</text></g><g class="xtick"><text text-anchor="middle" x="0" y="845" transform="translate(1195.76,0)" style="font-family: 'Open Sans', verdana, arial, sans-serif; font-size: 24px; fill: rgb(42, 63, 95); fill-opacity: 1; white-space: pre;">2500</text></g><g class="xtick"><text text-anchor="middle" x="0" y="845" transform="translate(1320,0)" style="font-family: 'Open Sans', verdana, arial, sans-serif; font-size: 24px; fill: rgb(42, 63, 95); fill-opacity: 1; white-space: pre;">2600</text></g></g><g class="yaxislayer-above"><g class="ytick"><text text-anchor="end" x="89" y="8.399999999999999" transform="translate(0,799.92)" style="font-family: 'Open Sans', verdana, arial, sans-serif; font-size: 24px; fill: rgb(42, 63, 95); fill-opacity: 1; white-space: pre;">0</text></g><g class="ytick"><text text-anchor="end" x="89" y="8.399999999999999" transform="translate(0,659.63)" style="font-family: 'Open Sans', verdana, arial, sans-serif; font-size: 24px; fill: rgb(42, 63, 95); fill-opacity: 1; white-space: pre;">0.2</text></g><g class="ytick"><text text-anchor="end" x="89" y="8.399999999999999" transform="translate(0,519.35)" style="font-family: 'Open Sans', verdana, arial, sans-serif; font-size: 24px; fill: rgb(42, 63, 95); fill-opacity: 1; white-space: pre;">0.4</text></g><g class="ytick"><text text-anchor="end" x="89" y="8.399999999999999" transform="translate(0,379.07)" style="font-family: 'Open Sans', verdana, arial, sans-serif; font-size: 24px; fill: rgb(42, 63, 95); fill-opacity: 1; white-space: pre;">0.6</text></g><g class="ytick"><text text-anchor="end" x="89" y="8.399999999999999" transform="translate(0,238.79)" style="font-family: 'Open Sans', verdana, arial, sans-serif; font-size: 24px; fill: rgb(42, 63, 95); fill-opacity: 1; white-space: pre;">0.8</text></g></g><g class="overaxes-above"/></g></g><g class="polarlayer"/><g class="ternarylayer"/><g class="geolayer"/><g class="funnelarealayer"/><g class="pielayer"/><g class="treemaplayer"/><g class="sunburstlayer"/><g class="glimages"/><defs id="topdefs-afc1fd"><g class="clips"/></defs><g class="layer-above"><g class="imagelayer"/><g class="shapelayer"/></g><g class="infolayer"><g class="g-gtitle"><text class="gtitle" x="70" y="50" text-anchor="start" dy="0em" style="font-family: 'Open Sans', verdana, arial, sans-serif; font-size: 32px; fill: rgb(42, 63, 95); opacity: 1; font-weight: normal; white-space: pre;">Wavelength Correlations</text></g><g class="g-xtitle"><text class="xtitle" x="705" y="887.4" text-anchor="middle" style="font-family: 'Open Sans', verdana, arial, sans-serif; font-size: 32px; fill: rgb(42, 63, 95); opacity: 1; font-weight: normal; white-space: pre;">Wavelength (cm)</text></g><g class="g-ytitle" transform="translate(19.650390625,0)"><text class="ytitle" transform="rotate(-90,12.349999999999994,460)" x="12.349999999999994" y="460" text-anchor="middle" style="font-family: 'Open Sans', verdana, arial, sans-serif; font-size: 32px; fill: rgb(42, 63, 95); opacity: 1; font-weight: normal; white-space: pre;">Correlation</text></g></g></svg>