<svg class="main-svg" xmlns="http://www.w3.org/2000/svg" xmlns:xlink="http://www.w3.org/1999/xlink" width="1400" height="900" style="" viewBox="0 0 1400 900"><rect x="0" y="0" width="1400" height="900" style="fill: rgb(255, 255, 255); fill-opacity: 1;"/><defs id="defs-ca3a8d"><g class="clips"><clipPath id="clipca3a8dxyplot" class="plotclip"><rect width="1098" height="720"/></clipPath><clipPath class="axesclip" id="clipca3a8dx"><rect x="90" y="0" width="1098" height="900"/></clipPath><clipPath class="axesclip" id="clipca3a8dy"><rect x="0" y="100" width="1400" height="720"/></clipPath><clipPath class="axesclip" id="clipca3a8dxy"><rect x="90" y="100" width="1098" height="720"/></clipPath></g><g class="gradients"/></defs><g class="bglayer"><rect class="bg" x="90" y="100" width="1098" height="720" style="fill: rgb(229, 236, 246); fill-opacity: 1; stroke-width: 0;"/></g><g class="layer-below"><g class="imagelayer"/><g class="shapelayer"/></g><g class="cartesianlayer"><g class="subplot xy"><g class="layer-subplot"><g class="shapelayer"/><g class="imagelayer"/></g><g class="gridlayer"><g class="x"><path class="xgrid crisp" transform="translate(297.02,0)" d="M0,100v720" style="stroke: rgb(255, 255, 255); stroke-opacity: 1; stroke-width: 1px;"/><path class="xgrid crisp" transform="translate(477.89,0)" d="M0,100v720" style="stroke: rgb(255, 255, 255); stroke-opacity: 1; stroke-width: 1px;"/><path class="xgrid crisp" transform="translate(658.77,0)" d="M0,100v720" style="stroke: rgb(255, 255, 255); stroke-opacity: 1; stroke-width: 1px;"/><path class="xgrid crisp" transform="translate(839.64,0)" d="M0,100v720" style="stroke: rgb(255, 255, 255); stroke-opacity: 1; stroke-width: 1px;"/><path class="xgrid crisp" transform="translate(1020.52,0)" d="M0,100v720" style="stroke: rgb(255, 255, 255); stroke-opacity: 1; stroke-width: 1px;"/></g><g class="y"><path class="ygrid crisp" transform="translate(0,623.61)" d="M90,0h1098" style="stroke: rgb(255, 255, 255); stroke-opacity: 1; stroke-width: 1px;"/><path class="ygrid crisp" transform="translate(0,472.6)" d="M90,0h1098" style="stroke: rgb(255, 255, 255); stroke-opacity: 1; stroke-width: 1px;"/><path class="ygrid crisp" transform="translate(0,321.58000000000004)" d="M90,0h1098" style="stroke: rgb(255, 255, 255); stroke-opacity: 1; stroke-width: 1px;"/><path class="ygrid crisp" transform="translate(0,170.57)" d="M90,0h1098" style="stroke: rgb(255, 255, 255); stroke-opacity: 1; stroke-width: 1px;"/></g></g><g class="zerolinelayer"><path class="xzl zl crisp" transform="translate(116.14,0)" d="M0,100v720" style="stroke: rgb(78, 78, 78); stroke-opacity: 1; stroke-width: 2px;"/><path class="yzl zl crisp" transform="translate(0,774.63)" d="M90,0h1098" style="stroke: rgb(78, 78, 78); stroke-opacity: 1; stroke-width: 2px;"/></g><path class="xlines-below"/><path class="ylines-below"/><g class="overlines-below"/><g class="xaxislayer-below"/><g class="yaxislayer-below"/><g class="overaxes-below"/><g class="plot" transform="translate(90,100)" clip-path="url('#clipca3a8dxyplot')"><g class="scatterlayer mlayer"><g class="trace scatter tracece922f" style="stroke-miterlimit: 2; opacity: 1;"><g class="fills"/><g class="errorbars"/><g class="lines"><path class="js-line" d="M26.14,70.57L47.16,139.08L53.19,157.85L72.38,214.16L82.94,242.82L98.33,281.6L106.81,301.47L122.2,335.04L130.67,352.2L150.25,388.56L153.29,393.8L172.87,425.36L182.46,439.48L202.05,465.81L209,474.42L231.16,499.55L234.59,503.15L256.75,524.67L267.61,534.21L289.77,552.07L297.64,557.04L321.88,567.27L330.42,570.56L365.26,582.57L371.44,584.49L411.81,595.73L415.37,596.63L461.28,607L472.52,609.25L526.58,618.77L530.14,619.33L591.71,627.96L602.29,629.26L666.53,636.26L681.13,637.66L770.54,644.98L781.13,645.72L886.68,652.06L892.47,652.36L1044.3,658.77L1060.28,659.31L1071.86,659.69" style="vector-effect: non-scaling-stroke; fill: none; stroke: rgb(0, 113, 188); stroke-opacity: 1; stroke-width: 4px; opacity: 1;"/></g><g class="points"/><g class="text"/></g><g class="trace scatter tracef52005" style="stroke-miterlimit: 2; opacity: 1;"><g class="fills"/><g class="errorbars"/><g class="lines"/><g class="points"><path class="point" transform="translate(26.14,45.38)" d="M7.5,0A7.5,7.5 0 1,1 0,-7.5A7.5,7.5 0 0,1 7.5,0Z" style="opacity: 0.75; stroke-width: 0px; fill: rgb(0, 113, 188); fill-opacity: 1;"/><path class="point" transform="translate(26.27,55.37)" d="M7.5,0A7.5,7.5 0 1,1 0,-7.5A7.5,7.5 0 0,1 7.5,0Z" style="opacity: 0.75; stroke-width: 0px; fill: rgb(0, 113, 188); fill-opacity: 1;"/><path class="point" transform="translate(28.42,125.14)" d="M7.5,0A7.5,7.5 0 1,1 0,-7.5A7.5,7.5 0 0,1 7.5,0Z" style="opacity: 0.75; stroke-width: 0px; fill: rgb(0, 113, 188); fill-opacity: 1;"/><path class="point" transform="translate(36.2,57.08)" d="M7.5,0A7.5,7.5 0 1,1 0,-7.5A7.5,7.5 0 0,1 7.5,0Z" style="opacity: 0.75; stroke-width: 0px; fill: rgb(0, 113, 188); fill-opacity: 1;"/><path class="point" transform="translate(53.19,208.95)" d="M7.5,0A7.5,7.5 0 1,1 0,-7.5A7.5,7.5 0 0,1 7.5,0Z" style="opacity: 0.75; stroke-width: 0px; fill: rgb(0, 113, 188); fill-opacity: 1;"/><path class="point" transform="translate(82.94,308.22)" d="M7.5,0A7.5,7.5 0 1,1 0,-7.5A7.5,7.5 0 0,1 7.5,0Z" style="opacity: 0.75; stroke-width: 0px; fill: rgb(0, 113, 188); fill-opacity: 1;"/><path class="point" transform="translate(130.67,269.11)" d="M7.5,0A7.5,7.5 0 1,1 0,-7.5A7.5,7.5 0 0,1 7.5,0Z" style="opacity: 0.75; stroke-width: 0px; fill: rgb(0, 113, 188); fill-opacity: 1;"/><path class="point" transform="translate(209,419.68)" d="M7.5,0A7.5,7.5 0 1,1 0,-7.5A7.5,7.5 0 0,1 7.5,0Z" style="opacity: 0.75; stroke-width: 0px; fill: rgb(0, 113, 188); fill-opacity: 1;"/><path class="point" transform="translate(297.64,462.99)" d="M7.5,0A7.5,7.5 0 1,1 0,-7.5A7.5,7.5 0 0,1 7.5,0Z" style="opacity: 0.75; stroke-width: 0px; fill: rgb(0, 113, 188); fill-opacity: 1;"/><path class="point" transform="translate(319.18,674.63)" d="M7.5,0A7.5,7.5 0 1,1 0,-7.5A7.5,7.5 0 0,1 7.5,0Z" style="opacity: 0.75; stroke-width: 0px; fill: rgb(0, 113, 188); fill-opacity: 1;"/><path class="point" transform="translate(388.86,589.02)" d="M7.5,0A7.5,7.5 0 1,1 0,-7.5A7.5,7.5 0 0,1 7.5,0Z" style="opacity: 0.75; stroke-width: 0px; fill: rgb(0, 113, 188); fill-opacity: 1;"/><path class="point" transform="translate(572.49,571.36)" d="M7.5,0A7.5,7.5 0 1,1 0,-7.5A7.5,7.5 0 0,1 7.5,0Z" style="opacity: 0.75; stroke-width: 0px; fill: rgb(0, 113, 188); fill-opacity: 1;"/><path class="point" transform="translate(810.93,658.09)" d="M7.5,0A7.5,7.5 0 1,1 0,-7.5A7.5,7.5 0 0,1 7.5,0Z" style="opacity: 0.75; stroke-width: 0px; fill: rgb(0, 113, 188); fill-opacity: 1;"/><path class="point" transform="translate(1071.86,674.63)" d="M7.5,0A7.5,7.5 0 1,1 0,-7.5A7.5,7.5 0 0,1 7.5,0Z" style="opacity: 0.75; stroke-width: 0px; fill: rgb(0, 113, 188); fill-opacity: 1;"/></g><g class="text"/></g><g class="trace scatter trace1940ad" style="stroke-miterlimit: 2; opacity: 1;"><g class="fills"/><g class="errorbars"/><g class="lines"><path class="js-line" d="M26.14,674.63L33.44,652L36.2,644.26L47.16,617.36L53.19,604.74L57.8,595.97L72.38,572.26L86.64,553.72L98.33,541.03L110.51,529.64L122.2,520.06L143.3,505.3L150.25,500.99L172.87,488.33L182.46,483.46L212.43,469.63L223.29,465.01L267.61,447.54L275.48,444.62L278.92,443.71L289.77,438.78L297.64,438.31L300.98,439.8L336.6,454.12L339.3,455.09L374.14,466.57L382.68,469.1L426.62,480.62L434.77,482.52L484.23,492.75L495.48,494.8L553.09,504.03L564.34,505.62L632.1,513.95L636.72,514.46L726.14,522.85L740.74,524.01L846.08,531.1L854.06,531.55L962.43,536.88L974.01,537.36L1071.86,540.95" style="vector-effect: non-scaling-stroke; fill: none; stroke: rgb(216, 82, 24); stroke-opacity: 1; stroke-width: 4px; opacity: 1;"/></g><g class="points"/><g class="text"/></g><g class="trace scatter traceb492d7" style="stroke-miterlimit: 2; opacity: 1;"><g class="fills"/><g class="errorbars"/><g class="lines"/><g class="points"><path class="point" transform="translate(26.14,674.63)" d="M7.5,0A7.5,7.5 0 1,1 0,-7.5A7.5,7.5 0 0,1 7.5,0Z" style="opacity: 0.75; stroke-width: 0px; fill: rgb(216, 82, 24); fill-opacity: 1;"/><path class="point" transform="translate(26.27,674.21)" d="M7.5,0A7.5,7.5 0 1,1 0,-7.5A7.5,7.5 0 0,1 7.5,0Z" style="opacity: 0.75; stroke-width: 0px; fill: rgb(216, 82, 24); fill-opacity: 1;"/><path class="point" transform="translate(28.42,667.22)" d="M7.5,0A7.5,7.5 0 1,1 0,-7.5A7.5,7.5 0 0,1 7.5,0Z" style="opacity: 0.75; stroke-width: 0px; fill: rgb(216, 82, 24); fill-opacity: 1;"/><path class="point" transform="translate(36.2,644.44)" d="M7.5,0A7.5,7.5 0 1,1 0,-7.5A7.5,7.5 0 0,1 7.5,0Z" style="opacity: 0.75; stroke-width: 0px; fill: rgb(216, 82, 24); fill-opacity: 1;"/><path class="point" transform="translate(53.19,605.73)" d="M7.5,0A7.5,7.5 0 1,1 0,-7.5A7.5,7.5 0 0,1 7.5,0Z" style="opacity: 0.75; stroke-width: 0px; fill: rgb(216, 82, 24); fill-opacity: 1;"/><path class="point" transform="translate(82.94,561.04)" d="M7.5,0A7.5,7.5 0 1,1 0,-7.5A7.5,7.5 0 0,1 7.5,0Z" style="opacity: 0.75; stroke-width: 0px; fill: rgb(216, 82, 24); fill-opacity: 1;"/><path class="point" transform="translate(130.67,519.15)" d="M7.5,0A7.5,7.5 0 1,1 0,-7.5A7.5,7.5 0 0,1 7.5,0Z" style="opacity: 0.75; stroke-width: 0px; fill: rgb(216, 82, 24); fill-opacity: 1;"/><path class="point" transform="translate(209,478.47)" d="M7.5,0A7.5,7.5 0 1,1 0,-7.5A7.5,7.5 0 0,1 7.5,0Z" style="opacity: 0.75; stroke-width: 0px; fill: rgb(216, 82, 24); fill-opacity: 1;"/><path class="point" transform="translate(297.64,446.9)" d="M7.5,0A7.5,7.5 0 1,1 0,-7.5A7.5,7.5 0 0,1 7.5,0Z" style="opacity: 0.75; stroke-width: 0px; fill: rgb(216, 82, 24); fill-opacity: 1;"/><path class="point" transform="translate(319.18,456.25)" d="M7.5,0A7.5,7.5 0 1,1 0,-7.5A7.5,7.5 0 0,1 7.5,0Z" style="opacity: 0.75; stroke-width: 0px; fill: rgb(216, 82, 24); fill-opacity: 1;"/><path class="point" transform="translate(388.86,479.7)" d="M7.5,0A7.5,7.5 0 1,1 0,-7.5A7.5,7.5 0 0,1 7.5,0Z" style="opacity: 0.75; stroke-width: 0px; fill: rgb(216, 82, 24); fill-opacity: 1;"/><path class="point" transform="translate(572.49,514.31)" d="M7.5,0A7.5,7.5 0 1,1 0,-7.5A7.5,7.5 0 0,1 7.5,0Z" style="opacity: 0.75; stroke-width: 0px; fill: rgb(216, 82, 24); fill-opacity: 1;"/><path class="point" transform="translate(810.93,534.91)" d="M7.5,0A7.5,7.5 0 1,1 0,-7.5A7.5,7.5 0 0,1 7.5,0Z" style="opacity: 0.75; stroke-width: 0px; fill: rgb(216, 82, 24); fill-opacity: 1;"/><path class="point" transform="translate(1071.86,545.59)" d="M7.5,0A7.5,7.5 0 1,1 0,-7.5A7.5,7.5 0 0,1 7.5,0Z" style="opacity: 0.75; stroke-width: 0px; fill: rgb(216, 82, 24); fill-opacity: 1;"/></g><g class="text"/></g><g class="trace scatter trace431cfd" style="stroke-miterlimit: 2; opacity: 1;"><g class="fills"/><g class="errorbars"/><g class="lines"><path class="js-line" d="M26.14,674.63L33.44,673.83L36.2,673.16L47.16,669L53.19,665.93L72.38,654.01L82.94,646.73L130.67,614.22L133.71,612.32L162.88,595.51L169.83,591.9L192.45,581.25L202.05,577.21L231.16,566.57L234.59,565.47L267.61,556.35L275.48,554.54L300.98,548.05L311.53,543.52L339.3,532.76L347.84,529.76L382.68,518.76L388.86,516.99L426.62,507.23L434.77,505.33L484.23,495.1L495.48,493.05L553.09,483.82L564.34,482.24L632.1,473.9L636.72,473.4L721.52,465.39L726.14,465.01L827.24,457.87L829.77,457.72L946.45,451.67L962.43,450.97L1071.86,446.9" style="vector-effect: non-scaling-stroke; fill: none; stroke: rgb(236, 176, 31); stroke-opacity: 1; stroke-width: 4px; opacity: 1;"/></g><g class="points"/><g class="text"/></g><g class="trace scatter tracecf6329" style="stroke-miterlimit: 2; opacity: 1;"><g class="fills"/><g class="errorbars"/><g class="lines"/><g class="points"><path class="point" transform="translate(26.14,674.63)" d="M7.5,0A7.5,7.5 0 1,1 0,-7.5A7.5,7.5 0 0,1 7.5,0Z" style="opacity: 0.75; stroke-width: 0px; fill: rgb(236, 176, 31); fill-opacity: 1;"/><path class="point" transform="translate(26.27,674.62)" d="M7.5,0A7.5,7.5 0 1,1 0,-7.5A7.5,7.5 0 0,1 7.5,0Z" style="opacity: 0.75; stroke-width: 0px; fill: rgb(236, 176, 31); fill-opacity: 1;"/><path class="point" transform="translate(28.42,674.53)" d="M7.5,0A7.5,7.5 0 1,1 0,-7.5A7.5,7.5 0 0,1 7.5,0Z" style="opacity: 0.75; stroke-width: 0px; fill: rgb(236, 176, 31); fill-opacity: 1;"/><path class="point" transform="translate(36.2,672.98)" d="M7.5,0A7.5,7.5 0 1,1 0,-7.5A7.5,7.5 0 0,1 7.5,0Z" style="opacity: 0.75; stroke-width: 0px; fill: rgb(236, 176, 31); fill-opacity: 1;"/><path class="point" transform="translate(53.19,664.93)" d="M7.5,0A7.5,7.5 0 1,1 0,-7.5A7.5,7.5 0 0,1 7.5,0Z" style="opacity: 0.75; stroke-width: 0px; fill: rgb(236, 176, 31); fill-opacity: 1;"/><path class="point" transform="translate(82.94,643.85)" d="M7.5,0A7.5,7.5 0 1,1 0,-7.5A7.5,7.5 0 0,1 7.5,0Z" style="opacity: 0.75; stroke-width: 0px; fill: rgb(236, 176, 31); fill-opacity: 1;"/><path class="point" transform="translate(130.67,608.86)" d="M7.5,0A7.5,7.5 0 1,1 0,-7.5A7.5,7.5 0 0,1 7.5,0Z" style="opacity: 0.75; stroke-width: 0px; fill: rgb(236, 176, 31); fill-opacity: 1;"/><path class="point" transform="translate(209,567.15)" d="M7.5,0A7.5,7.5 0 1,1 0,-7.5A7.5,7.5 0 0,1 7.5,0Z" style="opacity: 0.75; stroke-width: 0px; fill: rgb(236, 176, 31); fill-opacity: 1;"/><path class="point" transform="translate(297.64,541.74)" d="M7.5,0A7.5,7.5 0 1,1 0,-7.5A7.5,7.5 0 0,1 7.5,0Z" style="opacity: 0.75; stroke-width: 0px; fill: rgb(236, 176, 31); fill-opacity: 1;"/><path class="point" transform="translate(319.18,532.42)" d="M7.5,0A7.5,7.5 0 1,1 0,-7.5A7.5,7.5 0 0,1 7.5,0Z" style="opacity: 0.75; stroke-width: 0px; fill: rgb(236, 176, 31); fill-opacity: 1;"/><path class="point" transform="translate(388.86,508.96)" d="M7.5,0A7.5,7.5 0 1,1 0,-7.5A7.5,7.5 0 0,1 7.5,0Z" style="opacity: 0.75; stroke-width: 0px; fill: rgb(236, 176, 31); fill-opacity: 1;"/><path class="point" transform="translate(572.49,474.36)" d="M7.5,0A7.5,7.5 0 1,1 0,-7.5A7.5,7.5 0 0,1 7.5,0Z" style="opacity: 0.75; stroke-width: 0px; fill: rgb(236, 176, 31); fill-opacity: 1;"/><path class="point" transform="translate(810.93,453.76)" d="M7.5,0A7.5,7.5 0 1,1 0,-7.5A7.5,7.5 0 0,1 7.5,0Z" style="opacity: 0.75; stroke-width: 0px; fill: rgb(236, 176, 31); fill-opacity: 1;"/><path class="point" transform="translate(1071.86,443.08)" d="M7.5,0A7.5,7.5 0 1,1 0,-7.5A7.5,7.5 0 0,1 7.5,0Z" style="opacity: 0.75; stroke-width: 0px; fill: rgb(236, 176, 31); fill-opacity: 1;"/></g><g class="text"/></g></g></g><g class="overplot"/><path class="xlines-above crisp" d="M0,0" style="fill: none;"/><path class="ylines-above crisp" d="M0,0" style="fill: none;"/><g class="overlines-above"/><g class="xaxislayer-above"><g class="xtick"><text text-anchor="middle" x="0" y="845" transform="translate(116.14,0)" style="font-family: 'Open Sans', verdana, arial, sans-serif; font-size: 24px; fill: rgb(42, 63, 95); fill-opacity: 1; white-space: pre;">0</text></g><g class="xtick"><text text-anchor="middle" x="0" y="845" transform="translate(297.02,0)" style="font-family: 'Open Sans', verdana, arial, sans-serif; font-size: 24px; fill: rgb(42, 63, 95); fill-opacity: 1; white-space: pre;">10</text></g><g class="xtick"><text text-anchor="middle" x="0" y="845" transform="translate(477.89,0)" style="font-family: 'Open Sans', verdana, arial, sans-serif; font-size: 24px; fill: rgb(42, 63, 95); fill-opacity: 1; white-space: pre;">20</text></g><g class="xtick"><text text-anchor="middle" x="0" y="845" transform="translate(658.77,0)" style="font-family: 'Open Sans', verdana, arial, sans-serif; font-size: 24px; fill: rgb(42, 63, 95); fill-opacity: 1; white-space: pre;">30</text></g><g class="xtick"><text text-anchor="middle" x="0" y="845" transform="translate(839.64,0)" style="font-family: 'Open Sans', verdana, arial, sans-serif; font-size: 24px; fill: rgb(42, 63, 95); fill-opacity: 1; white-space: pre;">40</text></g><g class="xtick"><text text-anchor="middle" x="0" y="845" transform="translate(1020.52,0)" style="font-family: 'Open Sans', verdana, arial, sans-serif; font-size: 24px; fill: rgb(42, 63, 95); fill-opacity: 1; white-space: pre;">50</text></g></g><g class="yaxislayer-above"><g class="ytick"><text text-anchor="end" x="89" y="8.399999999999999" transform="translate(0,774.63)" style="font-family: 'Open Sans', verdana, arial, sans-serif; font-size: 24px; fill: rgb(42, 63, 95); fill-opacity: 1; white-space: pre;">0</text></g><g class="ytick"><text text-anchor="end" x="89" y="8.399999999999999" transform="translate(0,623.61)" style="font-family: 'Open Sans', verdana, arial, sans-serif; font-size: 24px; fill: rgb(42, 63, 95); fill-opacity: 1; white-space: pre;">0.5</text></g><g class="ytick"><text text-anchor="end" x="89" y="8.399999999999999" transform="translate(0,472.6)" style="font-family: 'Open Sans', verdana, arial, sans-serif; font-size: 24px; fill: rgb(42, 63, 95); fill-opacity: 1; white-space: pre;">1</text></g><g class="ytick"><text text-anchor="end" x="89" y="8.399999999999999" transform="translate(0,321.58000000000004)" style="font-family: 'Open Sans', verdana, arial, sans-serif; font-size: 24px; fill: rgb(42, 63, 95); fill-opacity: 1; white-space: pre;">1.5</text></g><g class="ytick"><text text-anchor="end" x="89" y="8.399999999999999" transform="translate(0,170.57)" style="font-family: 'Open Sans', verdana, arial, sans-serif; font-size: 24px; fill: rgb(42, 63, 95); fill-opacity: 1; white-space: pre;">2</text></g></g><g class="overaxes-above"/></g></g><g class="polarlayer"/><g class="ternarylayer"/><g class="geolayer"/><g class="funnelarealayer"/><g class="pielayer"/><g class="treemaplayer"/><g class="sunburstlayer"/><g class="glimages"/><defs id="topdefs-ca3a8d"><g class="clips"/><clipPath id="legendca3a8d"><rect width="178" height="278" x="0" y="0"/></clipPath></defs><g class="layer-above"><g class="imagelayer"/><g class="shapelayer"/></g><g class="infolayer"><g class="legend" pointer-events="all" transform="translate(1209.96,100)"><rect class="bg" shape-rendering="crispEdges" width="178" height="278" x="0" y="0" style="stroke: rgb(68, 68, 68); stroke-opacity: 1; fill: rgb(255, 255, 255); fill-opacity: 1; stroke-width: 0px;"/><g class="scrollbox" transform="" clip-path="url('#legendca3a8d')"><g class="groups"><g class="traces" transform="translate(0,27.3)" style="opacity: 1;"><text class="legendtext" text-anchor="start" x="40" y="12.48" style="font-family: 'Open Sans', verdana, arial, sans-serif; font-size: 32px; fill: rgb(42, 63, 95); fill-opacity: 1; white-space: pre;">A</text><g class="layers" style="opacity: 1;"><g class="legendfill"/><g class="legendlines"><path class="js-line" d="M5,0h30" style="fill: none; stroke: rgb(0, 113, 188); stroke-opacity: 1; stroke-width: 4px;"/></g><g class="legendsymbols"><g class="legendpoints"/></g></g><rect class="legendtoggle" x="0" y="-22.3" width="172.234375" height="44.6" style="fill: rgb(0, 0, 0); fill-opacity: 0;"/></g><g class="traces" transform="translate(0,71.9)" style="opacity: 1;"><text class="legendtext" text-anchor="start" x="40" y="12.48" style="font-family: 'Open Sans', verdana, arial, sans-serif; font-size: 32px; fill: rgb(42, 63, 95); fill-opacity: 1; white-space: pre;">A (exp.)</text><g class="layers" style="opacity: 1;"><g class="legendfill"/><g class="legendlines"/><g class="legendsymbols"><g class="legendpoints"><path class="scatterpts" transform="translate(20,0)" d="M7.5,0A7.5,7.5 0 1,1 0,-7.5A7.5,7.5 0 0,1 7.5,0Z" style="opacity: 0.75; stroke-width: 0px; fill: rgb(0, 113, 188); fill-opacity: 1;"/></g></g></g><rect class="legendtoggle" x="0" y="-22.3" width="172.234375" height="44.6" style="fill: rgb(0, 0, 0); fill-opacity: 0;"/></g><g class="traces" transform="translate(0,116.5)" style="opacity: 1;"><text class="legendtext" text-anchor="start" x="40" y="12.48" style="font-family: 'Open Sans', verdana, arial, sans-serif; font-size: 32px; fill: rgb(42, 63, 95); fill-opacity: 1; white-space: pre;">B</text><g class="layers" style="opacity: 1;"><g class="legendfill"/><g class="legendlines"><path class="js-line" d="M5,0h30" style="fill: none; stroke: rgb(216, 82, 24); stroke-opacity: 1; stroke-width: 4px;"/></g><g class="legendsymbols"><g class="legendpoints"/></g></g><rect class="legendtoggle" x="0" y="-22.3" width="172.234375" height="44.6" style="fill: rgb(0, 0, 0); fill-opacity: 0;"/></g><g class="traces" transform="translate(0,161.10000000000002)" style="opacity: 1;"><text class="legendtext" text-anchor="start" x="40" y="12.48" style="font-family: 'Open Sans', verdana, arial, sans-serif; font-size: 32px; fill: rgb(42, 63, 95); fill-opacity: 1; white-space: pre;">B (exp.)</text><g class="layers" style="opacity: 1;"><g class="legendfill"/><g class="legendlines"/><g class="legendsymbols"><g class="legendpoints"><path class="scatterpts" transform="translate(20,0)" d="M7.5,0A7.5,7.5 0 1,1 0,-7.5A7.5,7.5 0 0,1 7.5,0Z" style="opacity: 0.75; stroke-width: 0px; fill: rgb(216, 82, 24); fill-opacity: 1;"/></g></g></g><rect class="legendtoggle" x="0" y="-22.3" width="172.234375" height="44.6" style="fill: rgb(0, 0, 0); fill-opacity: 0;"/></g><g class="traces" transform="translate(0,205.70000000000002)" style="opacity: 1;"><text class="legendtext" text-anchor="start" x="40" y="12.48" style="font-family: 'Open Sans', verdana, arial, sans-serif; font-size: 32px; fill: rgb(42, 63, 95); fill-opacity: 1; white-space: pre;">C</text><g class="layers" style="opacity: 1;"><g class="legendfill"/><g class="legendlines"><path class="js-line" d="M5,0h30" style="fill: none; stroke: rgb(236, 176, 31); stroke-opacity: 1; stroke-width: 4px;"/></g><g class="legendsymbols"><g class="legendpoints"/></g></g><rect class="legendtoggle" x="0" y="-22.3" width="172.234375" height="44.6" style="fill: rgb(0, 0, 0); fill-opacity: 0;"/></g><g class="traces" transform="translate(0,250.3)" style="opacity: 1;"><text class="legendtext" text-anchor="start" x="40" y="12.48" style="font-family: 'Open Sans', verdana, arial, sans-serif; font-size: 32px; fill: rgb(42, 63, 95); fill-opacity: 1; white-space: pre;">C (exp.)</text><g class="layers" style="opacity: 1;"><g class="legendfill"/><g class="legendlines"/><g class="legendsymbols"><g class="legendpoints"><path class="scatterpts" transform="translate(20,0)" d="M7.5,0A7.5,7.5 0 1,1 0,-7.5A7.5,7.5 0 0,1 7.5,0Z" style="opacity: 0.75; stroke-width: 0px; fill: rgb(236, 176, 31); fill-opacity: 1;"/></g></g></g><rect class="legendtoggle" x="0" y="-22.3" width="172.234375" height="44.6" style="fill: rgb(0, 0, 0); fill-opacity: 0;"/></g></g></g><rect class="scrollbar" rx="20" ry="3" width="0" height="0" x="0" y="0" style="fill: rgb(128, 139, 164); fill-opacity: 1;"/></g><g class="g-gtitle"><text class="gtitle" x="70" y="50" text-anchor="start" dy="0em" style="font-family: 'Open Sans', verdana, arial, sans-serif; font-size: 32px; fill: rgb(42, 63, 95); opacity: 1; font-weight: normal; white-space: pre;">Model: fed_batch | Concentration Profiles</text></g><g class="g-xtitle"><text class="xtitle" x="639" y="887.4" text-anchor="middle" style="font-family: 'Open Sans', verdana, arial, sans-serif; font-size: 32px; fill: rgb(42, 63, 95); opacity: 1; font-weight: normal; white-space: pre;">Time [min]</text></g><g class="g-ytitle" transform="translate(19.650390625,0)"><text class="ytitle" transform="rotate(-90,12.349999999999994,460)" x="12.349999999999994" y="460" text-anchor="middle" style="font-family: 'Open Sans', verdana, arial, sans-serif; font-size: 32px; fill: rgb(42, 63, 95); opacity: 1; font-weight: normal; white-space: pre;">Concentration [mole / liter]</text></g></g></svg>