<svg class="main-svg" xmlns="http://www.w3.org/2000/svg" xmlns:xlink="http://www.w3.org/1999/xlink" width="1400" height="900" style="" viewBox="0 0 1400 900"><rect x="0" y="0" width="1400" height="900" style="fill: rgb(255, 255, 255); fill-opacity: 1;"/><defs id="defs-d6f466"><g class="clips"><clipPath id="clipd6f466xyplot" class="plotclip"><rect width="1054" height="720"/></clipPath><clipPath class="axesclip" id="clipd6f466x"><rect x="135" y="0" width="1054" height="900"/></clipPath><clipPath class="axesclip" id="clipd6f466y"><rect x="0" y="100" width="1400" height="720"/></clipPath><clipPath class="axesclip" id="clipd6f466xy"><rect x="135" y="100" width="1054" height="720"/></clipPath></g><g class="gradients"/></defs><g class="bglayer"><rect class="bg" x="135" y="100" width="1054" height="720" style="fill: rgb(229, 236, 246); fill-opacity: 1; stroke-width: 0;"/></g><g class="layer-below"><g class="imagelayer"/><g class="shapelayer"/></g><g class="cartesianlayer"><g class="subplot xy"><g class="layer-subplot"><g class="shapelayer"/><g class="imagelayer"/></g><g class="gridlayer"><g class="x"><path class="xgrid crisp" transform="translate(367.74,0)" d="M0,100v720" style="stroke: rgb(255, 255, 255); stroke-opacity: 1; stroke-width: 1px;"/><path class="xgrid crisp" transform="translate(575.38,0)" d="M0,100v720" style="stroke: rgb(255, 255, 255); stroke-opacity: 1; stroke-width: 1px;"/><path class="xgrid crisp" transform="translate(783.02,0)" d="M0,100v720" style="stroke: rgb(255, 255, 255); stroke-opacity: 1; stroke-width: 1px;"/><path class="xgrid crisp" transform="translate(990.67,0)" d="M0,100v720" style="stroke: rgb(255, 255, 255); stroke-opacity: 1; stroke-width: 1px;"/></g><g class="y"><path class="ygrid crisp" transform="translate(0,657.13)" d="M135,0h1054" style="stroke: rgb(255, 255, 255); stroke-opacity: 1; stroke-width: 1px;"/><path class="ygrid crisp" transform="translate(0,539.64)" d="M135,0h1054" style="stroke: rgb(255, 255, 255); stroke-opacity: 1; stroke-width: 1px;"/><path class="ygrid crisp" transform="translate(0,422.15)" d="M135,0h1054" style="stroke: rgb(255, 255, 255); stroke-opacity: 1; stroke-width: 1px;"/><path class="ygrid crisp" transform="translate(0,304.65)" d="M135,0h1054" style="stroke: rgb(255, 255, 255); stroke-opacity: 1; stroke-width: 1px;"/><path class="ygrid crisp" transform="translate(0,187.16)" d="M135,0h1054" style="stroke: rgb(255, 255, 255); stroke-opacity: 1; stroke-width: 1px;"/></g></g><g class="zerolinelayer"><path class="xzl zl crisp" transform="translate(160.1,0)" d="M0,100v720" style="stroke: rgb(78, 78, 78); stroke-opacity: 1; stroke-width: 2px;"/><path class="yzl zl crisp" transform="translate(0,774.63)" d="M135,0h1054" style="stroke: rgb(78, 78, 78); stroke-opacity: 1; stroke-width: 2px;"/></g><path class="xlines-below"/><path class="ylines-below"/><g class="overlines-below"/><g class="xaxislayer-below"/><g class="yaxislayer-below"/><g class="overaxes-below"/><g class="plot" transform="translate(135,100)" clip-path="url('#clipd6f466xyplot')"><g class="scatterlayer mlayer"><g class="trace scatter trace7ee25c" style="stroke-miterlimit: 2; opacity: 1;"><g class="fills"/><g class="errorbars"/><g class="lines"><path class="js-line" d="M25.1,87.16L59.71,129.87L62.39,133.05L97.01,172.42L105.49,181.62L140.1,217.46L146.24,223.54L183.54,258.78L192.02,266.39L232.78,301.11L235.46,303.29L272.76,332.29L289.72,344.72L336.62,376.79L339.31,378.53L382.4,405.09L388.54,408.67L428.17,430.69L440.46,437.14L486.24,459.7L492.39,462.56L538.16,482.71L544.31,485.26L590.08,503.25L596.23,505.53L642,521.59L648.15,523.63L702.75,540.58L711.23,543.04L771.98,559.36L780.46,561.47L841.21,575.51L849.69,577.33L912.77,589.83L925.06,592.07L999.66,604.47L1016.61,607.01L1028.9,608.8" style="vector-effect: non-scaling-stroke; fill: none; stroke: rgb(0, 113, 188); stroke-opacity: 1; stroke-width: 4px; opacity: 1;"/></g><g class="points"/><g class="text"/></g><g class="trace scatter tracebdafd9" style="stroke-miterlimit: 2; opacity: 1;"><g class="fills"/><g class="errorbars"/><g class="lines"/><g class="points"><path class="point" transform="translate(25.1,45.38)" d="M7.5,0A7.5,7.5 0 1,1 0,-7.5A7.5,7.5 0 0,1 7.5,0Z" style="opacity: 0.75; stroke-width: 0px; fill: rgb(0, 113, 188); fill-opacity: 1;"/><path class="point" transform="translate(59.71,173.51)" d="M7.5,0A7.5,7.5 0 1,1 0,-7.5A7.5,7.5 0 0,1 7.5,0Z" style="opacity: 0.75; stroke-width: 0px; fill: rgb(0, 113, 188); fill-opacity: 1;"/><path class="point" transform="translate(94.32,196.82)" d="M7.5,0A7.5,7.5 0 1,1 0,-7.5A7.5,7.5 0 0,1 7.5,0Z" style="opacity: 0.75; stroke-width: 0px; fill: rgb(0, 113, 188); fill-opacity: 1;"/><path class="point" transform="translate(128.94,174.7)" d="M7.5,0A7.5,7.5 0 1,1 0,-7.5A7.5,7.5 0 0,1 7.5,0Z" style="opacity: 0.75; stroke-width: 0px; fill: rgb(0, 113, 188); fill-opacity: 1;"/><path class="point" transform="translate(163.55,231.4)" d="M7.5,0A7.5,7.5 0 1,1 0,-7.5A7.5,7.5 0 0,1 7.5,0Z" style="opacity: 0.75; stroke-width: 0px; fill: rgb(0, 113, 188); fill-opacity: 1;"/><path class="point" transform="translate(198.17,229.4)" d="M7.5,0A7.5,7.5 0 1,1 0,-7.5A7.5,7.5 0 0,1 7.5,0Z" style="opacity: 0.75; stroke-width: 0px; fill: rgb(0, 113, 188); fill-opacity: 1;"/><path class="point" transform="translate(232.78,386.22)" d="M7.5,0A7.5,7.5 0 1,1 0,-7.5A7.5,7.5 0 0,1 7.5,0Z" style="opacity: 0.75; stroke-width: 0px; fill: rgb(0, 113, 188); fill-opacity: 1;"/><path class="point" transform="translate(267.39,403.52)" d="M7.5,0A7.5,7.5 0 1,1 0,-7.5A7.5,7.5 0 0,1 7.5,0Z" style="opacity: 0.75; stroke-width: 0px; fill: rgb(0, 113, 188); fill-opacity: 1;"/><path class="point" transform="translate(302.01,377.01)" d="M7.5,0A7.5,7.5 0 1,1 0,-7.5A7.5,7.5 0 0,1 7.5,0Z" style="opacity: 0.75; stroke-width: 0px; fill: rgb(0, 113, 188); fill-opacity: 1;"/><path class="point" transform="translate(336.62,437.62)" d="M7.5,0A7.5,7.5 0 1,1 0,-7.5A7.5,7.5 0 0,1 7.5,0Z" style="opacity: 0.75; stroke-width: 0px; fill: rgb(0, 113, 188); fill-opacity: 1;"/><path class="point" transform="translate(371.24,378.04)" d="M7.5,0A7.5,7.5 0 1,1 0,-7.5A7.5,7.5 0 0,1 7.5,0Z" style="opacity: 0.75; stroke-width: 0px; fill: rgb(0, 113, 188); fill-opacity: 1;"/><path class="point" transform="translate(405.85,439.33)" d="M7.5,0A7.5,7.5 0 1,1 0,-7.5A7.5,7.5 0 0,1 7.5,0Z" style="opacity: 0.75; stroke-width: 0px; fill: rgb(0, 113, 188); fill-opacity: 1;"/><path class="point" transform="translate(440.46,423.31)" d="M7.5,0A7.5,7.5 0 1,1 0,-7.5A7.5,7.5 0 0,1 7.5,0Z" style="opacity: 0.75; stroke-width: 0px; fill: rgb(0, 113, 188); fill-opacity: 1;"/><path class="point" transform="translate(475.08,463.95)" d="M7.5,0A7.5,7.5 0 1,1 0,-7.5A7.5,7.5 0 0,1 7.5,0Z" style="opacity: 0.75; stroke-width: 0px; fill: rgb(0, 113, 188); fill-opacity: 1;"/><path class="point" transform="translate(509.69,304.05)" d="M7.5,0A7.5,7.5 0 1,1 0,-7.5A7.5,7.5 0 0,1 7.5,0Z" style="opacity: 0.75; stroke-width: 0px; fill: rgb(0, 113, 188); fill-opacity: 1;"/><path class="point" transform="translate(544.31,516.8)" d="M7.5,0A7.5,7.5 0 1,1 0,-7.5A7.5,7.5 0 0,1 7.5,0Z" style="opacity: 0.75; stroke-width: 0px; fill: rgb(0, 113, 188); fill-opacity: 1;"/><path class="point" transform="translate(578.92,567.2)" d="M7.5,0A7.5,7.5 0 1,1 0,-7.5A7.5,7.5 0 0,1 7.5,0Z" style="opacity: 0.75; stroke-width: 0px; fill: rgb(0, 113, 188); fill-opacity: 1;"/><path class="point" transform="translate(613.54,514.09)" d="M7.5,0A7.5,7.5 0 1,1 0,-7.5A7.5,7.5 0 0,1 7.5,0Z" style="opacity: 0.75; stroke-width: 0px; fill: rgb(0, 113, 188); fill-opacity: 1;"/><path class="point" transform="translate(648.15,503.37)" d="M7.5,0A7.5,7.5 0 1,1 0,-7.5A7.5,7.5 0 0,1 7.5,0Z" style="opacity: 0.75; stroke-width: 0px; fill: rgb(0, 113, 188); fill-opacity: 1;"/><path class="point" transform="translate(682.76,560.14)" d="M7.5,0A7.5,7.5 0 1,1 0,-7.5A7.5,7.5 0 0,1 7.5,0Z" style="opacity: 0.75; stroke-width: 0px; fill: rgb(0, 113, 188); fill-opacity: 1;"/><path class="point" transform="translate(717.38,540.35)" d="M7.5,0A7.5,7.5 0 1,1 0,-7.5A7.5,7.5 0 0,1 7.5,0Z" style="opacity: 0.75; stroke-width: 0px; fill: rgb(0, 113, 188); fill-opacity: 1;"/><path class="point" transform="translate(751.99,499.6)" d="M7.5,0A7.5,7.5 0 1,1 0,-7.5A7.5,7.5 0 0,1 7.5,0Z" style="opacity: 0.75; stroke-width: 0px; fill: rgb(0, 113, 188); fill-opacity: 1;"/><path class="point" transform="translate(786.61,420.72)" d="M7.5,0A7.5,7.5 0 1,1 0,-7.5A7.5,7.5 0 0,1 7.5,0Z" style="opacity: 0.75; stroke-width: 0px; fill: rgb(0, 113, 188); fill-opacity: 1;"/><path class="point" transform="translate(821.22,555.42)" d="M7.5,0A7.5,7.5 0 1,1 0,-7.5A7.5,7.5 0 0,1 7.5,0Z" style="opacity: 0.75; stroke-width: 0px; fill: rgb(0, 113, 188); fill-opacity: 1;"/><path class="point" transform="translate(855.83,556.6)" d="M7.5,0A7.5,7.5 0 1,1 0,-7.5A7.5,7.5 0 0,1 7.5,0Z" style="opacity: 0.75; stroke-width: 0px; fill: rgb(0, 113, 188); fill-opacity: 1;"/><path class="point" transform="translate(890.45,541.58)" d="M7.5,0A7.5,7.5 0 1,1 0,-7.5A7.5,7.5 0 0,1 7.5,0Z" style="opacity: 0.75; stroke-width: 0px; fill: rgb(0, 113, 188); fill-opacity: 1;"/><path class="point" transform="translate(925.06,546.5)" d="M7.5,0A7.5,7.5 0 1,1 0,-7.5A7.5,7.5 0 0,1 7.5,0Z" style="opacity: 0.75; stroke-width: 0px; fill: rgb(0, 113, 188); fill-opacity: 1;"/><path class="point" transform="translate(959.68,570.41)" d="M7.5,0A7.5,7.5 0 1,1 0,-7.5A7.5,7.5 0 0,1 7.5,0Z" style="opacity: 0.75; stroke-width: 0px; fill: rgb(0, 113, 188); fill-opacity: 1;"/><path class="point" transform="translate(994.29,575.21)" d="M7.5,0A7.5,7.5 0 1,1 0,-7.5A7.5,7.5 0 0,1 7.5,0Z" style="opacity: 0.75; stroke-width: 0px; fill: rgb(0, 113, 188); fill-opacity: 1;"/><path class="point" transform="translate(1028.9,569.02)" d="M7.5,0A7.5,7.5 0 1,1 0,-7.5A7.5,7.5 0 0,1 7.5,0Z" style="opacity: 0.75; stroke-width: 0px; fill: rgb(0, 113, 188); fill-opacity: 1;"/></g><g class="text"/></g><g class="trace scatter tracec2edf3" style="stroke-miterlimit: 2; opacity: 1;"><g class="fills"/><g class="errorbars"/><g class="lines"><path class="js-line" d="M25.1,674.63L36.26,661.24L42.4,654.6L53.56,643.76L59.71,638.4L77.02,625.41L79.7,623.65L97.01,613.72L105.49,609.68L122.79,602.88L128.94,600.88L148.93,595.67L157.41,594L183.54,590.46L192.02,589.77L220.49,588.73L232.78,588.78L272.76,590.49L289.72,591.75L356.61,598.48L365.09,599.45L598.91,626.3L607.39,627.14L711.23,636.5L717.38,637L841.21,645.8L849.69,646.33L979.67,653.28L988.15,653.67L1028.9,655.45" style="vector-effect: non-scaling-stroke; fill: none; stroke: rgb(216, 82, 24); stroke-opacity: 1; stroke-width: 4px; opacity: 1;"/></g><g class="points"/><g class="text"/></g><g class="trace scatter traceb9db41" style="stroke-miterlimit: 2; opacity: 1;"><g class="fills"/><g class="errorbars"/><g class="lines"/><g class="points"><path class="point" transform="translate(25.1,672.51)" d="M7.5,0A7.5,7.5 0 1,1 0,-7.5A7.5,7.5 0 0,1 7.5,0Z" style="opacity: 0.75; stroke-width: 0px; fill: rgb(216, 82, 24); fill-opacity: 1;"/><path class="point" transform="translate(59.71,578.44)" d="M7.5,0A7.5,7.5 0 1,1 0,-7.5A7.5,7.5 0 0,1 7.5,0Z" style="opacity: 0.75; stroke-width: 0px; fill: rgb(216, 82, 24); fill-opacity: 1;"/><path class="point" transform="translate(94.32,615.22)" d="M7.5,0A7.5,7.5 0 1,1 0,-7.5A7.5,7.5 0 0,1 7.5,0Z" style="opacity: 0.75; stroke-width: 0px; fill: rgb(216, 82, 24); fill-opacity: 1;"/><path class="point" transform="translate(128.94,484.71)" d="M7.5,0A7.5,7.5 0 1,1 0,-7.5A7.5,7.5 0 0,1 7.5,0Z" style="opacity: 0.75; stroke-width: 0px; fill: rgb(216, 82, 24); fill-opacity: 1;"/><path class="point" transform="translate(163.55,447.67)" d="M7.5,0A7.5,7.5 0 1,1 0,-7.5A7.5,7.5 0 0,1 7.5,0Z" style="opacity: 0.75; stroke-width: 0px; fill: rgb(216, 82, 24); fill-opacity: 1;"/><path class="point" transform="translate(198.17,568.72)" d="M7.5,0A7.5,7.5 0 1,1 0,-7.5A7.5,7.5 0 0,1 7.5,0Z" style="opacity: 0.75; stroke-width: 0px; fill: rgb(216, 82, 24); fill-opacity: 1;"/><path class="point" transform="translate(232.78,565.82)" d="M7.5,0A7.5,7.5 0 1,1 0,-7.5A7.5,7.5 0 0,1 7.5,0Z" style="opacity: 0.75; stroke-width: 0px; fill: rgb(216, 82, 24); fill-opacity: 1;"/><path class="point" transform="translate(267.39,592.79)" d="M7.5,0A7.5,7.5 0 1,1 0,-7.5A7.5,7.5 0 0,1 7.5,0Z" style="opacity: 0.75; stroke-width: 0px; fill: rgb(216, 82, 24); fill-opacity: 1;"/><path class="point" transform="translate(302.01,608.9)" d="M7.5,0A7.5,7.5 0 1,1 0,-7.5A7.5,7.5 0 0,1 7.5,0Z" style="opacity: 0.75; stroke-width: 0px; fill: rgb(216, 82, 24); fill-opacity: 1;"/><path class="point" transform="translate(336.62,478.66)" d="M7.5,0A7.5,7.5 0 1,1 0,-7.5A7.5,7.5 0 0,1 7.5,0Z" style="opacity: 0.75; stroke-width: 0px; fill: rgb(216, 82, 24); fill-opacity: 1;"/><path class="point" transform="translate(371.24,582.9)" d="M7.5,0A7.5,7.5 0 1,1 0,-7.5A7.5,7.5 0 0,1 7.5,0Z" style="opacity: 0.75; stroke-width: 0px; fill: rgb(216, 82, 24); fill-opacity: 1;"/><path class="point" transform="translate(405.85,653.74)" d="M7.5,0A7.5,7.5 0 1,1 0,-7.5A7.5,7.5 0 0,1 7.5,0Z" style="opacity: 0.75; stroke-width: 0px; fill: rgb(216, 82, 24); fill-opacity: 1;"/><path class="point" transform="translate(440.46,551.61)" d="M7.5,0A7.5,7.5 0 1,1 0,-7.5A7.5,7.5 0 0,1 7.5,0Z" style="opacity: 0.75; stroke-width: 0px; fill: rgb(216, 82, 24); fill-opacity: 1;"/><path class="point" transform="translate(475.08,574.99)" d="M7.5,0A7.5,7.5 0 1,1 0,-7.5A7.5,7.5 0 0,1 7.5,0Z" style="opacity: 0.75; stroke-width: 0px; fill: rgb(216, 82, 24); fill-opacity: 1;"/><path class="point" transform="translate(509.69,642.75)" d="M7.5,0A7.5,7.5 0 1,1 0,-7.5A7.5,7.5 0 0,1 7.5,0Z" style="opacity: 0.75; stroke-width: 0px; fill: rgb(216, 82, 24); fill-opacity: 1;"/><path class="point" transform="translate(544.31,592.64)" d="M7.5,0A7.5,7.5 0 1,1 0,-7.5A7.5,7.5 0 0,1 7.5,0Z" style="opacity: 0.75; stroke-width: 0px; fill: rgb(216, 82, 24); fill-opacity: 1;"/><path class="point" transform="translate(578.92,630.84)" d="M7.5,0A7.5,7.5 0 1,1 0,-7.5A7.5,7.5 0 0,1 7.5,0Z" style="opacity: 0.75; stroke-width: 0px; fill: rgb(216, 82, 24); fill-opacity: 1;"/><path class="point" transform="translate(613.54,603.39)" d="M7.5,0A7.5,7.5 0 1,1 0,-7.5A7.5,7.5 0 0,1 7.5,0Z" style="opacity: 0.75; stroke-width: 0px; fill: rgb(216, 82, 24); fill-opacity: 1;"/><path class="point" transform="translate(648.15,523.34)" d="M7.5,0A7.5,7.5 0 1,1 0,-7.5A7.5,7.5 0 0,1 7.5,0Z" style="opacity: 0.75; stroke-width: 0px; fill: rgb(216, 82, 24); fill-opacity: 1;"/><path class="point" transform="translate(682.76,501.46)" d="M7.5,0A7.5,7.5 0 1,1 0,-7.5A7.5,7.5 0 0,1 7.5,0Z" style="opacity: 0.75; stroke-width: 0px; fill: rgb(216, 82, 24); fill-opacity: 1;"/><path class="point" transform="translate(717.38,582.05)" d="M7.5,0A7.5,7.5 0 1,1 0,-7.5A7.5,7.5 0 0,1 7.5,0Z" style="opacity: 0.75; stroke-width: 0px; fill: rgb(216, 82, 24); fill-opacity: 1;"/><path class="point" transform="translate(751.99,650.53)" d="M7.5,0A7.5,7.5 0 1,1 0,-7.5A7.5,7.5 0 0,1 7.5,0Z" style="opacity: 0.75; stroke-width: 0px; fill: rgb(216, 82, 24); fill-opacity: 1;"/><path class="point" transform="translate(786.61,559.77)" d="M7.5,0A7.5,7.5 0 1,1 0,-7.5A7.5,7.5 0 0,1 7.5,0Z" style="opacity: 0.75; stroke-width: 0px; fill: rgb(216, 82, 24); fill-opacity: 1;"/><path class="point" transform="translate(821.22,573.83)" d="M7.5,0A7.5,7.5 0 1,1 0,-7.5A7.5,7.5 0 0,1 7.5,0Z" style="opacity: 0.75; stroke-width: 0px; fill: rgb(216, 82, 24); fill-opacity: 1;"/><path class="point" transform="translate(855.83,598.65)" d="M7.5,0A7.5,7.5 0 1,1 0,-7.5A7.5,7.5 0 0,1 7.5,0Z" style="opacity: 0.75; stroke-width: 0px; fill: rgb(216, 82, 24); fill-opacity: 1;"/><path class="point" transform="translate(890.45,610.71)" d="M7.5,0A7.5,7.5 0 1,1 0,-7.5A7.5,7.5 0 0,1 7.5,0Z" style="opacity: 0.75; stroke-width: 0px; fill: rgb(216, 82, 24); fill-opacity: 1;"/><path class="point" transform="translate(925.06,626.39)" d="M7.5,0A7.5,7.5 0 1,1 0,-7.5A7.5,7.5 0 0,1 7.5,0Z" style="opacity: 0.75; stroke-width: 0px; fill: rgb(216, 82, 24); fill-opacity: 1;"/><path class="point" transform="translate(959.68,640.13)" d="M7.5,0A7.5,7.5 0 1,1 0,-7.5A7.5,7.5 0 0,1 7.5,0Z" style="opacity: 0.75; stroke-width: 0px; fill: rgb(216, 82, 24); fill-opacity: 1;"/><path class="point" transform="translate(994.29,672.94)" d="M7.5,0A7.5,7.5 0 1,1 0,-7.5A7.5,7.5 0 0,1 7.5,0Z" style="opacity: 0.75; stroke-width: 0px; fill: rgb(216, 82, 24); fill-opacity: 1;"/><path class="point" transform="translate(1028.9,674.63)" d="M7.5,0A7.5,7.5 0 1,1 0,-7.5A7.5,7.5 0 0,1 7.5,0Z" style="opacity: 0.75; stroke-width: 0px; fill: rgb(216, 82, 24); fill-opacity: 1;"/></g><g class="text"/></g><g class="trace scatter trace0ccf64" style="stroke-miterlimit: 2; opacity: 1;"><g class="fills"/><g class="errorbars"/><g class="lines"><path class="js-line" d="M25.1,674.63L36.26,673.89L42.4,672.89L53.56,670.13L59.71,668.14L77.02,660.96L79.7,659.66L97.01,650.27L105.49,645.11L131.62,627.41L140.1,621.21L174.71,594.31L180.86,589.35L322,474.54L330.48,468.03L373.92,435.87L382.4,429.83L428.17,398.7L440.46,390.76L486.24,362.74L492.39,359.16L538.16,333.81L544.31,330.58L590.08,307.75L596.23,304.85L642,284.35L648.15,281.75L693.93,263.37L700.07,261.04L751.99,242.5L754.68,241.59L808.93,224.41L821.22,220.78L884.3,203.64L890.45,202.09L947.39,188.68L959.68,186L1016.61,174.47L1028.9,172.16" style="vector-effect: non-scaling-stroke; fill: none; stroke: rgb(236, 176, 31); stroke-opacity: 1; stroke-width: 4px; opacity: 1;"/></g><g class="points"/><g class="text"/></g><g class="trace scatter trace47541b" style="stroke-miterlimit: 2; opacity: 1;"><g class="fills"/><g class="errorbars"/><g class="lines"/><g class="points"><path class="point" transform="translate(25.1,674.63)" d="M7.5,0A7.5,7.5 0 1,1 0,-7.5A7.5,7.5 0 0,1 7.5,0Z" style="opacity: 0.75; stroke-width: 0px; fill: rgb(236, 176, 31); fill-opacity: 1;"/><path class="point" transform="translate(59.71,674.63)" d="M7.5,0A7.5,7.5 0 1,1 0,-7.5A7.5,7.5 0 0,1 7.5,0Z" style="opacity: 0.75; stroke-width: 0px; fill: rgb(236, 176, 31); fill-opacity: 1;"/><path class="point" transform="translate(94.32,629.59)" d="M7.5,0A7.5,7.5 0 1,1 0,-7.5A7.5,7.5 0 0,1 7.5,0Z" style="opacity: 0.75; stroke-width: 0px; fill: rgb(236, 176, 31); fill-opacity: 1;"/><path class="point" transform="translate(128.94,627.05)" d="M7.5,0A7.5,7.5 0 1,1 0,-7.5A7.5,7.5 0 0,1 7.5,0Z" style="opacity: 0.75; stroke-width: 0px; fill: rgb(236, 176, 31); fill-opacity: 1;"/><path class="point" transform="translate(163.55,629.17)" d="M7.5,0A7.5,7.5 0 1,1 0,-7.5A7.5,7.5 0 0,1 7.5,0Z" style="opacity: 0.75; stroke-width: 0px; fill: rgb(236, 176, 31); fill-opacity: 1;"/><path class="point" transform="translate(198.17,455)" d="M7.5,0A7.5,7.5 0 1,1 0,-7.5A7.5,7.5 0 0,1 7.5,0Z" style="opacity: 0.75; stroke-width: 0px; fill: rgb(236, 176, 31); fill-opacity: 1;"/><path class="point" transform="translate(232.78,498.57)" d="M7.5,0A7.5,7.5 0 1,1 0,-7.5A7.5,7.5 0 0,1 7.5,0Z" style="opacity: 0.75; stroke-width: 0px; fill: rgb(236, 176, 31); fill-opacity: 1;"/><path class="point" transform="translate(267.39,638.15)" d="M7.5,0A7.5,7.5 0 1,1 0,-7.5A7.5,7.5 0 0,1 7.5,0Z" style="opacity: 0.75; stroke-width: 0px; fill: rgb(236, 176, 31); fill-opacity: 1;"/><path class="point" transform="translate(302.01,443.08)" d="M7.5,0A7.5,7.5 0 1,1 0,-7.5A7.5,7.5 0 0,1 7.5,0Z" style="opacity: 0.75; stroke-width: 0px; fill: rgb(236, 176, 31); fill-opacity: 1;"/><path class="point" transform="translate(336.62,446.18)" d="M7.5,0A7.5,7.5 0 1,1 0,-7.5A7.5,7.5 0 0,1 7.5,0Z" style="opacity: 0.75; stroke-width: 0px; fill: rgb(236, 176, 31); fill-opacity: 1;"/><path class="point" transform="translate(371.24,348.58)" d="M7.5,0A7.5,7.5 0 1,1 0,-7.5A7.5,7.5 0 0,1 7.5,0Z" style="opacity: 0.75; stroke-width: 0px; fill: rgb(236, 176, 31); fill-opacity: 1;"/><path class="point" transform="translate(405.85,401.81)" d="M7.5,0A7.5,7.5 0 1,1 0,-7.5A7.5,7.5 0 0,1 7.5,0Z" style="opacity: 0.75; stroke-width: 0px; fill: rgb(236, 176, 31); fill-opacity: 1;"/><path class="point" transform="translate(440.46,280.2)" d="M7.5,0A7.5,7.5 0 1,1 0,-7.5A7.5,7.5 0 0,1 7.5,0Z" style="opacity: 0.75; stroke-width: 0px; fill: rgb(236, 176, 31); fill-opacity: 1;"/><path class="point" transform="translate(475.08,229.04)" d="M7.5,0A7.5,7.5 0 1,1 0,-7.5A7.5,7.5 0 0,1 7.5,0Z" style="opacity: 0.75; stroke-width: 0px; fill: rgb(236, 176, 31); fill-opacity: 1;"/><path class="point" transform="translate(509.69,315.81)" d="M7.5,0A7.5,7.5 0 1,1 0,-7.5A7.5,7.5 0 0,1 7.5,0Z" style="opacity: 0.75; stroke-width: 0px; fill: rgb(236, 176, 31); fill-opacity: 1;"/><path class="point" transform="translate(544.31,335.15)" d="M7.5,0A7.5,7.5 0 1,1 0,-7.5A7.5,7.5 0 0,1 7.5,0Z" style="opacity: 0.75; stroke-width: 0px; fill: rgb(236, 176, 31); fill-opacity: 1;"/><path class="point" transform="translate(578.92,370.08)" d="M7.5,0A7.5,7.5 0 1,1 0,-7.5A7.5,7.5 0 0,1 7.5,0Z" style="opacity: 0.75; stroke-width: 0px; fill: rgb(236, 176, 31); fill-opacity: 1;"/><path class="point" transform="translate(613.54,342.07)" d="M7.5,0A7.5,7.5 0 1,1 0,-7.5A7.5,7.5 0 0,1 7.5,0Z" style="opacity: 0.75; stroke-width: 0px; fill: rgb(236, 176, 31); fill-opacity: 1;"/><path class="point" transform="translate(648.15,240.16)" d="M7.5,0A7.5,7.5 0 1,1 0,-7.5A7.5,7.5 0 0,1 7.5,0Z" style="opacity: 0.75; stroke-width: 0px; fill: rgb(236, 176, 31); fill-opacity: 1;"/><path class="point" transform="translate(682.76,254.84)" d="M7.5,0A7.5,7.5 0 1,1 0,-7.5A7.5,7.5 0 0,1 7.5,0Z" style="opacity: 0.75; stroke-width: 0px; fill: rgb(236, 176, 31); fill-opacity: 1;"/><path class="point" transform="translate(717.38,220.62)" d="M7.5,0A7.5,7.5 0 1,1 0,-7.5A7.5,7.5 0 0,1 7.5,0Z" style="opacity: 0.75; stroke-width: 0px; fill: rgb(236, 176, 31); fill-opacity: 1;"/><path class="point" transform="translate(751.99,218.47)" d="M7.5,0A7.5,7.5 0 1,1 0,-7.5A7.5,7.5 0 0,1 7.5,0Z" style="opacity: 0.75; stroke-width: 0px; fill: rgb(236, 176, 31); fill-opacity: 1;"/><path class="point" transform="translate(786.61,222.62)" d="M7.5,0A7.5,7.5 0 1,1 0,-7.5A7.5,7.5 0 0,1 7.5,0Z" style="opacity: 0.75; stroke-width: 0px; fill: rgb(236, 176, 31); fill-opacity: 1;"/><path class="point" transform="translate(821.22,244.71)" d="M7.5,0A7.5,7.5 0 1,1 0,-7.5A7.5,7.5 0 0,1 7.5,0Z" style="opacity: 0.75; stroke-width: 0px; fill: rgb(236, 176, 31); fill-opacity: 1;"/><path class="point" transform="translate(855.83,161.2)" d="M7.5,0A7.5,7.5 0 1,1 0,-7.5A7.5,7.5 0 0,1 7.5,0Z" style="opacity: 0.75; stroke-width: 0px; fill: rgb(236, 176, 31); fill-opacity: 1;"/><path class="point" transform="translate(890.45,260.51)" d="M7.5,0A7.5,7.5 0 1,1 0,-7.5A7.5,7.5 0 0,1 7.5,0Z" style="opacity: 0.75; stroke-width: 0px; fill: rgb(236, 176, 31); fill-opacity: 1;"/><path class="point" transform="translate(925.06,125.55)" d="M7.5,0A7.5,7.5 0 1,1 0,-7.5A7.5,7.5 0 0,1 7.5,0Z" style="opacity: 0.75; stroke-width: 0px; fill: rgb(236, 176, 31); fill-opacity: 1;"/><path class="point" transform="translate(959.68,158.85)" d="M7.5,0A7.5,7.5 0 1,1 0,-7.5A7.5,7.5 0 0,1 7.5,0Z" style="opacity: 0.75; stroke-width: 0px; fill: rgb(236, 176, 31); fill-opacity: 1;"/><path class="point" transform="translate(994.29,191.63)" d="M7.5,0A7.5,7.5 0 1,1 0,-7.5A7.5,7.5 0 0,1 7.5,0Z" style="opacity: 0.75; stroke-width: 0px; fill: rgb(236, 176, 31); fill-opacity: 1;"/><path class="point" transform="translate(1028.9,151.81)" d="M7.5,0A7.5,7.5 0 1,1 0,-7.5A7.5,7.5 0 0,1 7.5,0Z" style="opacity: 0.75; stroke-width: 0px; fill: rgb(236, 176, 31); fill-opacity: 1;"/></g><g class="text"/></g></g></g><g class="overplot"/><path class="xlines-above crisp" d="M0,0" style="fill: none;"/><path class="ylines-above crisp" d="M0,0" style="fill: none;"/><g class="overlines-above"/><g class="xaxislayer-above"><g class="xtick"><text text-anchor="middle" x="0" y="845" transform="translate(160.1,0)" style="font-family: 'Open Sans', verdana, arial, sans-serif; font-size: 24px; fill: rgb(42, 63, 95); fill-opacity: 1; white-space: pre;">0</text></g><g class="xtick"><text text-anchor="middle" x="0" y="845" transform="translate(367.74,0)" style="font-family: 'Open Sans', verdana, arial, sans-serif; font-size: 24px; fill: rgb(42, 63, 95); fill-opacity: 1; white-space: pre;">2</text></g><g class="xtick"><text text-anchor="middle" x="0" y="845" transform="translate(575.38,0)" style="font-family: 'Open Sans', verdana, arial, sans-serif; font-size: 24px; fill: rgb(42, 63, 95); fill-opacity: 1; white-space: pre;">4</text></g><g class="xtick"><text text-anchor="middle" x="0" y="845" transform="translate(783.02,0)" style="font-family: 'Open Sans', verdana, arial, sans-serif; font-size: 24px; fill: rgb(42, 63, 95); fill-opacity: 1; white-space: pre;">6</text></g><g class="xtick"><text text-anchor="middle" x="0" y="845" transform="translate(990.67,0)" style="font-family: 'Open Sans', verdana, arial, sans-serif; font-size: 24px; fill: rgb(42, 63, 95); fill-opacity: 1; white-space: pre;">8</text></g></g><g class="yaxislayer-above"><g class="ytick"><text text-anchor="end" x="134" y="8.399999999999999" transform="translate(0,774.63)" style="font-family: 'Open Sans', verdana, arial, sans-serif; font-size: 24px; fill: rgb(42, 63, 95); fill-opacity: 1; white-space: pre;">0</text></g><g class="ytick"><text text-anchor="end" x="134" y="8.399999999999999" transform="translate(0,657.13)" style="font-family: 'Open Sans', verdana, arial, sans-serif; font-size: 24px; fill: rgb(42, 63, 95); fill-opacity: 1; white-space: pre;">0.0002</text></g><g class="ytick"><text text-anchor="end" x="134" y="8.399999999999999" transform="translate(0,539.64)" style="font-family: 'Open Sans', verdana, arial, sans-serif; font-size: 24px; fill: rgb(42, 63, 95); fill-opacity: 1; white-space: pre;">0.0004</text></g><g class="ytick"><text text-anchor="end" x="134" y="8.399999999999999" transform="translate(0,422.15)" style="font-family: 'Open Sans', verdana, arial, sans-serif; font-size: 24px; fill: rgb(42, 63, 95); fill-opacity: 1; white-space: pre;">0.0006</text></g><g class="ytick"><text text-anchor="end" x="134" y="8.399999999999999" transform="translate(0,304.65)" style="font-family: 'Open Sans', verdana, arial, sans-serif; font-size: 24px; fill: rgb(42, 63, 95); fill-opacity: 1; white-space: pre;">0.0008</text></g><g class="ytick"><text text-anchor="end" x="134" y="8.399999999999999" transform="translate(0,187.16)" style="font-family: 'Open Sans', verdana, arial, sans-serif; font-size: 24px; fill: rgb(42, 63, 95); fill-opacity: 1; white-space: pre;">0.001</text></g></g><g class="overaxes-above"/></g></g><g class="polarlayer"/><g class="ternarylayer"/><g class="geolayer"/><g class="funnelarealayer"/><g class="pielayer"/><g class="treemaplayer"/><g class="sunburstlayer"/><g class="glimages"/><defs id="topdefs-d6f466"><g class="clips"/><clipPath id="legendd6f466"><rect width="178" height="278" x="0" y="0"/></clipPath></defs><g class="layer-above"><g class="imagelayer"/><g class="shapelayer"/></g><g class="infolayer"><g class="legend" pointer-events="all" transform="translate(1210.08,100)"><rect class="bg" shape-rendering="crispEdges" width="178" height="278" x="0" y="0" style="stroke: rgb(68, 68, 68); stroke-opacity: 1; fill: rgb(255, 255, 255); fill-opacity: 1; stroke-width: 0px;"/><g class="scrollbox" transform="" clip-path="url('#legendd6f466')"><g class="groups"><g class="traces" transform="translate(0,27.3)" style="opacity: 1;"><text class="legendtext" text-anchor="start" x="40" y="12.48" style="font-family: 'Open Sans', verdana, arial, sans-serif; font-size: 32px; fill: rgb(42, 63, 95); fill-opacity: 1; white-space: pre;">A</text><g class="layers" style="opacity: 1;"><g class="legendfill"/><g class="legendlines"><path class="js-line" d="M5,0h30" style="fill: none; stroke: rgb(0, 113, 188); stroke-opacity: 1; stroke-width: 4px;"/></g><g class="legendsymbols"><g class="legendpoints"/></g></g><rect class="legendtoggle" x="0" y="-22.3" width="172.234375" height="44.6" style="fill: rgb(0, 0, 0); fill-opacity: 0;"/></g><g class="traces" transform="translate(0,71.9)" style="opacity: 1;"><text class="legendtext" text-anchor="start" x="40" y="12.48" style="font-family: 'Open Sans', verdana, arial, sans-serif; font-size: 32px; fill: rgb(42, 63, 95); fill-opacity: 1; white-space: pre;">A (exp.)</text><g class="layers" style="opacity: 1;"><g class="legendfill"/><g class="legendlines"/><g class="legendsymbols"><g class="legendpoints"><path class="scatterpts" transform="translate(20,0)" d="M7.5,0A7.5,7.5 0 1,1 0,-7.5A7.5,7.5 0 0,1 7.5,0Z" style="opacity: 0.75; stroke-width: 0px; fill: rgb(0, 113, 188); fill-opacity: 1;"/></g></g></g><rect class="legendtoggle" x="0" y="-22.3" width="172.234375" height="44.6" style="fill: rgb(0, 0, 0); fill-opacity: 0;"/></g><g class="traces" transform="translate(0,116.5)" style="opacity: 1;"><text class="legendtext" text-anchor="start" x="40" y="12.48" style="font-family: 'Open Sans', verdana, arial, sans-serif; font-size: 32px; fill: rgb(42, 63, 95); fill-opacity: 1; white-space: pre;">B</text><g class="layers" style="opacity: 1;"><g class="legendfill"/><g class="legendlines"><path class="js-line" d="M5,0h30" style="fill: none; stroke: rgb(216, 82, 24); stroke-opacity: 1; stroke-width: 4px;"/></g><g class="legendsymbols"><g class="legendpoints"/></g></g><rect class="legendtoggle" x="0" y="-22.3" width="172.234375" height="44.6" style="fill: rgb(0, 0, 0); fill-opacity: 0;"/></g><g class="traces" transform="translate(0,161.10000000000002)" style="opacity: 1;"><text class="legendtext" text-anchor="start" x="40" y="12.48" style="font-family: 'Open Sans', verdana, arial, sans-serif; font-size: 32px; fill: rgb(42, 63, 95); fill-opacity: 1; white-space: pre;">B (exp.)</text><g class="layers" style="opacity: 1;"><g class="legendfill"/><g class="legendlines"/><g class="legendsymbols"><g class="legendpoints"><path class="scatterpts" transform="translate(20,0)" d="M7.5,0A7.5,7.5 0 1,1 0,-7.5A7.5,7.5 0 0,1 7.5,0Z" style="opacity: 0.75; stroke-width: 0px; fill: rgb(216, 82, 24); fill-opacity: 1;"/></g></g></g><rect class="legendtoggle" x="0" y="-22.3" width="172.234375" height="44.6" style="fill: rgb(0, 0, 0); fill-opacity: 0;"/></g><g class="traces" transform="translate(0,205.70000000000002)" style="opacity: 1;"><text class="legendtext" text-anchor="start" x="40" y="12.48" style="font-family: 'Open Sans', verdana, arial, sans-serif; font-size: 32px; fill: rgb(42, 63, 95); fill-opacity: 1; white-space: pre;">C</text><g class="layers" style="opacity: 1;"><g class="legendfill"/><g class="legendlines"><path class="js-line" d="M5,0h30" style="fill: none; stroke: rgb(236, 176, 31); stroke-opacity: 1; stroke-width: 4px;"/></g><g class="legendsymbols"><g class="legendpoints"/></g></g><rect class="legendtoggle" x="0" y="-22.3" width="172.234375" height="44.6" style="fill: rgb(0, 0, 0); fill-opacity: 0;"/></g><g class="traces" transform="translate(0,250.3)" style="opacity: 1;"><text class="legendtext" text-anchor="start" x="40" y="12.48" style="font-family: 'Open Sans', verdana, arial, sans-serif; font-size: 32px; fill: rgb(42, 63, 95); fill-opacity: 1; white-space: pre;">C (exp.)</text><g class="layers" style="opacity: 1;"><g class="legendfill"/><g class="legendlines"/><g class="legendsymbols"><g class="legendpoints"><path class="scatterpts" transform="translate(20,0)" d="M7.5,0A7.5,7.5 0 1,1 0,-7.5A7.5,7.5 0 0,1 7.5,0Z" style="opacity: 0.75; stroke-width: 0px; fill: rgb(236, 176, 31); fill-opacity: 1;"/></g></g></g><rect class="legendtoggle" x="0" y="-22.3" width="172.234375" height="44.6" style="fill: rgb(0, 0, 0); fill-opacity: 0;"/></g></g></g><rect class="scrollbar" rx="20" ry="3" width="0" height="0" x="0" y="0" style="fill: rgb(128, 139, 164); fill-opacity: 1;"/></g><g class="g-gtitle"><text class="gtitle" x="70" y="50" text-anchor="start" dy="0em" style="font-family: 'Open Sans', verdana, arial, sans-serif; font-size: 32px; fill: rgb(42, 63, 95); opacity: 1; font-weight: normal; white-space: pre;">Model: reaction-2 | Concentration Profiles</text></g><g class="g-xtitle"><text class="xtitle" x="662" y="887.4" text-anchor="middle" style="font-family: 'Open Sans', verdana, arial, sans-serif; font-size: 32px; fill: rgb(42, 63, 95); opacity: 1; font-weight: normal; white-space: pre;">Time [hr]</text></g><g class="g-ytitle" transform="translate(20.431640625,0)"><text class="ytitle" transform="rotate(-90,11.568749999999994,460)" x="11.568749999999994" y="460" text-anchor="middle" style="font-family: 'Open Sans', verdana, arial, sans-serif; font-size: 32px; fill: rgb(42, 63, 95); opacity: 1; font-weight: normal; white-space: pre;">Concentration [dimensionless]</text></g></g></svg>