<svg class="main-svg" xmlns="http://www.w3.org/2000/svg" xmlns:xlink="http://www.w3.org/1999/xlink" width="1400" height="900" style="" viewBox="0 0 1400 900"><rect x="0" y="0" width="1400" height="900" style="fill: rgb(255, 255, 255); fill-opacity: 1;"/><defs id="defs-0080d7"><g class="clips"><clipPath id="clip0080d7xyplot" class="plotclip"><rect width="1200" height="720"/></clipPath><clipPath class="axesclip" id="clip0080d7x"><rect x="96" y="0" width="1200" height="900"/></clipPath><clipPath class="axesclip" id="clip0080d7y"><rect x="0" y="100" width="1400" height="720"/></clipPath><clipPath class="axesclip" id="clip0080d7xy"><rect x="96" y="100" width="1200" height="720"/></clipPath></g><g class="gradients"/></defs><g class="bglayer"><rect class="bg" x="96" y="100" width="1200" height="720" style="fill: rgb(229, 236, 246); fill-opacity: 1; stroke-width: 0;"/></g><g class="layer-below"><g class="imagelayer"/><g class="shapelayer"/></g><g class="cartesianlayer"><g class="subplot xy"><g class="layer-subplot"><g class="shapelayer"/><g class="imagelayer"/></g><g class="gridlayer"><g class="x"><path class="xgrid crisp" transform="translate(112.67,0)" d="M0,100v720" style="stroke: rgb(255, 255, 255); stroke-opacity: 1; stroke-width: 1px;"/><path class="xgrid crisp" transform="translate(350.76,0)" d="M0,100v720" style="stroke: rgb(255, 255, 255); stroke-opacity: 1; stroke-width: 1px;"/><path class="xgrid crisp" transform="translate(588.86,0)" d="M0,100v720" style="stroke: rgb(255, 255, 255); stroke-opacity: 1; stroke-width: 1px;"/><path class="xgrid crisp" transform="translate(826.95,0)" d="M0,100v720" style="stroke: rgb(255, 255, 255); stroke-opacity: 1; stroke-width: 1px;"/><path class="xgrid crisp" transform="translate(1065.05,0)" d="M0,100v720" style="stroke: rgb(255, 255, 255); stroke-opacity: 1; stroke-width: 1px;"/></g><g class="y"><path class="ygrid crisp" transform="translate(0,627.05)" d="M96,0h1200" style="stroke: rgb(255, 255, 255); stroke-opacity: 1; stroke-width: 1px;"/><path class="ygrid crisp" transform="translate(0,470.09)" d="M96,0h1200" style="stroke: rgb(255, 255, 255); stroke-opacity: 1; stroke-width: 1px;"/><path class="ygrid crisp" transform="translate(0,313.14)" d="M96,0h1200" style="stroke: rgb(255, 255, 255); stroke-opacity: 1; stroke-width: 1px;"/><path class="ygrid crisp" transform="translate(0,156.19)" d="M96,0h1200" style="stroke: rgb(255, 255, 255); stroke-opacity: 1; stroke-width: 1px;"/></g></g><g class="zerolinelayer"><path class="yzl zl crisp" transform="translate(0,784)" d="M96,0h1200" style="stroke: rgb(78, 78, 78); stroke-opacity: 1; stroke-width: 2px;"/></g><path class="xlines-below"/><path class="ylines-below"/><g class="overlines-below"/><g class="xaxislayer-below"/><g class="yaxislayer-below"/><g class="overaxes-below"/><g class="plot" transform="translate(96,100)" clip-path="url('#clip0080d7xyplot')"><g class="scatterlayer mlayer"><g class="trace scatter trace2deace" style="stroke-miterlimit: 2; opacity: 1;"><g class="fills"/><g class="errorbars"/><g class="lines"><path class="js-line" d="M28.57,449.9L76.19,427.64L123.81,420.27L171.43,441.33L219.05,439.93L266.67,440.1L314.29,461.47L361.9,473.67L409.52,482.97L457.14,463.73L504.76,438.9L552.38,458.63L600,430.63L647.62,380.33L695.24,379.17L742.86,339.55L790.48,302.4L838.1,301.73L885.71,323.18L933.33,348.7L980.95,309.42L1028.57,309.03L1076.19,259.76L1123.81,292.67L1171.43,283.07" style="vector-effect: non-scaling-stroke; fill: none; stroke: rgb(0, 113, 188); stroke-opacity: 1; stroke-width: 4px; opacity: 1;"/></g><g class="points"/><g class="text"/></g><g class="trace scatter trace40dab1" style="stroke-miterlimit: 2; opacity: 1;"><g class="fills"/><g class="errorbars"/><g class="lines"><path class="js-line" d="M28.57,360.4L76.19,581.94L123.81,684L171.43,575.87L219.05,548.8L266.67,507.62L314.29,431.95L361.9,390.84L409.52,371L457.14,142.53L504.76,36L552.38,95.26L600,303.63L647.62,379.39L695.24,119.17L742.86,138.77L790.48,342.6L838.1,464.5L885.71,465.24L933.33,427.14L980.95,435.41L1028.57,242.54L1076.19,346.78L1123.81,133.4L1171.43,191.25" style="vector-effect: non-scaling-stroke; fill: none; stroke: rgb(216, 82, 24); stroke-opacity: 1; stroke-width: 4px; opacity: 1;"/></g><g class="points"/><g class="text"/></g><g class="trace scatter tracee2d871" style="stroke-miterlimit: 2; opacity: 1;"><g class="fills"/><g class="errorbars"/><g class="lines"><path class="js-line" d="M28.57,406.42L76.19,422.91L123.81,440.95L171.43,445.39L219.05,446.71L266.67,442.45L314.29,457.74L361.9,470.22L409.52,487.68L457.14,460.68L504.76,369.35L552.38,416.06L600,410.88L647.62,394.88L695.24,335.25L742.86,292.79L790.48,301.04L838.1,319.96L885.71,347.06L933.33,375.13L980.95,328.54L1028.57,306.32L1076.19,274.99L1123.81,267.45L1171.43,271.67" style="vector-effect: non-scaling-stroke; fill: none; stroke: rgb(236, 176, 31); stroke-opacity: 1; stroke-width: 4px; opacity: 1;"/></g><g class="points"/><g class="text"/></g></g></g><g class="overplot"/><path class="xlines-above crisp" d="M0,0" style="fill: none;"/><path class="ylines-above crisp" d="M0,0" style="fill: none;"/><g class="overlines-above"/><g class="xaxislayer-above"><g class="xtick"><text text-anchor="middle" x="0" y="845" transform="translate(112.67,0)" style="font-family: 'Open Sans', verdana, arial, sans-serif; font-size: 24px; fill: rgb(42, 63, 95); fill-opacity: 1; white-space: pre;">1600</text></g><g class="xtick"><text text-anchor="middle" x="0" y="845" transform="translate(350.76,0)" style="font-family: 'Open Sans', verdana, arial, sans-serif; font-size: 24px; fill: rgb(42, 63, 95); fill-opacity: 1; white-space: pre;">1800</text></g><g class="xtick"><text text-anchor="middle" x="0" y="845" transform="translate(588.86,0)" style="font-family: 'Open Sans', verdana, arial, sans-serif; font-size: 24px; fill: rgb(42, 63, 95); fill-opacity: 1; white-space: pre;">2000</text></g><g class="xtick"><text text-anchor="middle" x="0" y="845" transform="translate(826.95,0)" style="font-family: 'Open Sans', verdana, arial, sans-serif; font-size: 24px; fill: rgb(42, 63, 95); fill-opacity: 1; white-space: pre;">2200</text></g><g class="xtick"><text text-anchor="middle" x="0" y="845" transform="translate(1065.05,0)" style="font-family: 'Open Sans', verdana, arial, sans-serif; font-size: 24px; fill: rgb(42, 63, 95); fill-opacity: 1; white-space: pre;">2400</text></g></g><g class="yaxislayer-above"><g class="ytick"><text text-anchor="end" x="95" y="8.399999999999999" transform="translate(0,784)" style="font-family: 'Open Sans', verdana, arial, sans-serif; font-size: 24px; fill: rgb(42, 63, 95); fill-opacity: 1; white-space: pre;">0</text></g><g class="ytick"><text text-anchor="end" x="95" y="8.399999999999999" transform="translate(0,627.05)" style="font-family: 'Open Sans', verdana, arial, sans-serif; font-size: 24px; fill: rgb(42, 63, 95); fill-opacity: 1; white-space: pre;">50</text></g><g class="ytick"><text text-anchor="end" x="95" y="8.399999999999999" transform="translate(0,470.09)" style="font-family: 'Open Sans', verdana, arial, sans-serif; font-size: 24px; fill: rgb(42, 63, 95); fill-opacity: 1; white-space: pre;">100</text></g><g class="ytick"><text text-anchor="end" x="95" y="8.399999999999999" transform="translate(0,313.14)" style="font-family: 'Open Sans', verdana, arial, sans-serif; font-size: 24px; fill: rgb(42, 63, 95); fill-opacity: 1; white-space: pre;">150</text></g><g class="ytick"><text text-anchor="end" x="95" y="8.399999999999999" transform="translate(0,156.19)" style="font-family: 'Open Sans', verdana, arial, sans-serif; font-size: 24px; fill: rgb(42, 63, 95); fill-opacity: 1; white-space: pre;">200</text></g></g><g class="overaxes-above"/></g></g><g class="polarlayer"/><g class="ternarylayer"/><g class="geolayer"/><g class="funnelarealayer"/><g class="pielayer"/><g class="treemaplayer"/><g class="sunburstlayer"/><g class="glimages"/><defs id="topdefs-0080d7"><g class="clips"/><clipPath id="legend0080d7"><rect width="68" height="144" x="0" y="0"/></clipPath></defs><g class="layer-above"><g class="imagelayer"/><g class="shapelayer"/></g><g class="infolayer"><g class="legend" pointer-events="all" transform="translate(1320,100)"><rect class="bg" shape-rendering="crispEdges" width="68" height="144" x="0" y="0" style="stroke: rgb(68, 68, 68); stroke-opacity: 1; fill: rgb(255, 255, 255); fill-opacity: 1; stroke-width: 0px;"/><g class="scrollbox" transform="" clip-path="url('#legend0080d7')"><g class="groups"><g class="traces" transform="translate(0,27.3)" style="opacity: 1;"><text class="legendtext" text-anchor="start" x="40" y="12.48" style="font-family: 'Open Sans', verdana, arial, sans-serif; font-size: 32px; fill: rgb(42, 63, 95); fill-opacity: 1; white-space: pre;">A</text><g class="layers" style="opacity: 1;"><g class="legendfill"/><g class="legendlines"><path class="js-line" d="M5,0h30" style="fill: none; stroke: rgb(0, 113, 188); stroke-opacity: 1; stroke-width: 4px;"/></g><g class="legendsymbols"><g class="legendpoints"/></g></g><rect class="legendtoggle" x="0" y="-22.3" width="62.34375" height="44.6" style="fill: rgb(0, 0, 0); fill-opacity: 0;"/></g><g class="traces" transform="translate(0,71.9)" style="opacity: 1;"><text class="legendtext" text-anchor="start" x="40" y="12.48" style="font-family: 'Open Sans', verdana, arial, sans-serif; font-size: 32px; fill: rgb(42, 63, 95); fill-opacity: 1; white-space: pre;">B</text><g class="layers" style="opacity: 1;"><g class="legendfill"/><g class="legendlines"><path class="js-line" d="M5,0h30" style="fill: none; stroke: rgb(216, 82, 24); stroke-opacity: 1; stroke-width: 4px;"/></g><g class="legendsymbols"><g class="legendpoints"/></g></g><rect class="legendtoggle" x="0" y="-22.3" width="62.34375" height="44.6" style="fill: rgb(0, 0, 0); fill-opacity: 0;"/></g><g class="traces" transform="translate(0,116.5)" style="opacity: 1;"><text class="legendtext" text-anchor="start" x="40" y="12.48" style="font-family: 'Open Sans', verdana, arial, sans-serif; font-size: 32px; fill: rgb(42, 63, 95); fill-opacity: 1; white-space: pre;">C</text><g class="layers" style="opacity: 1;"><g class="legendfill"/><g class="legendlines"><path class="js-line" d="M5,0h30" style="fill: none; stroke: rgb(236, 176, 31); stroke-opacity: 1; stroke-width: 4px;"/></g><g class="legendsymbols"><g class="legendpoints"/></g></g><rect class="legendtoggle" x="0" y="-22.3" width="62.34375" height="44.6" style="fill: rgb(0, 0, 0); fill-opacity: 0;"/></g></g></g><rect class="scrollbar" rx="20" ry="3" width="0" height="0" x="0" y="0" style="fill: rgb(128, 139, 164); fill-opacity: 1;"/></g><g class="g-gtitle"><text class="gtitle" x="70" y="50" text-anchor="start" dy="0em" style="font-family: 'Open Sans', verdana, arial, sans-serif; font-size: 32px; fill: rgb(42, 63, 95); opacity: 1; font-weight: normal; white-space: pre;">Model: reaction-1 | Description: Single species absorbance profiles</text></g><g class="g-xtitle"><text class="xtitle" x="696" y="887.4" text-anchor="middle" style="font-family: 'Open Sans', verdana, arial, sans-serif; font-size: 32px; fill: rgb(42, 63, 95); opacity: 1; font-weight: normal; white-space: pre;">Wavelength [centimeter]</text></g><g class="g-ytitle" transform="translate(20.181640625,0)"><text class="ytitle" transform="rotate(-90,11.818749999999994,460)" x="11.818749999999994" y="460" text-anchor="middle" style="font-family: 'Open Sans', verdana, arial, sans-serif; font-size: 32px; fill: rgb(42, 63, 95); opacity: 1; font-weight: normal; white-space: pre;">Absorbance [liter / mol / centimeter]</text></g></g></svg>