<svg class="main-svg" xmlns="http://www.w3.org/2000/svg" xmlns:xlink="http://www.w3.org/1999/xlink" width="1400" height="900" style="" viewBox="0 0 1400 900"><rect x="0" y="0" width="1400" height="900" style="fill: rgb(255, 255, 255); fill-opacity: 1;"/><defs id="defs-640669"><g class="clips"><clipPath id="clip640669xyplot" class="plotclip"><rect width="1099" height="720"/></clipPath><clipPath class="axesclip" id="clip640669x"><rect x="90" y="0" width="1099" height="900"/></clipPath><clipPath class="axesclip" id="clip640669y"><rect x="0" y="100" width="1400" height="720"/></clipPath><clipPath class="axesclip" id="clip640669xy"><rect x="90" y="100" width="1099" height="720"/></clipPath></g><g class="gradients"/></defs><g class="bglayer"><rect class="bg" x="90" y="100" width="1099" height="720" style="fill: rgb(229, 236, 246); fill-opacity: 1; stroke-width: 0;"/></g><g class="layer-below"><g class="imagelayer"/><g class="shapelayer"/></g><g class="cartesianlayer"><g class="subplot xy"><g class="layer-subplot"><g class="shapelayer"/><g class="imagelayer"/></g><g class="gridlayer"><g class="x"><path class="xgrid crisp" transform="translate(325.5,0)" d="M0,100v720" style="stroke: rgb(255, 255, 255); stroke-opacity: 1; stroke-width: 1px;"/><path class="xgrid crisp" transform="translate(534.8299999999999,0)" d="M0,100v720" style="stroke: rgb(255, 255, 255); stroke-opacity: 1; stroke-width: 1px;"/><path class="xgrid crisp" transform="translate(744.17,0)" d="M0,100v720" style="stroke: rgb(255, 255, 255); stroke-opacity: 1; stroke-width: 1px;"/><path class="xgrid crisp" transform="translate(953.5,0)" d="M0,100v720" style="stroke: rgb(255, 255, 255); stroke-opacity: 1; stroke-width: 1px;"/><path class="xgrid crisp" transform="translate(1162.83,0)" d="M0,100v720" style="stroke: rgb(255, 255, 255); stroke-opacity: 1; stroke-width: 1px;"/></g><g class="y"><path class="ygrid crisp" transform="translate(0,646.9)" d="M90,0h1099" style="stroke: rgb(255, 255, 255); stroke-opacity: 1; stroke-width: 1px;"/><path class="ygrid crisp" transform="translate(0,519.1700000000001)" d="M90,0h1099" style="stroke: rgb(255, 255, 255); stroke-opacity: 1; stroke-width: 1px;"/><path class="ygrid crisp" transform="translate(0,391.45)" d="M90,0h1099" style="stroke: rgb(255, 255, 255); stroke-opacity: 1; stroke-width: 1px;"/><path class="ygrid crisp" transform="translate(0,263.72)" d="M90,0h1099" style="stroke: rgb(255, 255, 255); stroke-opacity: 1; stroke-width: 1px;"/><path class="ygrid crisp" transform="translate(0,136)" d="M90,0h1099" style="stroke: rgb(255, 255, 255); stroke-opacity: 1; stroke-width: 1px;"/></g></g><g class="zerolinelayer"><path class="xzl zl crisp" transform="translate(116.17,0)" d="M0,100v720" style="stroke: rgb(78, 78, 78); stroke-opacity: 1; stroke-width: 2px;"/><path class="yzl zl crisp" transform="translate(0,774.63)" d="M90,0h1099" style="stroke: rgb(78, 78, 78); stroke-opacity: 1; stroke-width: 2px;"/></g><path class="xlines-below"/><path class="ylines-below"/><g class="overlines-below"/><g class="xaxislayer-below"/><g class="yaxislayer-below"/><g class="overaxes-below"/><g class="plot" transform="translate(90,100)" clip-path="url('#clip640669xyplot')"><g class="scatterlayer mlayer"><g class="trace scatter trace35dfd2" style="stroke-miterlimit: 2; opacity: 1;"><g class="fills"/><g class="errorbars"/><g class="lines"><path class="js-line" d="M26.17,36L39.93,115.6L42.06,127.02L55.83,195.27L62.57,225.54L76.33,281.51L81.22,299.66L85.49,314.82L98.98,358.82L113.02,398.92L126.5,432.64L140.54,463.37L154.03,489.2L172.68,519.81L177.57,526.95L193.47,548.01L200.24,556.03L218.96,575.68L221.1,577.7L241.69,595.2L246.59,598.88L262.49,609.68L269.24,613.78L291.88,625.74L301.65,630.15L319.4,637.17L329.18,640.55L356.7,648.51L360.97,649.57L400.13,657.47L406.87,658.55L443.55,663.35L457.04,664.73L512.09,668.82L521.87,669.34L581.4,671.65L594.89,672.02L705,673.73L714.77,673.81L952.95,674.54L962.72,674.55L1072.83,674.6" style="vector-effect: non-scaling-stroke; fill: none; stroke: rgb(0, 113, 188); stroke-opacity: 1; stroke-width: 4px; opacity: 1;"/></g><g class="points"/><g class="text"/></g><g class="trace scatter trace6bb09c" style="stroke-miterlimit: 2; opacity: 1;"><g class="fills"/><g class="errorbars"/><g class="lines"/><g class="points"><path class="point" transform="translate(26.17,63.46)" d="M7.5,0A7.5,7.5 0 1,1 0,-7.5A7.5,7.5 0 0,1 7.5,0Z" style="opacity: 0.75; stroke-width: 0px; fill: rgb(0, 113, 188); fill-opacity: 1;"/><path class="point" transform="translate(81.22,318.91)" d="M7.5,0A7.5,7.5 0 1,1 0,-7.5A7.5,7.5 0 0,1 7.5,0Z" style="opacity: 0.75; stroke-width: 0px; fill: rgb(0, 113, 188); fill-opacity: 1;"/><path class="point" transform="translate(136.28,456.22)" d="M7.5,0A7.5,7.5 0 1,1 0,-7.5A7.5,7.5 0 0,1 7.5,0Z" style="opacity: 0.75; stroke-width: 0px; fill: rgb(0, 113, 188); fill-opacity: 1;"/><path class="point" transform="translate(191.33,531.57)" d="M7.5,0A7.5,7.5 0 1,1 0,-7.5A7.5,7.5 0 0,1 7.5,0Z" style="opacity: 0.75; stroke-width: 0px; fill: rgb(0, 113, 188); fill-opacity: 1;"/><path class="point" transform="translate(246.59,596.07)" d="M7.5,0A7.5,7.5 0 1,1 0,-7.5A7.5,7.5 0 0,1 7.5,0Z" style="opacity: 0.75; stroke-width: 0px; fill: rgb(0, 113, 188); fill-opacity: 1;"/><path class="point" transform="translate(301.65,624.17)" d="M7.5,0A7.5,7.5 0 1,1 0,-7.5A7.5,7.5 0 0,1 7.5,0Z" style="opacity: 0.75; stroke-width: 0px; fill: rgb(0, 113, 188); fill-opacity: 1;"/><path class="point" transform="translate(356.7,652.27)" d="M7.5,0A7.5,7.5 0 1,1 0,-7.5A7.5,7.5 0 0,1 7.5,0Z" style="opacity: 0.75; stroke-width: 0px; fill: rgb(0, 113, 188); fill-opacity: 1;"/><path class="point" transform="translate(411.76,656.1)" d="M7.5,0A7.5,7.5 0 1,1 0,-7.5A7.5,7.5 0 0,1 7.5,0Z" style="opacity: 0.75; stroke-width: 0px; fill: rgb(0, 113, 188); fill-opacity: 1;"/><path class="point" transform="translate(466.81,658.66)" d="M7.5,0A7.5,7.5 0 1,1 0,-7.5A7.5,7.5 0 0,1 7.5,0Z" style="opacity: 0.75; stroke-width: 0px; fill: rgb(0, 113, 188); fill-opacity: 1;"/><path class="point" transform="translate(521.87,663.77)" d="M7.5,0A7.5,7.5 0 1,1 0,-7.5A7.5,7.5 0 0,1 7.5,0Z" style="opacity: 0.75; stroke-width: 0px; fill: rgb(0, 113, 188); fill-opacity: 1;"/><path class="point" transform="translate(577.13,674.63)" d="M7.5,0A7.5,7.5 0 1,1 0,-7.5A7.5,7.5 0 0,1 7.5,0Z" style="opacity: 0.75; stroke-width: 0px; fill: rgb(0, 113, 188); fill-opacity: 1;"/><path class="point" transform="translate(632.19,668.88)" d="M7.5,0A7.5,7.5 0 1,1 0,-7.5A7.5,7.5 0 0,1 7.5,0Z" style="opacity: 0.75; stroke-width: 0px; fill: rgb(0, 113, 188); fill-opacity: 1;"/><path class="point" transform="translate(687.24,674.63)" d="M7.5,0A7.5,7.5 0 1,1 0,-7.5A7.5,7.5 0 0,1 7.5,0Z" style="opacity: 0.75; stroke-width: 0px; fill: rgb(0, 113, 188); fill-opacity: 1;"/><path class="point" transform="translate(742.3,670.79)" d="M7.5,0A7.5,7.5 0 1,1 0,-7.5A7.5,7.5 0 0,1 7.5,0Z" style="opacity: 0.75; stroke-width: 0px; fill: rgb(0, 113, 188); fill-opacity: 1;"/><path class="point" transform="translate(797.35,664.41)" d="M7.5,0A7.5,7.5 0 1,1 0,-7.5A7.5,7.5 0 0,1 7.5,0Z" style="opacity: 0.75; stroke-width: 0px; fill: rgb(0, 113, 188); fill-opacity: 1;"/><path class="point" transform="translate(852.41,665.68)" d="M7.5,0A7.5,7.5 0 1,1 0,-7.5A7.5,7.5 0 0,1 7.5,0Z" style="opacity: 0.75; stroke-width: 0px; fill: rgb(0, 113, 188); fill-opacity: 1;"/><path class="point" transform="translate(907.67,674.63)" d="M7.5,0A7.5,7.5 0 1,1 0,-7.5A7.5,7.5 0 0,1 7.5,0Z" style="opacity: 0.75; stroke-width: 0px; fill: rgb(0, 113, 188); fill-opacity: 1;"/><path class="point" transform="translate(962.72,674.63)" d="M7.5,0A7.5,7.5 0 1,1 0,-7.5A7.5,7.5 0 0,1 7.5,0Z" style="opacity: 0.75; stroke-width: 0px; fill: rgb(0, 113, 188); fill-opacity: 1;"/><path class="point" transform="translate(1017.78,672.07)" d="M7.5,0A7.5,7.5 0 1,1 0,-7.5A7.5,7.5 0 0,1 7.5,0Z" style="opacity: 0.75; stroke-width: 0px; fill: rgb(0, 113, 188); fill-opacity: 1;"/><path class="point" transform="translate(1072.83,674.63)" d="M7.5,0A7.5,7.5 0 1,1 0,-7.5A7.5,7.5 0 0,1 7.5,0Z" style="opacity: 0.75; stroke-width: 0px; fill: rgb(0, 113, 188); fill-opacity: 1;"/></g><g class="text"/></g><g class="trace scatter trace045080" style="stroke-miterlimit: 2; opacity: 1;"><g class="fills"/><g class="errorbars"/><g class="lines"><path class="js-line" d="M26.17,674.63L35.04,623.18L39.93,597.61L48.81,555.75L53.69,535.05L62.57,501.36L67.46,484.82L76.33,458.11L81.22,445.11L85.49,434.69L98.98,406.89L113.02,385.3L126.5,370.51L140.54,360.32L154.03,354.7L165.94,352.59L172.68,352.42L186.44,354.03L191.33,355.16L205.15,359.7L207.29,360.56L227.87,370.63L232.78,373.44L255.47,387.9L260.36,391.27L291.88,414.34L301.65,421.77L374.46,476.7L384.23,483.69L416.03,505.42L429.51,514.12L471.08,538.87L484.57,546.23L524.01,565.87L530.78,568.97L565.46,583.66L572.23,586.31L608.93,599.48L622.41,603.85L663.98,615.87L677.47,619.33L719.04,628.84L732.52,631.57L787.58,641.18L797.35,642.66L854.55,650.09L861.32,650.85L925.42,656.98L935.2,657.77L1017.78,663.17L1022.05,663.4L1072.83,665.78" style="vector-effect: non-scaling-stroke; fill: none; stroke: rgb(216, 82, 24); stroke-opacity: 1; stroke-width: 4px; opacity: 1;"/></g><g class="points"/><g class="text"/></g><g class="trace scatter trace43dd7f" style="stroke-miterlimit: 2; opacity: 1;"><g class="fills"/><g class="errorbars"/><g class="lines"><path class="js-line" d="M26.17,674.63L35.04,673.52L39.93,672.04L48.81,667.91L53.69,664.93L62.57,658.35L67.46,654.16L81.22,640.48L85.49,635.74L108.75,606.8L113.02,601.02L140.54,561.56L154.03,541.35L227.87,430.77L232.78,423.76L262.49,382.81L269.24,373.91L291.88,345.17L301.65,333.33L329.18,301.82L333.44,297.19L360.97,268.83L374.46,255.91L406.87,227.37L411.76,223.36L439.29,202.15L443.55,199.07L471.08,180.39L484.57,171.98L512.09,156.21L521.87,151.04L551.64,136.55L558.41,133.5L594.89,118.57L604.66,114.95L636.45,104.23L649.94,100.12L691.51,88.91L705,85.71L751.17,76.11L756.06,75.2L801.62,67.7L815.1,65.76L875.13,58.47L880.04,57.96L939.46,52.62L952.95,51.6L1035.53,46.58L1045.31,46.1L1072.83,44.87" style="vector-effect: non-scaling-stroke; fill: none; stroke: rgb(236, 176, 31); stroke-opacity: 1; stroke-width: 4px; opacity: 1;"/></g><g class="points"/><g class="text"/></g></g></g><g class="overplot"/><path class="xlines-above crisp" d="M0,0" style="fill: none;"/><path class="ylines-above crisp" d="M0,0" style="fill: none;"/><g class="overlines-above"/><g class="xaxislayer-above"><g class="xtick"><text text-anchor="middle" x="0" y="845" transform="translate(116.17,0)" style="font-family: 'Open Sans', verdana, arial, sans-serif; font-size: 24px; fill: rgb(42, 63, 95); fill-opacity: 1; white-space: pre;">0</text></g><g class="xtick"><text text-anchor="middle" x="0" y="845" transform="translate(325.5,0)" style="font-family: 'Open Sans', verdana, arial, sans-serif; font-size: 24px; fill: rgb(42, 63, 95); fill-opacity: 1; white-space: pre;">1</text></g><g class="xtick"><text text-anchor="middle" x="0" y="845" transform="translate(534.8299999999999,0)" style="font-family: 'Open Sans', verdana, arial, sans-serif; font-size: 24px; fill: rgb(42, 63, 95); fill-opacity: 1; white-space: pre;">2</text></g><g class="xtick"><text text-anchor="middle" x="0" y="845" transform="translate(744.17,0)" style="font-family: 'Open Sans', verdana, arial, sans-serif; font-size: 24px; fill: rgb(42, 63, 95); fill-opacity: 1; white-space: pre;">3</text></g><g class="xtick"><text text-anchor="middle" x="0" y="845" transform="translate(953.5,0)" style="font-family: 'Open Sans', verdana, arial, sans-serif; font-size: 24px; fill: rgb(42, 63, 95); fill-opacity: 1; white-space: pre;">4</text></g><g class="xtick"><text text-anchor="middle" x="0" y="845" transform="translate(1162.83,0)" style="font-family: 'Open Sans', verdana, arial, sans-serif; font-size: 24px; fill: rgb(42, 63, 95); fill-opacity: 1; white-space: pre;">5</text></g></g><g class="yaxislayer-above"><g class="ytick"><text text-anchor="end" x="89" y="8.399999999999999" transform="translate(0,774.63)" style="font-family: 'Open Sans', verdana, arial, sans-serif; font-size: 24px; fill: rgb(42, 63, 95); fill-opacity: 1; white-space: pre;">0</text></g><g class="ytick"><text text-anchor="end" x="89" y="8.399999999999999" transform="translate(0,646.9)" style="font-family: 'Open Sans', verdana, arial, sans-serif; font-size: 24px; fill: rgb(42, 63, 95); fill-opacity: 1; white-space: pre;">0.2</text></g><g class="ytick"><text text-anchor="end" x="89" y="8.399999999999999" transform="translate(0,519.1700000000001)" style="font-family: 'Open Sans', verdana, arial, sans-serif; font-size: 24px; fill: rgb(42, 63, 95); fill-opacity: 1; white-space: pre;">0.4</text></g><g class="ytick"><text text-anchor="end" x="89" y="8.399999999999999" transform="translate(0,391.45)" style="font-family: 'Open Sans', verdana, arial, sans-serif; font-size: 24px; fill: rgb(42, 63, 95); fill-opacity: 1; white-space: pre;">0.6</text></g><g class="ytick"><text text-anchor="end" x="89" y="8.399999999999999" transform="translate(0,263.72)" style="font-family: 'Open Sans', verdana, arial, sans-serif; font-size: 24px; fill: rgb(42, 63, 95); fill-opacity: 1; white-space: pre;">0.8</text></g><g class="ytick"><text text-anchor="end" x="89" y="8.399999999999999" transform="translate(0,136)" style="font-family: 'Open Sans', verdana, arial, sans-serif; font-size: 24px; fill: rgb(42, 63, 95); fill-opacity: 1; white-space: pre;">1</text></g></g><g class="overaxes-above"/></g></g><g class="polarlayer"/><g class="ternarylayer"/><g class="geolayer"/><g class="funnelarealayer"/><g class="pielayer"/><g class="treemaplayer"/><g class="sunburstlayer"/><g class="glimages"/><defs id="topdefs-640669"><g class="clips"/><clipPath id="legend640669"><rect width="177" height="189" x="0" y="0"/></clipPath></defs><g class="layer-above"><g class="imagelayer"/><g class="shapelayer"/></g><g class="infolayer"><g class="legend" pointer-events="all" transform="translate(1210.98,100)"><rect class="bg" shape-rendering="crispEdges" width="177" height="189" x="0" y="0" style="stroke: rgb(68, 68, 68); stroke-opacity: 1; fill: rgb(255, 255, 255); fill-opacity: 1; stroke-width: 0px;"/><g class="scrollbox" transform="" clip-path="url('#legend640669')"><g class="groups"><g class="traces" transform="translate(0,27.3)" style="opacity: 1;"><text class="legendtext" text-anchor="start" x="40" y="12.48" style="font-family: 'Open Sans', verdana, arial, sans-serif; font-size: 32px; fill: rgb(42, 63, 95); fill-opacity: 1; white-space: pre;">A</text><g class="layers" style="opacity: 1;"><g class="legendfill"/><g class="legendlines"><path class="js-line" d="M5,0h30" style="fill: none; stroke: rgb(0, 113, 188); stroke-opacity: 1; stroke-width: 4px;"/></g><g class="legendsymbols"><g class="legendpoints"/></g></g><rect class="legendtoggle" x="0" y="-22.3" width="171.765625" height="44.6" style="fill: rgb(0, 0, 0); fill-opacity: 0;"/></g><g class="traces" transform="translate(0,71.9)" style="opacity: 1;"><text class="legendtext" text-anchor="start" x="40" y="12.48" style="font-family: 'Open Sans', verdana, arial, sans-serif; font-size: 32px; fill: rgb(42, 63, 95); fill-opacity: 1; white-space: pre;">A (exp.)</text><g class="layers" style="opacity: 1;"><g class="legendfill"/><g class="legendlines"/><g class="legendsymbols"><g class="legendpoints"><path class="scatterpts" transform="translate(20,0)" d="M7.5,0A7.5,7.5 0 1,1 0,-7.5A7.5,7.5 0 0,1 7.5,0Z" style="opacity: 0.75; stroke-width: 0px; fill: rgb(0, 113, 188); fill-opacity: 1;"/></g></g></g><rect class="legendtoggle" x="0" y="-22.3" width="171.765625" height="44.6" style="fill: rgb(0, 0, 0); fill-opacity: 0;"/></g><g class="traces" transform="translate(0,116.5)" style="opacity: 1;"><text class="legendtext" text-anchor="start" x="40" y="12.48" style="font-family: 'Open Sans', verdana, arial, sans-serif; font-size: 32px; fill: rgb(42, 63, 95); fill-opacity: 1; white-space: pre;">B</text><g class="layers" style="opacity: 1;"><g class="legendfill"/><g class="legendlines"><path class="js-line" d="M5,0h30" style="fill: none; stroke: rgb(216, 82, 24); stroke-opacity: 1; stroke-width: 4px;"/></g><g class="legendsymbols"><g class="legendpoints"/></g></g><rect class="legendtoggle" x="0" y="-22.3" width="171.765625" height="44.6" style="fill: rgb(0, 0, 0); fill-opacity: 0;"/></g><g class="traces" transform="translate(0,161.10000000000002)" style="opacity: 1;"><text class="legendtext" text-anchor="start" x="40" y="12.48" style="font-family: 'Open Sans', verdana, arial, sans-serif; font-size: 32px; fill: rgb(42, 63, 95); fill-opacity: 1; white-space: pre;">C</text><g class="layers" style="opacity: 1;"><g class="legendfill"/><g class="legendlines"><path class="js-line" d="M5,0h30" style="fill: none; stroke: rgb(236, 176, 31); stroke-opacity: 1; stroke-width: 4px;"/></g><g class="legendsymbols"><g class="legendpoints"/></g></g><rect class="legendtoggle" x="0" y="-22.3" width="171.765625" height="44.6" style="fill: rgb(0, 0, 0); fill-opacity: 0;"/></g></g></g><rect class="scrollbar" rx="20" ry="3" width="0" height="0" x="0" y="0" style="fill: rgb(128, 139, 164); fill-opacity: 1;"/></g><g class="g-gtitle"><text class="gtitle" x="70" y="50" text-anchor="start" dy="0em" style="font-family: 'Open Sans', verdana, arial, sans-serif; font-size: 32px; fill: rgb(42, 63, 95); opacity: 1; font-weight: normal; white-space: pre;">Model: reaction-1 | Concentration Profiles</text></g><g class="g-xtitle"><text class="xtitle" x="639.5" y="887.4" text-anchor="middle" style="font-family: 'Open Sans', verdana, arial, sans-serif; font-size: 32px; fill: rgb(42, 63, 95); opacity: 1; font-weight: normal; white-space: pre;">Time [s]</text></g><g class="g-ytitle" transform="translate(19.650390625,0)"><text class="ytitle" transform="rotate(-90,12.349999999999994,460)" x="12.349999999999994" y="460" text-anchor="middle" style="font-family: 'Open Sans', verdana, arial, sans-serif; font-size: 32px; fill: rgb(42, 63, 95); opacity: 1; font-weight: normal; white-space: pre;">Concentration [mole / liter]</text></g></g></svg>