<svg class="main-svg" xmlns="http://www.w3.org/2000/svg" xmlns:xlink="http://www.w3.org/1999/xlink" width="1400" height="900" style="" viewBox="0 0 1400 900"><rect x="0" y="0" width="1400" height="900" style="fill: rgb(255, 255, 255); fill-opacity: 1;"/><defs id="defs-f97683"><g class="clips"><clipPath id="clipf97683xyplot" class="plotclip"><rect width="1198" height="720"/></clipPath><clipPath class="axesclip" id="clipf97683x"><rect x="97" y="0" width="1198" height="900"/></clipPath><clipPath class="axesclip" id="clipf97683y"><rect x="0" y="100" width="1400" height="720"/></clipPath><clipPath class="axesclip" id="clipf97683xy"><rect x="97" y="100" width="1198" height="720"/></clipPath></g><g class="gradients"/></defs><g class="bglayer"><rect class="bg" x="97" y="100" width="1198" height="720" style="fill: rgb(229, 236, 246); fill-opacity: 1; stroke-width: 0;"/></g><g class="layer-below"><g class="imagelayer"/><g class="shapelayer"/></g><g class="cartesianlayer"><g class="subplot xy"><g class="layer-subplot"><g class="shapelayer"/><g class="imagelayer"/></g><g class="gridlayer"><g class="x"><path class="xgrid crisp" transform="translate(114,0)" d="M0,100v720" style="stroke: rgb(255, 255, 255); stroke-opacity: 1; stroke-width: 1px;"/><path class="xgrid crisp" transform="translate(344.49,0)" d="M0,100v720" style="stroke: rgb(255, 255, 255); stroke-opacity: 1; stroke-width: 1px;"/><path class="xgrid crisp" transform="translate(574.99,0)" d="M0,100v720" style="stroke: rgb(255, 255, 255); stroke-opacity: 1; stroke-width: 1px;"/><path class="xgrid crisp" transform="translate(805.49,0)" d="M0,100v720" style="stroke: rgb(255, 255, 255); stroke-opacity: 1; stroke-width: 1px;"/><path class="xgrid crisp" transform="translate(1035.98,0)" d="M0,100v720" style="stroke: rgb(255, 255, 255); stroke-opacity: 1; stroke-width: 1px;"/><path class="xgrid crisp" transform="translate(1266.48,0)" d="M0,100v720" style="stroke: rgb(255, 255, 255); stroke-opacity: 1; stroke-width: 1px;"/></g><g class="y"><path class="ygrid crisp" transform="translate(0,625.28)" d="M97,0h1198" style="stroke: rgb(255, 255, 255); stroke-opacity: 1; stroke-width: 1px;"/><path class="ygrid crisp" transform="translate(0,466.56)" d="M97,0h1198" style="stroke: rgb(255, 255, 255); stroke-opacity: 1; stroke-width: 1px;"/><path class="ygrid crisp" transform="translate(0,307.84000000000003)" d="M97,0h1198" style="stroke: rgb(255, 255, 255); stroke-opacity: 1; stroke-width: 1px;"/><path class="ygrid crisp" transform="translate(0,149.11)" d="M97,0h1198" style="stroke: rgb(255, 255, 255); stroke-opacity: 1; stroke-width: 1px;"/></g></g><g class="zerolinelayer"><path class="yzl zl crisp" transform="translate(0,784)" d="M97,0h1198" style="stroke: rgb(78, 78, 78); stroke-opacity: 1; stroke-width: 2px;"/></g><path class="xlines-below"/><path class="ylines-below"/><g class="overlines-below"/><g class="xaxislayer-below"/><g class="yaxislayer-below"/><g class="overaxes-below"/><g class="plot" transform="translate(97,100)" clip-path="url('#clipf97683xyplot')"><g class="scatterlayer mlayer"><g class="trace scatter trace725bd7" style="stroke-miterlimit: 2; opacity: 1;"><g class="fills"/><g class="errorbars"/><g class="lines"><path class="js-line" d="M28.52,442.95L40.05,443.48L51.57,438.67L63.1,434.93L74.62,421.18L86.15,410.2L97.67,419.29L109.2,417.71L120.72,417.71L132.25,419.58L143.77,422.96L155.3,425.04L166.82,435.18L178.35,442.73L189.87,442.03L212.92,433.71L224.44,435.14L235.97,438.15L247.49,436.05L259.02,433.98L270.54,438.82L282.07,446.53L293.59,450.9L316.64,459.41L328.17,461.28L339.69,461.64L351.22,467.55L362.74,468.67L374.27,474.49L385.79,478.5L397.32,477.15L408.84,479.92L420.37,477.65L431.89,470.05L443.42,456.78L454.94,447.5L466.47,440.7L477.99,432.34L489.51,430.23L501.04,437.13L512.56,445.31L535.61,450.97L547.14,447.73L558.66,443.83L570.19,435.7L581.71,423.15L593.24,407.45L604.76,381.23L616.29,380.63L639.34,363.9L650.86,367.66L662.39,378.48L673.91,369.41L685.44,359.96L696.96,346.49L708.49,339.09L720.01,328.84L731.53,313.73L743.06,304.3L754.58,299.76L766.11,292.13L777.63,288.13L789.16,278.86L800.68,282.86L812.21,292.15L823.73,297.55L835.26,299.25L846.78,303.37L858.31,313.96L869.83,324.05L881.36,331L892.88,337.27L904.41,340.5L915.93,339.48L927.46,332.23L938.98,320.18L950.51,300.2L962.03,284.87L973.56,281.96L985.08,288.37L996.6,298.92L1008.13,300.73L1019.65,282.14L1031.18,260.62L1042.7,248.75L1054.23,241.53L1065.75,253.39L1077.28,268.21L1088.8,281.34L1100.33,286.83L1111.85,297.31L1134.9,272.1L1146.43,270.55L1157.95,277.99L1169.48,278.53" style="vector-effect: non-scaling-stroke; fill: none; stroke: rgb(0, 113, 188); stroke-opacity: 1; stroke-width: 4px; opacity: 1;"/></g><g class="points"/><g class="text"/></g><g class="trace scatter trace0b2120" style="stroke-miterlimit: 2; opacity: 1;"><g class="fills"/><g class="errorbars"/><g class="lines"><path class="js-line" d="M28.52,383.54L40.05,411.26L51.57,469.04L63.1,515.35L74.62,604.65L86.15,668.53L97.67,663.65L109.2,684L120.72,684L143.77,684L155.3,660.15L166.82,596.99L178.35,557.14L189.87,545.79L201.4,561.79L212.92,569.34L224.44,553.36L235.97,530.33L247.49,525.64L259.02,526.34L270.54,493.85L282.07,468.9L293.59,447.92L305.12,447.81L316.64,423.28L328.17,416.07L339.69,416.96L351.22,408.5L362.74,421.14L374.27,410.42L385.79,395.12L397.32,385.93L408.84,354.53L420.37,301.61L431.89,239.49L454.94,72.33L466.47,36L477.99,38.63L489.51,59.95L501.04,48.63L512.56,51.34L524.09,79.56L535.61,114.45L547.14,161.86L558.66,215.72L581.71,325.2L593.24,389.73L604.76,480.14L616.29,436.11L627.81,404.27L639.34,361.29L650.86,276.87L662.39,169.82L673.91,147.7L685.44,123.37L696.96,135.65L708.49,137.7L720.01,172.25L731.53,221.09L743.06,255.08L754.58,308.12L766.11,374.55L777.63,423.16L789.16,490.26L800.68,509.28L812.21,494.42L823.73,498.01L835.26,509.34L846.78,524.37L858.31,494.44L869.83,483.41L881.36,468.18L892.88,460.77L904.41,449.86L915.93,452.2L927.46,461.46L938.98,453.86L950.51,462.8L962.03,405.75L973.56,336.45L985.08,290.66L996.6,270.18L1008.13,278.96L1019.65,331.03L1031.18,377.04L1042.7,379.73L1054.23,379.26L1065.75,282.5L1077.28,213.21L1088.8,165.5L1100.33,143.73L1111.85,110.74L1123.38,165.41L1134.9,222.54L1146.43,250.92L1157.95,218.14L1169.48,234.04" style="vector-effect: non-scaling-stroke; fill: none; stroke: rgb(216, 82, 24); stroke-opacity: 1; stroke-width: 4px; opacity: 1;"/></g><g class="points"/><g class="text"/></g><g class="trace scatter traceb88394" style="stroke-miterlimit: 2; opacity: 1;"><g class="fills"/><g class="errorbars"/><g class="lines"><path class="js-line" d="M28.52,402.6L40.05,406.3L51.57,411.18L63.1,414.95L74.62,419.79L97.67,429.42L109.2,435.56L120.72,438.7L132.25,443.04L143.77,443.42L155.3,439.78L166.82,442.38L178.35,447.26L189.87,447.89L201.4,445.17L235.97,441.17L247.49,438.69L259.02,439.33L270.54,445.34L282.07,450.02L293.59,452.35L305.12,454.74L316.64,459.27L328.17,462.19L339.69,464.05L351.22,466.99L362.74,473.48L374.27,479.23L385.79,482.35L397.32,484.68L408.84,485.1L420.37,481.25L431.89,471.46L443.42,456.85L454.94,436.63L477.99,374.87L489.51,364.65L501.04,380.49L512.56,399.25L524.09,409.24L535.61,411.88L547.14,410.93L558.66,408.12L570.19,407.01L581.71,407.03L593.24,405.65L604.76,401.39L616.29,397.49L627.81,390.65L639.34,379.33L650.86,366.41L662.39,349.39L673.91,330.15L685.44,312.6L696.96,298.38L708.49,288.22L720.01,287.13L766.11,295.91L777.63,299.76L835.26,324.12L846.78,333.23L869.83,351.16L881.36,359.18L904.41,370.97L915.93,370.74L927.46,368.99L938.98,349.9L950.51,323.93L962.03,317.79L973.56,307.95L985.08,300.58L996.6,301.28L1008.13,300.65L1019.65,297.14L1031.18,282.67L1042.7,269.59L1054.23,267.19L1065.75,270.39L1077.28,267.4L1088.8,261.79L1100.33,257.88L1111.85,259.44L1123.38,258.98L1146.43,271.91L1157.95,273.53L1169.48,270.65" style="vector-effect: non-scaling-stroke; fill: none; stroke: rgb(236, 176, 31); stroke-opacity: 1; stroke-width: 4px; opacity: 1;"/></g><g class="points"/><g class="text"/></g></g></g><g class="overplot"/><path class="xlines-above crisp" d="M0,0" style="fill: none;"/><path class="ylines-above crisp" d="M0,0" style="fill: none;"/><g class="overlines-above"/><g class="xaxislayer-above"><g class="xtick"><text text-anchor="middle" x="0" y="845" transform="translate(114,0)" style="font-family: 'Open Sans', verdana, arial, sans-serif; font-size: 24px; fill: rgb(42, 63, 95); fill-opacity: 1; white-space: pre;">1600</text></g><g class="xtick"><text text-anchor="middle" x="0" y="845" transform="translate(344.49,0)" style="font-family: 'Open Sans', verdana, arial, sans-serif; font-size: 24px; fill: rgb(42, 63, 95); fill-opacity: 1; white-space: pre;">1800</text></g><g class="xtick"><text text-anchor="middle" x="0" y="845" transform="translate(574.99,0)" style="font-family: 'Open Sans', verdana, arial, sans-serif; font-size: 24px; fill: rgb(42, 63, 95); fill-opacity: 1; white-space: pre;">2000</text></g><g class="xtick"><text text-anchor="middle" x="0" y="845" transform="translate(805.49,0)" style="font-family: 'Open Sans', verdana, arial, sans-serif; font-size: 24px; fill: rgb(42, 63, 95); fill-opacity: 1; white-space: pre;">2200</text></g><g class="xtick"><text text-anchor="middle" x="0" y="845" transform="translate(1035.98,0)" style="font-family: 'Open Sans', verdana, arial, sans-serif; font-size: 24px; fill: rgb(42, 63, 95); fill-opacity: 1; white-space: pre;">2400</text></g><g class="xtick"><text text-anchor="middle" x="0" y="845" transform="translate(1266.48,0)" style="font-family: 'Open Sans', verdana, arial, sans-serif; font-size: 24px; fill: rgb(42, 63, 95); fill-opacity: 1; white-space: pre;">2600</text></g></g><g class="yaxislayer-above"><g class="ytick"><text text-anchor="end" x="96" y="8.399999999999999" transform="translate(0,784)" style="font-family: 'Open Sans', verdana, arial, sans-serif; font-size: 24px; fill: rgb(42, 63, 95); fill-opacity: 1; white-space: pre;">0</text></g><g class="ytick"><text text-anchor="end" x="96" y="8.399999999999999" transform="translate(0,625.28)" style="font-family: 'Open Sans', verdana, arial, sans-serif; font-size: 24px; fill: rgb(42, 63, 95); fill-opacity: 1; white-space: pre;">0.05</text></g><g class="ytick"><text text-anchor="end" x="96" y="8.399999999999999" transform="translate(0,466.56)" style="font-family: 'Open Sans', verdana, arial, sans-serif; font-size: 24px; fill: rgb(42, 63, 95); fill-opacity: 1; white-space: pre;">0.1</text></g><g class="ytick"><text text-anchor="end" x="96" y="8.399999999999999" transform="translate(0,307.84000000000003)" style="font-family: 'Open Sans', verdana, arial, sans-serif; font-size: 24px; fill: rgb(42, 63, 95); fill-opacity: 1; white-space: pre;">0.15</text></g><g class="ytick"><text text-anchor="end" x="96" y="8.399999999999999" transform="translate(0,149.11)" style="font-family: 'Open Sans', verdana, arial, sans-serif; font-size: 24px; fill: rgb(42, 63, 95); fill-opacity: 1; white-space: pre;">0.2</text></g></g><g class="overaxes-above"/></g></g><g class="polarlayer"/><g class="ternarylayer"/><g class="geolayer"/><g class="funnelarealayer"/><g class="pielayer"/><g class="treemaplayer"/><g class="sunburstlayer"/><g class="glimages"/><defs id="topdefs-f97683"><g class="clips"/><clipPath id="legendf97683"><rect width="69" height="144" x="0" y="0"/></clipPath></defs><g class="layer-above"><g class="imagelayer"/><g class="shapelayer"/></g><g class="infolayer"><g class="legend" pointer-events="all" transform="translate(1318.96,100)"><rect class="bg" shape-rendering="crispEdges" width="69" height="144" x="0" y="0" style="stroke: rgb(68, 68, 68); stroke-opacity: 1; fill: rgb(255, 255, 255); fill-opacity: 1; stroke-width: 0px;"/><g class="scrollbox" transform="" clip-path="url('#legendf97683')"><g class="groups"><g class="traces" transform="translate(0,27.3)" style="opacity: 1;"><text class="legendtext" text-anchor="start" x="40" y="12.48" style="font-family: 'Open Sans', verdana, arial, sans-serif; font-size: 32px; fill: rgb(42, 63, 95); fill-opacity: 1; white-space: pre;">A</text><g class="layers" style="opacity: 1;"><g class="legendfill"/><g class="legendlines"><path class="js-line" d="M5,0h30" style="fill: none; stroke: rgb(0, 113, 188); stroke-opacity: 1; stroke-width: 4px;"/></g><g class="legendsymbols"><g class="legendpoints"/></g></g><rect class="legendtoggle" x="0" y="-22.3" width="63.109375" height="44.6" style="fill: rgb(0, 0, 0); fill-opacity: 0;"/></g><g class="traces" transform="translate(0,71.9)" style="opacity: 1;"><text class="legendtext" text-anchor="start" x="40" y="12.48" style="font-family: 'Open Sans', verdana, arial, sans-serif; font-size: 32px; fill: rgb(42, 63, 95); fill-opacity: 1; white-space: pre;">B</text><g class="layers" style="opacity: 1;"><g class="legendfill"/><g class="legendlines"><path class="js-line" d="M5,0h30" style="fill: none; stroke: rgb(216, 82, 24); stroke-opacity: 1; stroke-width: 4px;"/></g><g class="legendsymbols"><g class="legendpoints"/></g></g><rect class="legendtoggle" x="0" y="-22.3" width="63.109375" height="44.6" style="fill: rgb(0, 0, 0); fill-opacity: 0;"/></g><g class="traces" transform="translate(0,116.5)" style="opacity: 1;"><text class="legendtext" text-anchor="start" x="40" y="12.48" style="font-family: 'Open Sans', verdana, arial, sans-serif; font-size: 32px; fill: rgb(42, 63, 95); fill-opacity: 1; white-space: pre;">C</text><g class="layers" style="opacity: 1;"><g class="legendfill"/><g class="legendlines"><path class="js-line" d="M5,0h30" style="fill: none; stroke: rgb(236, 176, 31); stroke-opacity: 1; stroke-width: 4px;"/></g><g class="legendsymbols"><g class="legendpoints"/></g></g><rect class="legendtoggle" x="0" y="-22.3" width="63.109375" height="44.6" style="fill: rgb(0, 0, 0); fill-opacity: 0;"/></g></g></g><rect class="scrollbar" rx="20" ry="3" width="0" height="0" x="0" y="0" style="fill: rgb(128, 139, 164); fill-opacity: 1;"/></g><g class="g-gtitle"><text class="gtitle" x="70" y="50" text-anchor="start" dy="0em" style="font-family: 'Open Sans', verdana, arial, sans-serif; font-size: 32px; fill: rgb(42, 63, 95); opacity: 1; font-weight: normal; white-space: pre;">Model: reaction-1 | Description: Single species absorbance profiles</text></g><g class="g-xtitle"><text class="xtitle" x="696" y="887.4" text-anchor="middle" style="font-family: 'Open Sans', verdana, arial, sans-serif; font-size: 32px; fill: rgb(42, 63, 95); opacity: 1; font-weight: normal; white-space: pre;">Wavelength [centimeter]</text></g><g class="g-ytitle" transform="translate(17.119140625,0)"><text class="ytitle" transform="rotate(-90,11.881249999999994,460)" x="11.881249999999994" y="460" text-anchor="middle" style="font-family: 'Open Sans', verdana, arial, sans-serif; font-size: 32px; fill: rgb(42, 63, 95); opacity: 1; font-weight: normal; white-space: pre;">Absorbance [liter / mol / centimeter]</text></g></g></svg>