<svg class="main-svg" xmlns="http://www.w3.org/2000/svg" xmlns:xlink="http://www.w3.org/1999/xlink" width="1400" height="900" style="" viewBox="0 0 1400 900"><rect x="0" y="0" width="1400" height="900" style="fill: rgb(255, 255, 255); fill-opacity: 1;"/><defs id="defs-e229ee"><g class="clips"><clipPath id="clipe229eexyplot" class="plotclip"><rect width="1211" height="720"/></clipPath><clipPath class="axesclip" id="clipe229eex"><rect x="84" y="0" width="1211" height="900"/></clipPath><clipPath class="axesclip" id="clipe229eey"><rect x="0" y="100" width="1400" height="720"/></clipPath><clipPath class="axesclip" id="clipe229eexy"><rect x="84" y="100" width="1211" height="720"/></clipPath></g><g class="gradients"/></defs><g class="bglayer"><rect class="bg" x="84" y="100" width="1211" height="720" style="fill: rgb(229, 236, 246); fill-opacity: 1; stroke-width: 0;"/></g><g class="layer-below"><g class="imagelayer"/><g class="shapelayer"/></g><g class="cartesianlayer"><g class="subplot xy"><g class="layer-subplot"><g class="shapelayer"/><g class="imagelayer"/></g><g class="gridlayer"><g class="x"><path class="xgrid crisp" transform="translate(401.17,0)" d="M0,100v720" style="stroke: rgb(255, 255, 255); stroke-opacity: 1; stroke-width: 1px;"/><path class="xgrid crisp" transform="translate(689.5,0)" d="M0,100v720" style="stroke: rgb(255, 255, 255); stroke-opacity: 1; stroke-width: 1px;"/><path class="xgrid crisp" transform="translate(977.83,0)" d="M0,100v720" style="stroke: rgb(255, 255, 255); stroke-opacity: 1; stroke-width: 1px;"/><path class="xgrid crisp" transform="translate(1266.17,0)" d="M0,100v720" style="stroke: rgb(255, 255, 255); stroke-opacity: 1; stroke-width: 1px;"/></g><g class="y"><path class="ygrid crisp" transform="translate(0,654.4)" d="M84,0h1211" style="stroke: rgb(255, 255, 255); stroke-opacity: 1; stroke-width: 1px;"/><path class="ygrid crisp" transform="translate(0,524.8)" d="M84,0h1211" style="stroke: rgb(255, 255, 255); stroke-opacity: 1; stroke-width: 1px;"/><path class="ygrid crisp" transform="translate(0,395.2)" d="M84,0h1211" style="stroke: rgb(255, 255, 255); stroke-opacity: 1; stroke-width: 1px;"/><path class="ygrid crisp" transform="translate(0,265.6)" d="M84,0h1211" style="stroke: rgb(255, 255, 255); stroke-opacity: 1; stroke-width: 1px;"/><path class="ygrid crisp" transform="translate(0,136)" d="M84,0h1211" style="stroke: rgb(255, 255, 255); stroke-opacity: 1; stroke-width: 1px;"/></g></g><g class="zerolinelayer"><path class="xzl zl crisp" transform="translate(112.83,0)" d="M0,100v720" style="stroke: rgb(78, 78, 78); stroke-opacity: 1; stroke-width: 2px;"/><path class="yzl zl crisp" transform="translate(0,784)" d="M84,0h1211" style="stroke: rgb(78, 78, 78); stroke-opacity: 1; stroke-width: 2px;"/></g><path class="xlines-below"/><path class="ylines-below"/><g class="overlines-below"/><g class="xaxislayer-below"/><g class="yaxislayer-below"/><g class="overaxes-below"/><g class="plot" transform="translate(84,100)" clip-path="url('#clipe229eexyplot')"><g class="scatterlayer mlayer"><g class="trace scatter tracede707b" style="stroke-miterlimit: 2; opacity: 1;"><g class="fills"/><g class="errorbars"/><g class="lines"><path class="js-line" d="M28.83,36L105.72,56.87L144.17,67.8L221.06,91.13L259.5,103.85L317.17,124.7L336.39,132.21L394.06,157.24L432.5,176.62L451.72,187.2L490.17,211.44L509.39,224.96L547.83,257.65L567.06,276.33L605.5,326.12L624.72,355.89L663.17,446.67L682.39,524.78L720.83,635.23L740.06,659.47L778.5,680.98L797.72,682.04L836.17,683.1L1009.17,683.16L1028.39,683.11L1182.17,682.74" style="vector-effect: non-scaling-stroke; fill: none; stroke: rgb(0, 113, 188); stroke-opacity: 1; stroke-width: 4px; opacity: 1;"/></g><g class="points"/><g class="text"/></g><g class="trace scatter trace83f4c3" style="stroke-miterlimit: 2; opacity: 1;"><g class="fills"/><g class="errorbars"/><g class="lines"><path class="js-line" d="M28.83,684L105.72,673.9L144.17,669.43L317.17,649.43L336.39,646.94L394.06,638.61L432.5,632.1L451.72,628.53L490.17,620.21L509.39,615.53L547.83,603.96L567.06,597.26L605.5,579.04L624.72,567.87L663.17,534.62L682.39,506.01L720.83,482.18L740.06,489.39L778.5,511.16L797.72,523.4L836.17,543.61L855.39,551.63L893.83,565.24L913.06,570.86L951.5,580.63L1009.17,592.2L1028.39,595.43L1086.06,603.84L1124.5,608.54L1182.17,614.56" style="vector-effect: non-scaling-stroke; fill: none; stroke: rgb(216, 82, 24); stroke-opacity: 1; stroke-width: 4px; opacity: 1;"/></g><g class="points"/><g class="text"/></g><g class="trace scatter tracefefddf" style="stroke-miterlimit: 2; opacity: 1;"><g class="fills"/><g class="errorbars"/><g class="lines"><path class="js-line" d="M28.83,684L221.06,683.1L259.5,682.7L394.06,680.37L432.5,679.25L509.39,675.8L547.83,672.84L567.06,671.04L605.5,664.97L624.72,661.46L663.17,643.64L682.39,624.18L720.83,557.19L740.06,514.24L778.5,445.93L797.72,421.74L836.17,386.28L855.39,374.69L893.83,357.76L913.06,352.29L951.5,344.69L970.72,342.51L1009.17,340.05L1028.39,339.76L1066.83,340.3L1124.5,343.48L1143.72,344.99L1182.17,348.43" style="vector-effect: non-scaling-stroke; fill: none; stroke: rgb(236, 176, 31); stroke-opacity: 1; stroke-width: 4px; opacity: 1;"/></g><g class="points"/><g class="text"/></g></g></g><g class="overplot"/><path class="xlines-above crisp" d="M0,0" style="fill: none;"/><path class="ylines-above crisp" d="M0,0" style="fill: none;"/><g class="overlines-above"/><g class="xaxislayer-above"><g class="xtick"><text text-anchor="middle" x="0" y="845" transform="translate(112.83,0)" style="font-family: 'Open Sans', verdana, arial, sans-serif; font-size: 24px; fill: rgb(42, 63, 95); fill-opacity: 1; white-space: pre;">0</text></g><g class="xtick"><text text-anchor="middle" x="0" y="845" transform="translate(401.17,0)" style="font-family: 'Open Sans', verdana, arial, sans-serif; font-size: 24px; fill: rgb(42, 63, 95); fill-opacity: 1; white-space: pre;">0.5</text></g><g class="xtick"><text text-anchor="middle" x="0" y="845" transform="translate(689.5,0)" style="font-family: 'Open Sans', verdana, arial, sans-serif; font-size: 24px; fill: rgb(42, 63, 95); fill-opacity: 1; white-space: pre;">1</text></g><g class="xtick"><text text-anchor="middle" x="0" y="845" transform="translate(977.83,0)" style="font-family: 'Open Sans', verdana, arial, sans-serif; font-size: 24px; fill: rgb(42, 63, 95); fill-opacity: 1; white-space: pre;">1.5</text></g><g class="xtick"><text text-anchor="middle" x="0" y="845" transform="translate(1266.17,0)" style="font-family: 'Open Sans', verdana, arial, sans-serif; font-size: 24px; fill: rgb(42, 63, 95); fill-opacity: 1; white-space: pre;">2</text></g></g><g class="yaxislayer-above"><g class="ytick"><text text-anchor="end" x="83" y="8.399999999999999" transform="translate(0,784)" style="font-family: 'Open Sans', verdana, arial, sans-serif; font-size: 24px; fill: rgb(42, 63, 95); fill-opacity: 1; white-space: pre;">0</text></g><g class="ytick"><text text-anchor="end" x="83" y="8.399999999999999" transform="translate(0,654.4)" style="font-family: 'Open Sans', verdana, arial, sans-serif; font-size: 24px; fill: rgb(42, 63, 95); fill-opacity: 1; white-space: pre;">0.2</text></g><g class="ytick"><text text-anchor="end" x="83" y="8.399999999999999" transform="translate(0,524.8)" style="font-family: 'Open Sans', verdana, arial, sans-serif; font-size: 24px; fill: rgb(42, 63, 95); fill-opacity: 1; white-space: pre;">0.4</text></g><g class="ytick"><text text-anchor="end" x="83" y="8.399999999999999" transform="translate(0,395.2)" style="font-family: 'Open Sans', verdana, arial, sans-serif; font-size: 24px; fill: rgb(42, 63, 95); fill-opacity: 1; white-space: pre;">0.6</text></g><g class="ytick"><text text-anchor="end" x="83" y="8.399999999999999" transform="translate(0,265.6)" style="font-family: 'Open Sans', verdana, arial, sans-serif; font-size: 24px; fill: rgb(42, 63, 95); fill-opacity: 1; white-space: pre;">0.8</text></g><g class="ytick"><text text-anchor="end" x="83" y="8.399999999999999" transform="translate(0,136)" style="font-family: 'Open Sans', verdana, arial, sans-serif; font-size: 24px; fill: rgb(42, 63, 95); fill-opacity: 1; white-space: pre;">1</text></g></g><g class="overaxes-above"/></g></g><g class="polarlayer"/><g class="ternarylayer"/><g class="geolayer"/><g class="funnelarealayer"/><g class="pielayer"/><g class="treemaplayer"/><g class="sunburstlayer"/><g class="glimages"/><defs id="topdefs-e229ee"><g class="clips"/><clipPath id="legende229ee"><rect width="69" height="144" x="0" y="0"/></clipPath></defs><g class="layer-above"><g class="imagelayer"/><g class="shapelayer"/></g><g class="infolayer"><g class="legend" pointer-events="all" transform="translate(1319.22,100)"><rect class="bg" shape-rendering="crispEdges" width="69" height="144" x="0" y="0" style="stroke: rgb(68, 68, 68); stroke-opacity: 1; fill: rgb(255, 255, 255); fill-opacity: 1; stroke-width: 0px;"/><g class="scrollbox" transform="" clip-path="url('#legende229ee')"><g class="groups"><g class="traces" transform="translate(0,27.3)" style="opacity: 1;"><text class="legendtext" text-anchor="start" x="40" y="12.48" style="font-family: 'Open Sans', verdana, arial, sans-serif; font-size: 32px; fill: rgb(42, 63, 95); fill-opacity: 1; white-space: pre;">A</text><g class="layers" style="opacity: 1;"><g class="legendfill"/><g class="legendlines"><path class="js-line" d="M5,0h30" style="fill: none; stroke: rgb(0, 113, 188); stroke-opacity: 1; stroke-width: 4px;"/></g><g class="legendsymbols"><g class="legendpoints"/></g></g><rect class="legendtoggle" x="0" y="-22.3" width="63.109375" height="44.6" style="fill: rgb(0, 0, 0); fill-opacity: 0;"/></g><g class="traces" transform="translate(0,71.9)" style="opacity: 1;"><text class="legendtext" text-anchor="start" x="40" y="12.48" style="font-family: 'Open Sans', verdana, arial, sans-serif; font-size: 32px; fill: rgb(42, 63, 95); fill-opacity: 1; white-space: pre;">B</text><g class="layers" style="opacity: 1;"><g class="legendfill"/><g class="legendlines"><path class="js-line" d="M5,0h30" style="fill: none; stroke: rgb(216, 82, 24); stroke-opacity: 1; stroke-width: 4px;"/></g><g class="legendsymbols"><g class="legendpoints"/></g></g><rect class="legendtoggle" x="0" y="-22.3" width="63.109375" height="44.6" style="fill: rgb(0, 0, 0); fill-opacity: 0;"/></g><g class="traces" transform="translate(0,116.5)" style="opacity: 1;"><text class="legendtext" text-anchor="start" x="40" y="12.48" style="font-family: 'Open Sans', verdana, arial, sans-serif; font-size: 32px; fill: rgb(42, 63, 95); fill-opacity: 1; white-space: pre;">C</text><g class="layers" style="opacity: 1;"><g class="legendfill"/><g class="legendlines"><path class="js-line" d="M5,0h30" style="fill: none; stroke: rgb(236, 176, 31); stroke-opacity: 1; stroke-width: 4px;"/></g><g class="legendsymbols"><g class="legendpoints"/></g></g><rect class="legendtoggle" x="0" y="-22.3" width="63.109375" height="44.6" style="fill: rgb(0, 0, 0); fill-opacity: 0;"/></g></g></g><rect class="scrollbar" rx="20" ry="3" width="0" height="0" x="0" y="0" style="fill: rgb(128, 139, 164); fill-opacity: 1;"/></g><g class="g-gtitle"><text class="gtitle" x="70" y="50" text-anchor="start" dy="0em" style="font-family: 'Open Sans', verdana, arial, sans-serif; font-size: 32px; fill: rgb(42, 63, 95); opacity: 1; font-weight: normal; white-space: pre;">Model: reaction-1 | Concentration Profiles</text></g><g class="g-xtitle"><text class="xtitle" x="689.5" y="887.4" text-anchor="middle" style="font-family: 'Open Sans', verdana, arial, sans-serif; font-size: 32px; fill: rgb(42, 63, 95); opacity: 1; font-weight: normal; white-space: pre;">Time [hr]</text></g><g class="g-ytitle" transform="translate(16.775390625,0)"><text class="ytitle" transform="rotate(-90,12.224999999999994,460)" x="12.224999999999994" y="460" text-anchor="middle" style="font-family: 'Open Sans', verdana, arial, sans-serif; font-size: 32px; fill: rgb(42, 63, 95); opacity: 1; font-weight: normal; white-space: pre;">Concentration [dimensionless]</text></g></g></svg>