<svg class="main-svg" xmlns="http://www.w3.org/2000/svg" xmlns:xlink="http://www.w3.org/1999/xlink" width="1400" height="900" style="" viewBox="0 0 1400 900"><rect x="0" y="0" width="1400" height="900" style="fill: rgb(255, 255, 255); fill-opacity: 1;"/><defs id="defs-ed02ea"><g class="clips"><clipPath id="cliped02eaxyplot" class="plotclip"><rect width="1153" height="720"/></clipPath><clipPath class="axesclip" id="cliped02eax"><rect x="80" y="0" width="1153" height="900"/></clipPath><clipPath class="axesclip" id="cliped02eay"><rect x="0" y="100" width="1400" height="720"/></clipPath><clipPath class="axesclip" id="cliped02eaxy"><rect x="80" y="100" width="1153" height="720"/></clipPath></g><g class="gradients"/></defs><g class="bglayer"><rect class="bg" x="80" y="100" width="1153" height="720" style="fill: rgb(229, 236, 246); fill-opacity: 1; stroke-width: 0;"/></g><g class="layer-below"><g class="imagelayer"/><g class="shapelayer"/></g><g class="cartesianlayer"><g class="subplot xy"><g class="layer-subplot"><g class="shapelayer"/><g class="imagelayer"/></g><g class="gridlayer"><g class="x"><path class="xgrid crisp" transform="translate(368.25,0)" d="M0,100v720" style="stroke: rgb(255, 255, 255); stroke-opacity: 1; stroke-width: 1px;"/><path class="xgrid crisp" transform="translate(629.05,0)" d="M0,100v720" style="stroke: rgb(255, 255, 255); stroke-opacity: 1; stroke-width: 1px;"/><path class="xgrid crisp" transform="translate(889.85,0)" d="M0,100v720" style="stroke: rgb(255, 255, 255); stroke-opacity: 1; stroke-width: 1px;"/><path class="xgrid crisp" transform="translate(1150.65,0)" d="M0,100v720" style="stroke: rgb(255, 255, 255); stroke-opacity: 1; stroke-width: 1px;"/></g><g class="y"><path class="ygrid crisp" transform="translate(0,680.14)" d="M80,0h1153" style="stroke: rgb(255, 255, 255); stroke-opacity: 1; stroke-width: 1px;"/><path class="ygrid crisp" transform="translate(0,576.4100000000001)" d="M80,0h1153" style="stroke: rgb(255, 255, 255); stroke-opacity: 1; stroke-width: 1px;"/><path class="ygrid crisp" transform="translate(0,472.68)" d="M80,0h1153" style="stroke: rgb(255, 255, 255); stroke-opacity: 1; stroke-width: 1px;"/><path class="ygrid crisp" transform="translate(0,368.94)" d="M80,0h1153" style="stroke: rgb(255, 255, 255); stroke-opacity: 1; stroke-width: 1px;"/><path class="ygrid crisp" transform="translate(0,265.21000000000004)" d="M80,0h1153" style="stroke: rgb(255, 255, 255); stroke-opacity: 1; stroke-width: 1px;"/><path class="ygrid crisp" transform="translate(0,161.48)" d="M80,0h1153" style="stroke: rgb(255, 255, 255); stroke-opacity: 1; stroke-width: 1px;"/></g></g><g class="zerolinelayer"><path class="xzl zl crisp" transform="translate(107.45,0)" d="M0,100v720" style="stroke: rgb(78, 78, 78); stroke-opacity: 1; stroke-width: 2px;"/><path class="yzl zl crisp" transform="translate(0,783.88)" d="M80,0h1153" style="stroke: rgb(78, 78, 78); stroke-opacity: 1; stroke-width: 2px;"/></g><path class="xlines-below"/><path class="ylines-below"/><g class="overlines-below"/><g class="xaxislayer-below"/><g class="yaxislayer-below"/><g class="overaxes-below"/><g class="plot" transform="translate(80,100)" clip-path="url('#cliped02eaxyplot')"><g class="scatterlayer mlayer"><g class="trace scatter trace6f4c6d" style="stroke-miterlimit: 2; opacity: 1;"><g class="fills"/><g class="errorbars"/><g class="lines"><path class="js-line" d="M27.45,197.22L29.15,239.57L34.53,320.28L45.52,429.64L49.41,458.72L56.5,493.38L60.4,508.63L67.48,531.01L71.38,541.04L78.46,556.17L82.36,563.16L89.44,573.98L93.34,579.09L104.32,591.09L106.02,592.69L117,601.69L122.38,605.43L138.96,614.86L144.34,617.4L160.93,624.02L166.31,625.85L188.27,632.13L192.17,633.08L221.21,639.01L225.11,639.67L259.75,644.66L265.13,645.31L314.66,650.14L320.04,650.57L334.92,651.98L336.62,652.98L342,661.86L345.9,670.29L347.6,673.72L352.98,682.05L358.58,683.92L363.96,683.87L753.9,683.88L759.28,683.88L1125.55,683.88" style="vector-effect: non-scaling-stroke; fill: none; stroke: rgb(0, 113, 188); stroke-opacity: 1; stroke-width: 4px; opacity: 1;"/></g><g class="points"/><g class="text"/></g><g class="trace scatter trace4c6117" style="stroke-miterlimit: 2; opacity: 1;"><g class="fills"/><g class="errorbars"/><g class="lines"><path class="js-line" d="M27.45,682.96L29.15,677.4L34.53,667.29L40.14,664.86L45.52,664.09L51.12,663.67L56.5,664.38L89.44,672.08L93.34,672.7L117,675.47L122.38,675.94L166.31,678.51L170.2,678.67L259.75,680.89L265.13,680.98L323.94,681.68L325.64,680.53L331.02,683.89L334.92,676.84L336.62,665.28L342,603.04L347.6,545.72L352.98,541.54L358.58,557.85L363.96,569.06L369.56,578.94L374.94,585.56L385.93,593.7L389.82,595.83L396.91,598.73L400.8,599.83L413.49,601.96L418.87,602.49L446.43,603.76L451.81,603.87L539.66,604.46L543.56,604.46L660.45,605.06L664.35,605.51L677.03,608.23L682.41,609.85L709.97,619.86L715.35,621.86L748.3,632.92L752.2,634.08L781.24,641.56L785.14,642.45L819.78,649.23L825.16,650.12L863.71,655.27L869.09,655.82L916.91,659.49L918.61,659.58L967.92,661.08L971.81,661.13L1088.71,661.54L1092.6,661.54L1125.55,661.56" style="vector-effect: non-scaling-stroke; fill: none; stroke: rgb(216, 82, 24); stroke-opacity: 1; stroke-width: 4px; opacity: 1;"/></g><g class="points"/><g class="text"/></g><g class="trace scatter tracebbf112" style="stroke-miterlimit: 2; opacity: 1;"><g class="fills"/><g class="errorbars"/><g class="lines"><path class="js-line" d="M27.45,683.88L29.15,682L34.53,667.2L40.14,648.53L45.52,633.51L60.4,598.97L62.1,595.86L73.08,579.73L78.46,573.73L89.44,564.12L93.34,561.35L106.02,553.98L111.4,551.44L127.98,545.14L133.36,543.48L155.33,538.05L159.22,537.26L188.27,532.51L192.17,531.99L232.19,527.77L236.09,527.44L292.7,523.74L298.08,523.47L323.94,522.29L325.64,523.41L331.02,519.85L334.92,527.13L336.62,539.07L342,602.94L347.6,662.97L352.98,683.16L358.58,683.89L363.96,683.87L753.9,683.88L759.28,683.88L1125.55,683.88" style="vector-effect: non-scaling-stroke; fill: none; stroke: rgb(236, 176, 31); stroke-opacity: 1; stroke-width: 4px; opacity: 1;"/></g><g class="points"/><g class="text"/></g><g class="trace scatter trace3f833c" style="stroke-miterlimit: 2; opacity: 1;"><g class="fills"/><g class="errorbars"/><g class="lines"><path class="js-line" d="M27.45,683.88L331.02,683.9L334.92,682.76L342,677.03L345.9,672.7L347.6,668.91L352.98,614.88L356.88,580.81L358.58,576L363.96,568.25L367.86,565.6L374.94,561.66L378.84,560.26L391.53,557.04L396.91,556.18L413.49,554.83L418.87,554.61L473.77,553.91L477.67,553.89L666.05,553.25L671.43,552.81L698.99,549.1L704.37,548.26L759.28,540.63L763.18,540.19L819.78,535.15L825.16,534.78L885.67,531.78L891.05,531.59L967.92,530.22L971.81,530.2L1125.55,530.02" style="vector-effect: non-scaling-stroke; fill: none; stroke: rgb(125, 46, 141); stroke-opacity: 1; stroke-width: 4px; opacity: 1;"/></g><g class="points"/><g class="text"/></g><g class="trace scatter tracef44d5f" style="stroke-miterlimit: 2; opacity: 1;"><g class="fills"/><g class="errorbars"/><g class="lines"><path class="js-line" d="M27.45,682.96L29.15,673.64L34.53,633.94L40.14,594.16L45.52,563.34L56.5,510.33L60.4,495.59L67.48,473.99L71.38,464.32L78.46,449.73L82.36,443L89.44,432.57L93.34,427.64L104.32,416.09L106.02,414.55L117,405.88L122.38,402.28L138.96,393.19L144.34,390.75L160.93,384.37L166.31,382.61L192.17,375.65L193.87,375.26L226.81,369.03L232.19,368.19L270.74,363.26L276.12,362.69L323.94,358.52L325.64,356.91L331.02,360.5L334.92,352.95L336.62,340.51L342,264.99L347.6,191.12L352.98,199.68L356.88,215.49L358.58,213.46L369.56,180.81L374.94,169.22L380.55,161.12L385.93,154.95L391.53,149.78L396.91,146.14L407.89,141.78L411.79,140.82L424.47,138.84L429.85,138.32L457.41,136.95L462.79,136.81L534.28,136.11L539.66,136.1L660.45,135.03L664.35,134.25L671.43,131.97L675.33,130.29L688.01,123.36L693.39,119.99L741.21,90.02L742.92,89.08L764.88,78.05L770.26,75.66L797.82,64.77L803.2,62.9L830.76,54.51L836.14,53.09L863.71,47.03L869.09,46.07L902.03,41.22L905.93,40.77L940.57,37.84L945.95,37.57L993.78,36.44L995.48,36.43L1125.55,36" style="vector-effect: non-scaling-stroke; fill: none; stroke: rgb(118, 171, 47); stroke-opacity: 1; stroke-width: 4px; opacity: 1;"/></g><g class="points"/><g class="text"/></g><g class="trace scatter trace1282d2" style="stroke-miterlimit: 2; opacity: 1;"><g class="fills"/><g class="errorbars"/><g class="lines"><path class="js-line" d="M27.45,628.31L29.15,602.62L34.53,587.34L38.43,591.78L40.14,590.41L45.52,588.34L49.41,589.4L56.5,606.38L60.4,613.48L67.48,623.68L71.38,628.18L78.46,634.91L82.36,638L93.34,645.01L95.04,645.92L111.4,653.01L115.3,654.35L133.36,659.39L137.26,660.28L160.93,664.65L166.31,665.45L204.85,669.82L210.23,670.29L259.75,673.64L265.13,673.92L358.58,678.02L363.96,677.83L402.51,677.15L407.89,677.13L616.53,677.05L620.42,677.05L829.06,676.05L830.76,676.04L1125.55,675.81" style="vector-effect: non-scaling-stroke; fill: none; stroke: rgb(76, 189, 237); stroke-opacity: 1; stroke-width: 4px; opacity: 1;"/></g><g class="points"/><g class="text"/></g></g></g><g class="overplot"/><path class="xlines-above crisp" d="M0,0" style="fill: none;"/><path class="ylines-above crisp" d="M0,0" style="fill: none;"/><g class="overlines-above"/><g class="xaxislayer-above"><g class="xtick"><text text-anchor="middle" x="0" y="845" transform="translate(107.45,0)" style="font-family: 'Open Sans', verdana, arial, sans-serif; font-size: 24px; fill: rgb(42, 63, 95); fill-opacity: 1; white-space: pre;">0</text></g><g class="xtick"><text text-anchor="middle" x="0" y="845" transform="translate(368.25,0)" style="font-family: 'Open Sans', verdana, arial, sans-serif; font-size: 24px; fill: rgb(42, 63, 95); fill-opacity: 1; white-space: pre;">50</text></g><g class="xtick"><text text-anchor="middle" x="0" y="845" transform="translate(629.05,0)" style="font-family: 'Open Sans', verdana, arial, sans-serif; font-size: 24px; fill: rgb(42, 63, 95); fill-opacity: 1; white-space: pre;">100</text></g><g class="xtick"><text text-anchor="middle" x="0" y="845" transform="translate(889.85,0)" style="font-family: 'Open Sans', verdana, arial, sans-serif; font-size: 24px; fill: rgb(42, 63, 95); fill-opacity: 1; white-space: pre;">150</text></g><g class="xtick"><text text-anchor="middle" x="0" y="845" transform="translate(1150.65,0)" style="font-family: 'Open Sans', verdana, arial, sans-serif; font-size: 24px; fill: rgb(42, 63, 95); fill-opacity: 1; white-space: pre;">200</text></g></g><g class="yaxislayer-above"><g class="ytick"><text text-anchor="end" x="79" y="8.399999999999999" transform="translate(0,783.88)" style="font-family: 'Open Sans', verdana, arial, sans-serif; font-size: 24px; fill: rgb(42, 63, 95); fill-opacity: 1; white-space: pre;">0</text></g><g class="ytick"><text text-anchor="end" x="79" y="8.399999999999999" transform="translate(0,680.14)" style="font-family: 'Open Sans', verdana, arial, sans-serif; font-size: 24px; fill: rgb(42, 63, 95); fill-opacity: 1; white-space: pre;">2</text></g><g class="ytick"><text text-anchor="end" x="79" y="8.399999999999999" transform="translate(0,576.4100000000001)" style="font-family: 'Open Sans', verdana, arial, sans-serif; font-size: 24px; fill: rgb(42, 63, 95); fill-opacity: 1; white-space: pre;">4</text></g><g class="ytick"><text text-anchor="end" x="79" y="8.399999999999999" transform="translate(0,472.68)" style="font-family: 'Open Sans', verdana, arial, sans-serif; font-size: 24px; fill: rgb(42, 63, 95); fill-opacity: 1; white-space: pre;">6</text></g><g class="ytick"><text text-anchor="end" x="79" y="8.399999999999999" transform="translate(0,368.94)" style="font-family: 'Open Sans', verdana, arial, sans-serif; font-size: 24px; fill: rgb(42, 63, 95); fill-opacity: 1; white-space: pre;">8</text></g><g class="ytick"><text text-anchor="end" x="79" y="8.399999999999999" transform="translate(0,265.21000000000004)" style="font-family: 'Open Sans', verdana, arial, sans-serif; font-size: 24px; fill: rgb(42, 63, 95); fill-opacity: 1; white-space: pre;">10</text></g><g class="ytick"><text text-anchor="end" x="79" y="8.399999999999999" transform="translate(0,161.48)" style="font-family: 'Open Sans', verdana, arial, sans-serif; font-size: 24px; fill: rgb(42, 63, 95); fill-opacity: 1; white-space: pre;">12</text></g></g><g class="overaxes-above"/></g></g><g class="polarlayer"/><g class="ternarylayer"/><g class="geolayer"/><g class="funnelarealayer"/><g class="pielayer"/><g class="treemaplayer"/><g class="sunburstlayer"/><g class="glimages"/><defs id="topdefs-ed02ea"><g class="clips"/><clipPath id="legended02ea"><rect width="132" height="278" x="0" y="0"/></clipPath></defs><g class="layer-above"><g class="imagelayer"/><g class="shapelayer"/></g><g class="infolayer"><g class="legend" pointer-events="all" transform="translate(1256.06,100)"><rect class="bg" shape-rendering="crispEdges" width="132" height="278" x="0" y="0" style="stroke: rgb(68, 68, 68); stroke-opacity: 1; fill: rgb(255, 255, 255); fill-opacity: 1; stroke-width: 0px;"/><g class="scrollbox" transform="" clip-path="url('#legended02ea')"><g class="groups"><g class="traces" transform="translate(0,27.3)" style="opacity: 1;"><text class="legendtext" text-anchor="start" x="40" y="12.48" style="font-family: 'Open Sans', verdana, arial, sans-serif; font-size: 32px; fill: rgb(42, 63, 95); fill-opacity: 1; white-space: pre;">AA</text><g class="layers" style="opacity: 1;"><g class="legendfill"/><g class="legendlines"><path class="js-line" d="M5,0h30" style="fill: none; stroke: rgb(0, 113, 188); stroke-opacity: 1; stroke-width: 4px;"/></g><g class="legendsymbols"><g class="legendpoints"/></g></g><rect class="legendtoggle" x="0" y="-22.3" width="126.03125" height="44.6" style="fill: rgb(0, 0, 0); fill-opacity: 0;"/></g><g class="traces" transform="translate(0,71.9)" style="opacity: 1;"><text class="legendtext" text-anchor="start" x="40" y="12.48" style="font-family: 'Open Sans', verdana, arial, sans-serif; font-size: 32px; fill: rgb(42, 63, 95); fill-opacity: 1; white-space: pre;">ASA</text><g class="layers" style="opacity: 1;"><g class="legendfill"/><g class="legendlines"><path class="js-line" d="M5,0h30" style="fill: none; stroke: rgb(216, 82, 24); stroke-opacity: 1; stroke-width: 4px;"/></g><g class="legendsymbols"><g class="legendpoints"/></g></g><rect class="legendtoggle" x="0" y="-22.3" width="126.03125" height="44.6" style="fill: rgb(0, 0, 0); fill-opacity: 0;"/></g><g class="traces" transform="translate(0,116.5)" style="opacity: 1;"><text class="legendtext" text-anchor="start" x="40" y="12.48" style="font-family: 'Open Sans', verdana, arial, sans-serif; font-size: 32px; fill: rgb(42, 63, 95); fill-opacity: 1; white-space: pre;">ASAA</text><g class="layers" style="opacity: 1;"><g class="legendfill"/><g class="legendlines"><path class="js-line" d="M5,0h30" style="fill: none; stroke: rgb(236, 176, 31); stroke-opacity: 1; stroke-width: 4px;"/></g><g class="legendsymbols"><g class="legendpoints"/></g></g><rect class="legendtoggle" x="0" y="-22.3" width="126.03125" height="44.6" style="fill: rgb(0, 0, 0); fill-opacity: 0;"/></g><g class="traces" transform="translate(0,161.10000000000002)" style="opacity: 1;"><text class="legendtext" text-anchor="start" x="40" y="12.48" style="font-family: 'Open Sans', verdana, arial, sans-serif; font-size: 32px; fill: rgb(42, 63, 95); fill-opacity: 1; white-space: pre;">H2O</text><g class="layers" style="opacity: 1;"><g class="legendfill"/><g class="legendlines"><path class="js-line" d="M5,0h30" style="fill: none; stroke: rgb(125, 46, 141); stroke-opacity: 1; stroke-width: 4px;"/></g><g class="legendsymbols"><g class="legendpoints"/></g></g><rect class="legendtoggle" x="0" y="-22.3" width="126.03125" height="44.6" style="fill: rgb(0, 0, 0); fill-opacity: 0;"/></g><g class="traces" transform="translate(0,205.70000000000002)" style="opacity: 1;"><text class="legendtext" text-anchor="start" x="40" y="12.48" style="font-family: 'Open Sans', verdana, arial, sans-serif; font-size: 32px; fill: rgb(42, 63, 95); fill-opacity: 1; white-space: pre;">HA</text><g class="layers" style="opacity: 1;"><g class="legendfill"/><g class="legendlines"><path class="js-line" d="M5,0h30" style="fill: none; stroke: rgb(118, 171, 47); stroke-opacity: 1; stroke-width: 4px;"/></g><g class="legendsymbols"><g class="legendpoints"/></g></g><rect class="legendtoggle" x="0" y="-22.3" width="126.03125" height="44.6" style="fill: rgb(0, 0, 0); fill-opacity: 0;"/></g><g class="traces" transform="translate(0,250.3)" style="opacity: 1;"><text class="legendtext" text-anchor="start" x="40" y="12.48" style="font-family: 'Open Sans', verdana, arial, sans-serif; font-size: 32px; fill: rgb(42, 63, 95); fill-opacity: 1; white-space: pre;">SA</text><g class="layers" style="opacity: 1;"><g class="legendfill"/><g class="legendlines"><path class="js-line" d="M5,0h30" style="fill: none; stroke: rgb(76, 189, 237); stroke-opacity: 1; stroke-width: 4px;"/></g><g class="legendsymbols"><g class="legendpoints"/></g></g><rect class="legendtoggle" x="0" y="-22.3" width="126.03125" height="44.6" style="fill: rgb(0, 0, 0); fill-opacity: 0;"/></g></g></g><rect class="scrollbar" rx="20" ry="3" width="0" height="0" x="0" y="0" style="fill: rgb(128, 139, 164); fill-opacity: 1;"/></g><g class="g-gtitle"><text class="gtitle" x="70" y="50" text-anchor="start" dy="0em" style="font-family: 'Open Sans', verdana, arial, sans-serif; font-size: 32px; fill: rgb(42, 63, 95); opacity: 1; font-weight: normal; white-space: pre;">Model: reaction-1 | Concentration Profiles</text></g><g class="g-xtitle"><text class="xtitle" x="656.5" y="887.4" text-anchor="middle" style="font-family: 'Open Sans', verdana, arial, sans-serif; font-size: 32px; fill: rgb(42, 63, 95); opacity: 1; font-weight: normal; white-space: pre;">Time [hr]</text></g><g class="g-ytitle" transform="translate(14.103515625,0)"><text class="ytitle" transform="rotate(-90,14.896874999999994,460)" x="14.896874999999994" y="460" text-anchor="middle" style="font-family: 'Open Sans', verdana, arial, sans-serif; font-size: 32px; fill: rgb(42, 63, 95); opacity: 1; font-weight: normal; white-space: pre;">Concentration [dimensionless]</text></g></g></svg>