<svg class="main-svg" xmlns="http://www.w3.org/2000/svg" xmlns:xlink="http://www.w3.org/1999/xlink" width="1400" height="900" style="" viewBox="0 0 1400 900"><rect x="0" y="0" width="1400" height="900" style="fill: rgb(255, 255, 255); fill-opacity: 1;"/><defs id="defs-7de79b"><g class="clips"><clipPath id="clip7de79bxyplot" class="plotclip"><rect width="1200" height="720"/></clipPath><clipPath class="axesclip" id="clip7de79bx"><rect x="97" y="0" width="1200" height="900"/></clipPath><clipPath class="axesclip" id="clip7de79by"><rect x="0" y="100" width="1400" height="720"/></clipPath><clipPath class="axesclip" id="clip7de79bxy"><rect x="97" y="100" width="1200" height="720"/></clipPath></g><g class="gradients"/></defs><g class="bglayer"><rect class="bg" x="97" y="100" width="1200" height="720" style="fill: rgb(229, 236, 246); fill-opacity: 1; stroke-width: 0;"/></g><g class="layer-below"><g class="imagelayer"/><g class="shapelayer"/></g><g class="cartesianlayer"><g class="subplot xy"><g class="layer-subplot"><g class="shapelayer"/><g class="imagelayer"/></g><g class="gridlayer"><g class="x"><path class="xgrid crisp" transform="translate(114.03,0)" d="M0,100v720" style="stroke: rgb(255, 255, 255); stroke-opacity: 1; stroke-width: 1px;"/><path class="xgrid crisp" transform="translate(344.90999999999997,0)" d="M0,100v720" style="stroke: rgb(255, 255, 255); stroke-opacity: 1; stroke-width: 1px;"/><path class="xgrid crisp" transform="translate(575.79,0)" d="M0,100v720" style="stroke: rgb(255, 255, 255); stroke-opacity: 1; stroke-width: 1px;"/><path class="xgrid crisp" transform="translate(806.67,0)" d="M0,100v720" style="stroke: rgb(255, 255, 255); stroke-opacity: 1; stroke-width: 1px;"/><path class="xgrid crisp" transform="translate(1037.55,0)" d="M0,100v720" style="stroke: rgb(255, 255, 255); stroke-opacity: 1; stroke-width: 1px;"/><path class="xgrid crisp" transform="translate(1268.43,0)" d="M0,100v720" style="stroke: rgb(255, 255, 255); stroke-opacity: 1; stroke-width: 1px;"/></g><g class="y"><path class="ygrid crisp" transform="translate(0,627.08)" d="M97,0h1200" style="stroke: rgb(255, 255, 255); stroke-opacity: 1; stroke-width: 1px;"/><path class="ygrid crisp" transform="translate(0,470.15)" d="M97,0h1200" style="stroke: rgb(255, 255, 255); stroke-opacity: 1; stroke-width: 1px;"/><path class="ygrid crisp" transform="translate(0,313.23)" d="M97,0h1200" style="stroke: rgb(255, 255, 255); stroke-opacity: 1; stroke-width: 1px;"/><path class="ygrid crisp" transform="translate(0,156.3)" d="M97,0h1200" style="stroke: rgb(255, 255, 255); stroke-opacity: 1; stroke-width: 1px;"/></g></g><g class="zerolinelayer"><path class="yzl zl crisp" transform="translate(0,784)" d="M97,0h1200" style="stroke: rgb(78, 78, 78); stroke-opacity: 1; stroke-width: 2px;"/></g><path class="xlines-below"/><path class="ylines-below"/><g class="overlines-below"/><g class="xaxislayer-below"/><g class="yaxislayer-below"/><g class="overaxes-below"/><g class="plot" transform="translate(97,100)" clip-path="url('#clip7de79bxyplot')"><g class="scatterlayer mlayer"><g class="trace scatter trace790275" style="stroke-miterlimit: 2; opacity: 1;"><g class="fills"/><g class="errorbars"/><g class="lines"><path class="js-line" d="M28.57,445L40.12,450.9L51.66,438.95L63.2,431.89L74.75,418.51L86.29,406.8L97.84,426.93L109.38,421.43L120.92,440.8L132.47,442.72L144.01,425.63L155.56,422.81L167.1,439.36L178.64,442.33L190.19,433.7L201.73,440.3L213.28,431.58L224.82,436.96L236.36,433.18L247.91,438.23L259.45,433.29L271,434.13L282.54,448.88L294.08,451.11L305.63,458.19L317.17,465.06L328.72,456.83L340.26,457.27L351.8,469.58L363.35,473.31L374.89,472.91L386.44,482.96L397.98,479.36L409.52,477.99L421.07,482.91L432.61,474.61L444.16,460.12L455.7,445.27L467.24,451.15L478.79,439.2L490.33,432.71L501.88,440.41L513.42,453.12L524.96,458.72L536.51,457.04L548.05,451.29L559.6,443.59L582.68,426.35L594.23,397.93L605.77,375.52L617.32,376.21L628.86,372.58L640.4,361.29L651.95,367.48L663.49,378.96L675.04,374.93L686.58,364.19L698.12,350.22L709.67,344.66L721.21,331.95L732.76,317.19L744.3,307.15L755.84,302.06L767.39,293.58L778.93,283.68L790.48,272.43L802.02,279.49L813.56,291.1L825.11,293.12L836.65,305.68L848.2,308.85L859.74,318.78L871.28,320.4L882.83,333.21L894.37,330.19L905.92,334.25L917.46,342.01L940.55,324.34L952.09,299.97L963.64,280.17L975.18,290.09L998.27,300.52L1009.81,302.4L1021.36,282.19L1032.9,270.31L1055.99,231.41L1067.53,250.09L1090.62,284.51L1102.16,283.98L1113.71,300.64L1125.25,290.18L1136.8,269.57L1148.34,264.22L1159.88,279.97L1171.43,282.08" style="vector-effect: non-scaling-stroke; fill: none; stroke: rgb(0, 113, 188); stroke-opacity: 1; stroke-width: 4px; opacity: 1;"/></g><g class="points"/><g class="text"/></g><g class="trace scatter trace1d70c3" style="stroke-miterlimit: 2; opacity: 1;"><g class="fills"/><g class="errorbars"/><g class="lines"><path class="js-line" d="M28.57,375.03L40.12,399.08L51.66,458.36L63.2,507.71L74.75,595.83L86.29,656.5L97.84,652.02L109.38,684L120.92,684L144.01,684L155.56,654.16L167.1,592.98L178.64,550.33L190.19,543.44L201.73,558.23L213.28,566.96L224.82,550.76L236.36,525.99L247.91,521.43L259.45,527.58L271,496.75L282.54,469.38L294.08,445.52L305.63,444.87L317.17,423.08L340.26,420.56L351.8,405.9L363.35,423.01L374.89,412.91L386.44,398.19L397.98,393.82L409.52,358.72L421.07,307.05L432.61,245.58L444.16,168.29L455.7,86.97L467.24,39.8L478.79,36L490.33,54.09L501.88,50.27L513.42,54.06L524.96,82.27L536.51,114.49L559.6,213.78L571.14,270.98L582.68,323.06L594.23,392.91L605.77,484.72L617.32,438.02L628.86,410.84L640.4,368.17L651.95,283.3L663.49,166.44L686.58,123.46L698.12,134.37L709.67,133.71L721.21,169.12L732.76,221.08L744.3,257.42L755.84,308.83L767.39,374.64L778.93,426.31L790.48,493.34L802.02,510.78L813.56,494.31L825.11,502.43L836.65,508.67L848.2,521.6L859.74,496.04L871.28,486.74L882.83,470.25L894.37,467.98L905.92,456.91L917.46,459.1L929,466.48L940.55,459.13L952.09,467.23L963.64,415.72L975.18,340.25L986.72,299.07L998.27,271.35L1009.81,280.71L1021.36,333.81L1032.9,380.8L1044.44,386.39L1055.99,386.53L1067.53,292.16L1079.08,219.7L1090.62,168.27L1102.16,146.44L1113.71,111.91L1125.25,164.47L1136.8,227.01L1148.34,258.94L1159.88,222.6L1171.43,236.8" style="vector-effect: non-scaling-stroke; fill: none; stroke: rgb(216, 82, 24); stroke-opacity: 1; stroke-width: 4px; opacity: 1;"/></g><g class="points"/><g class="text"/></g></g></g><g class="overplot"/><path class="xlines-above crisp" d="M0,0" style="fill: none;"/><path class="ylines-above crisp" d="M0,0" style="fill: none;"/><g class="overlines-above"/><g class="xaxislayer-above"><g class="xtick"><text text-anchor="middle" x="0" y="845" transform="translate(114.03,0)" style="font-family: 'Open Sans', verdana, arial, sans-serif; font-size: 24px; fill: rgb(42, 63, 95); fill-opacity: 1; white-space: pre;">1600</text></g><g class="xtick"><text text-anchor="middle" x="0" y="845" transform="translate(344.90999999999997,0)" style="font-family: 'Open Sans', verdana, arial, sans-serif; font-size: 24px; fill: rgb(42, 63, 95); fill-opacity: 1; white-space: pre;">1800</text></g><g class="xtick"><text text-anchor="middle" x="0" y="845" transform="translate(575.79,0)" style="font-family: 'Open Sans', verdana, arial, sans-serif; font-size: 24px; fill: rgb(42, 63, 95); fill-opacity: 1; white-space: pre;">2000</text></g><g class="xtick"><text text-anchor="middle" x="0" y="845" transform="translate(806.67,0)" style="font-family: 'Open Sans', verdana, arial, sans-serif; font-size: 24px; fill: rgb(42, 63, 95); fill-opacity: 1; white-space: pre;">2200</text></g><g class="xtick"><text text-anchor="middle" x="0" y="845" transform="translate(1037.55,0)" style="font-family: 'Open Sans', verdana, arial, sans-serif; font-size: 24px; fill: rgb(42, 63, 95); fill-opacity: 1; white-space: pre;">2400</text></g><g class="xtick"><text text-anchor="middle" x="0" y="845" transform="translate(1268.43,0)" style="font-family: 'Open Sans', verdana, arial, sans-serif; font-size: 24px; fill: rgb(42, 63, 95); fill-opacity: 1; white-space: pre;">2600</text></g></g><g class="yaxislayer-above"><g class="ytick"><text text-anchor="end" x="96" y="8.399999999999999" transform="translate(0,784)" style="font-family: 'Open Sans', verdana, arial, sans-serif; font-size: 24px; fill: rgb(42, 63, 95); fill-opacity: 1; white-space: pre;">0</text></g><g class="ytick"><text text-anchor="end" x="96" y="8.399999999999999" transform="translate(0,627.08)" style="font-family: 'Open Sans', verdana, arial, sans-serif; font-size: 24px; fill: rgb(42, 63, 95); fill-opacity: 1; white-space: pre;">0.05</text></g><g class="ytick"><text text-anchor="end" x="96" y="8.399999999999999" transform="translate(0,470.15)" style="font-family: 'Open Sans', verdana, arial, sans-serif; font-size: 24px; fill: rgb(42, 63, 95); fill-opacity: 1; white-space: pre;">0.1</text></g><g class="ytick"><text text-anchor="end" x="96" y="8.399999999999999" transform="translate(0,313.23)" style="font-family: 'Open Sans', verdana, arial, sans-serif; font-size: 24px; fill: rgb(42, 63, 95); fill-opacity: 1; white-space: pre;">0.15</text></g><g class="ytick"><text text-anchor="end" x="96" y="8.399999999999999" transform="translate(0,156.3)" style="font-family: 'Open Sans', verdana, arial, sans-serif; font-size: 24px; fill: rgb(42, 63, 95); fill-opacity: 1; white-space: pre;">0.2</text></g></g><g class="overaxes-above"/></g></g><g class="polarlayer"/><g class="ternarylayer"/><g class="geolayer"/><g class="funnelarealayer"/><g class="pielayer"/><g class="treemaplayer"/><g class="sunburstlayer"/><g class="glimages"/><defs id="topdefs-7de79b"><g class="clips"/><clipPath id="legend7de79b"><rect width="67" height="100" x="0" y="0"/></clipPath></defs><g class="layer-above"><g class="imagelayer"/><g class="shapelayer"/></g><g class="infolayer"><g class="legend" pointer-events="all" transform="translate(1321,100)"><rect class="bg" shape-rendering="crispEdges" width="67" height="100" x="0" y="0" style="stroke: rgb(68, 68, 68); stroke-opacity: 1; fill: rgb(255, 255, 255); fill-opacity: 1; stroke-width: 0px;"/><g class="scrollbox" transform="" clip-path="url('#legend7de79b')"><g class="groups"><g class="traces" transform="translate(0,27.3)" style="opacity: 1;"><text class="legendtext" text-anchor="start" x="40" y="12.48" style="font-family: 'Open Sans', verdana, arial, sans-serif; font-size: 32px; fill: rgb(42, 63, 95); fill-opacity: 1; white-space: pre;">A</text><g class="layers" style="opacity: 1;"><g class="legendfill"/><g class="legendlines"><path class="js-line" d="M5,0h30" style="fill: none; stroke: rgb(0, 113, 188); stroke-opacity: 1; stroke-width: 4px;"/></g><g class="legendsymbols"><g class="legendpoints"/></g></g><rect class="legendtoggle" x="0" y="-22.3" width="62" height="44.6" style="fill: rgb(0, 0, 0); fill-opacity: 0;"/></g><g class="traces" transform="translate(0,71.9)" style="opacity: 1;"><text class="legendtext" text-anchor="start" x="40" y="12.48" style="font-family: 'Open Sans', verdana, arial, sans-serif; font-size: 32px; fill: rgb(42, 63, 95); fill-opacity: 1; white-space: pre;">B</text><g class="layers" style="opacity: 1;"><g class="legendfill"/><g class="legendlines"><path class="js-line" d="M5,0h30" style="fill: none; stroke: rgb(216, 82, 24); stroke-opacity: 1; stroke-width: 4px;"/></g><g class="legendsymbols"><g class="legendpoints"/></g></g><rect class="legendtoggle" x="0" y="-22.3" width="62" height="44.6" style="fill: rgb(0, 0, 0); fill-opacity: 0;"/></g></g></g><rect class="scrollbar" rx="20" ry="3" width="0" height="0" x="0" y="0" style="fill: rgb(128, 139, 164); fill-opacity: 1;"/></g><g class="g-gtitle"><text class="gtitle" x="70" y="50" text-anchor="start" dy="0em" style="font-family: 'Open Sans', verdana, arial, sans-serif; font-size: 32px; fill: rgb(42, 63, 95); opacity: 1; font-weight: normal; white-space: pre;">Model: reaction-1 | Description: Single species absorbance profiles</text></g><g class="g-xtitle"><text class="xtitle" x="697" y="887.4" text-anchor="middle" style="font-family: 'Open Sans', verdana, arial, sans-serif; font-size: 32px; fill: rgb(42, 63, 95); opacity: 1; font-weight: normal; white-space: pre;">Wavelength [centimeter]</text></g><g class="g-ytitle" transform="translate(17.119140625,0)"><text class="ytitle" transform="rotate(-90,11.881249999999994,460)" x="11.881249999999994" y="460" text-anchor="middle" style="font-family: 'Open Sans', verdana, arial, sans-serif; font-size: 32px; fill: rgb(42, 63, 95); opacity: 1; font-weight: normal; white-space: pre;">Absorbance [liter / mol / centimeter]</text></g></g></svg>