<svg class="main-svg" xmlns="http://www.w3.org/2000/svg" xmlns:xlink="http://www.w3.org/1999/xlink" width="1400" height="900" style="" viewBox="0 0 1400 900"><rect x="0" y="0" width="1400" height="900" style="fill: rgb(255, 255, 255); fill-opacity: 1;"/><defs id="defs-c8b709"><g class="clips"><clipPath id="clipc8b709xyplot" class="plotclip"><rect width="1210" height="720"/></clipPath><clipPath class="axesclip" id="clipc8b709x"><rect x="84" y="0" width="1210" height="900"/></clipPath><clipPath class="axesclip" id="clipc8b709y"><rect x="0" y="100" width="1400" height="720"/></clipPath><clipPath class="axesclip" id="clipc8b709xy"><rect x="84" y="100" width="1210" height="720"/></clipPath></g><g class="gradients"/></defs><g class="bglayer"><rect class="bg" x="84" y="100" width="1210" height="720" style="fill: rgb(229, 236, 246); fill-opacity: 1; stroke-width: 0;"/></g><g class="layer-below"><g class="imagelayer"/><g class="shapelayer"/></g><g class="cartesianlayer"><g class="subplot xy"><g class="layer-subplot"><g class="shapelayer"/><g class="imagelayer"/></g><g class="gridlayer"><g class="x"><path class="xgrid crisp" transform="translate(400.9,0)" d="M0,100v720" style="stroke: rgb(255, 255, 255); stroke-opacity: 1; stroke-width: 1px;"/><path class="xgrid crisp" transform="translate(689,0)" d="M0,100v720" style="stroke: rgb(255, 255, 255); stroke-opacity: 1; stroke-width: 1px;"/><path class="xgrid crisp" transform="translate(977.1,0)" d="M0,100v720" style="stroke: rgb(255, 255, 255); stroke-opacity: 1; stroke-width: 1px;"/><path class="xgrid crisp" transform="translate(1265.19,0)" d="M0,100v720" style="stroke: rgb(255, 255, 255); stroke-opacity: 1; stroke-width: 1px;"/></g><g class="y"><path class="ygrid crisp" transform="translate(0,654.4)" d="M84,0h1210" style="stroke: rgb(255, 255, 255); stroke-opacity: 1; stroke-width: 1px;"/><path class="ygrid crisp" transform="translate(0,524.8)" d="M84,0h1210" style="stroke: rgb(255, 255, 255); stroke-opacity: 1; stroke-width: 1px;"/><path class="ygrid crisp" transform="translate(0,395.2)" d="M84,0h1210" style="stroke: rgb(255, 255, 255); stroke-opacity: 1; stroke-width: 1px;"/><path class="ygrid crisp" transform="translate(0,265.6)" d="M84,0h1210" style="stroke: rgb(255, 255, 255); stroke-opacity: 1; stroke-width: 1px;"/><path class="ygrid crisp" transform="translate(0,136)" d="M84,0h1210" style="stroke: rgb(255, 255, 255); stroke-opacity: 1; stroke-width: 1px;"/></g></g><g class="zerolinelayer"><path class="xzl zl crisp" transform="translate(112.81,0)" d="M0,100v720" style="stroke: rgb(78, 78, 78); stroke-opacity: 1; stroke-width: 2px;"/><path class="yzl zl crisp" transform="translate(0,784)" d="M84,0h1210" style="stroke: rgb(78, 78, 78); stroke-opacity: 1; stroke-width: 2px;"/></g><path class="xlines-below"/><path class="ylines-below"/><g class="overlines-below"/><g class="xaxislayer-below"/><g class="yaxislayer-below"/><g class="overaxes-below"/><g class="plot" transform="translate(84,100)" clip-path="url('#clipc8b709xyplot')"><g class="scatterlayer mlayer"><g class="trace scatter tracef204f2" style="stroke-miterlimit: 2; opacity: 1;"><g class="fills"/><g class="errorbars"/><g class="lines"><path class="js-line" d="M28.81,36L43.67,143.07L51.86,194.25L66.72,275.17L74.9,313.86L89.77,375.03L97.95,404.27L112.82,450.5L121,472.6L135.86,507.54L144.05,524.25L158.91,550.65L167.1,563.28L181.96,583.24L190.14,592.78L205.01,607.86L213.19,615.07L228.06,626.47L236.24,631.92L251.1,640.53L259.29,644.65L274.15,651.16L282.33,654.27L305.38,661.54L308.95,662.5L332,667.76L343.29,669.84L378.1,674.73L389.39,675.92L435.48,679.39L443.67,679.83L512.81,682.2L516.38,682.28L631.62,683.58L642.91,683.63L919.48,683.99L927.67,683.99L1181.19,684" style="vector-effect: non-scaling-stroke; fill: none; stroke: rgb(0, 113, 188); stroke-opacity: 1; stroke-width: 4px; opacity: 1;"/></g><g class="points"/><g class="text"/></g><g class="trace scatter trace90c1bb" style="stroke-miterlimit: 2; opacity: 1;"><g class="fills"/><g class="errorbars"/><g class="lines"><path class="js-line" d="M28.81,684L32.38,672.28L43.67,639.31L55.43,610.88L66.72,588.44L78.48,569.42L89.77,554.74L101.53,542.65L112.82,533.66L124.57,526.63L135.86,521.78L147.62,518.41L158.91,516.53L170.67,515.78L181.96,516.02L205.01,518.82L213.19,520.4L239.81,527.07L251.1,530.41L297.2,545.8L305.38,548.68L401.14,581.5L412.44,585.06L466.71,600.91L470.29,601.88L527.67,616.13L535.86,617.97L585.53,628.19L596.82,630.29L654.67,639.94L665.96,641.61L735.1,650.6L743.29,651.53L816,658.75L827.29,659.72L919.48,666.36L927.67,666.85L1034.72,672.17L1042.9,672.5L1173.01,676.68L1181.19,676.88" style="vector-effect: non-scaling-stroke; fill: none; stroke: rgb(216, 82, 24); stroke-opacity: 1; stroke-width: 4px; opacity: 1;"/></g><g class="points"/><g class="text"/></g><g class="trace scatter trace69ef12" style="stroke-miterlimit: 2; opacity: 1;"><g class="fills"/><g class="errorbars"/><g class="lines"><path class="js-line" d="M28.81,684L43.67,683.42L51.86,682.69L78.48,679.01L89.77,677.08L181.96,661.49L190.14,660.42L228.06,656.39L236.24,655.71L282.33,653.16L285.91,653.04L343.29,652.42L351.48,652.5L412.44,654.04L420.62,654.35L527.67,659.45L535.86,659.88L746.86,670.12L758.15,670.58L908.19,675.54L919.48,675.84L1092.57,679.36L1103.86,679.53L1181.19,680.55" style="vector-effect: non-scaling-stroke; fill: none; stroke: rgb(236, 176, 31); stroke-opacity: 1; stroke-width: 4px; opacity: 1;"/></g><g class="points"/><g class="text"/></g><g class="trace scatter trace81499a" style="stroke-miterlimit: 2; opacity: 1;"><g class="fills"/><g class="errorbars"/><g class="lines"><path class="js-line" d="M28.81,671.04L32.38,655.44L43.67,611L55.43,571.76L66.72,539.93L78.48,512.07L89.77,489.7L101.53,470.38L112.82,455.1L124.57,442.15L135.86,432.16L147.62,423.97L158.91,417.92L170.67,413.26L181.96,410.13L193.72,408.08L205.01,407.1L228.06,407.55L236.24,408.36L259.29,412.05L262.86,412.78L297.2,421.36L305.38,423.73L351.48,438.48L355.05,439.69L516.38,494.33L527.67,497.88L596.82,518.47L605,520.77L665.96,537L674.14,539.05L746.86,556.16L758.15,558.63L835.48,574.35L839.05,575.03L919.48,589.21L927.67,590.55L1011.67,603.22L1019.86,604.36L1115.62,616.56L1126.91,617.86L1181.19,623.81" style="vector-effect: non-scaling-stroke; fill: none; stroke: rgb(125, 46, 141); stroke-opacity: 1; stroke-width: 4px; opacity: 1;"/></g><g class="points"/><g class="text"/></g><g class="trace scatter trace9a69c1" style="stroke-miterlimit: 2; opacity: 1;"><g class="fills"/><g class="errorbars"/><g class="lines"><path class="js-line" d="M28.81,684L43.67,683.4L51.86,682.62L74.9,679.08L78.48,678.39L112.82,670.39L121,668.23L193.72,647.44L205.01,644.19L274.15,625.45L282.33,623.4L343.29,609.38L351.48,607.67L412.44,596.17L420.62,594.79L481.58,585.53L489.76,584.42L562.48,575.8L573.77,574.64L654.67,567.51L665.96,566.66L766.33,560.42L769.91,560.23L885.14,555.35L896.44,554.97L1034.72,551.32L1042.9,551.16L1181.19,548.97" style="vector-effect: non-scaling-stroke; fill: none; stroke: rgb(118, 171, 47); stroke-opacity: 1; stroke-width: 4px; opacity: 1;"/></g><g class="points"/><g class="text"/></g><g class="trace scatter trace83b799" style="stroke-miterlimit: 2; opacity: 1;"><g class="fills"/><g class="errorbars"/><g class="lines"><path class="js-line" d="M28.81,295.2L55.43,316.32L66.72,324.54L97.95,345.34L101.53,347.56L135.86,367.38L144.05,371.74L170.67,385.11L181.96,390.43L216.76,405.67L228.06,410.27L274.15,427.57L282.33,430.41L332,446.42L343.29,449.79L401.14,465.69L412.44,468.55L470.29,482.17L481.58,484.64L558.9,500.16L562.48,500.82L642.91,514.68L651.1,515.98L746.86,530.01L758.15,531.53L862.1,544.38L873.39,545.66L988.63,557.71L996.81,558.5L1135.1,570.69L1138.67,570.98L1181.19,574.33" style="vector-effect: non-scaling-stroke; fill: none; stroke: rgb(76, 189, 237); stroke-opacity: 1; stroke-width: 4px; opacity: 1;"/></g><g class="points"/><g class="text"/></g><g class="trace scatter trace6f3acd" style="stroke-miterlimit: 2; opacity: 1;"><g class="fills"/><g class="errorbars"/><g class="lines"><path class="js-line" d="M28.81,36L55.43,57.12L66.72,65.34L97.95,86.16L101.53,88.38L135.86,108.23L144.05,112.61L170.67,126L181.96,131.33L216.76,146.6L228.06,151.21L274.15,168.53L282.33,171.38L332,187.41L343.29,190.78L401.14,206.69L412.44,209.56L470.29,223.18L481.58,225.65L550.72,239.64L558.9,241.17L631.62,253.86L642.91,255.69L723.81,267.85L735.1,269.42L839.05,282.71L850.34,284.04L965.58,296.46L973.76,297.27L1112.05,309.81L1115.62,310.11L1181.19,315.35" style="vector-effect: non-scaling-stroke; fill: none; stroke: rgb(161, 19, 46); stroke-opacity: 1; stroke-width: 4px; opacity: 1;"/></g><g class="points"/><g class="text"/></g><g class="trace scatter trace3f3f6b" style="stroke-miterlimit: 2; opacity: 1;"><g class="fills"/><g class="errorbars"/><g class="lines"><path class="js-line" d="M28.81,684L55.43,662.88L66.72,654.66L97.95,633.84L101.53,631.62L135.86,611.77L144.05,607.39L170.67,594L181.96,588.67L216.76,573.4L228.06,568.79L274.15,551.47L282.33,548.62L332,532.59L343.29,529.22L401.14,513.31L412.44,510.44L470.29,496.82L481.58,494.35L550.72,480.36L558.9,478.83L631.62,466.14L642.91,464.31L723.81,452.15L735.1,450.58L839.05,437.29L850.34,435.96L965.58,423.54L973.76,422.73L1112.05,410.19L1115.62,409.89L1181.19,404.65" style="vector-effect: non-scaling-stroke; fill: none; stroke: rgb(66, 133, 244); stroke-opacity: 1; stroke-width: 4px; opacity: 1;"/></g><g class="points"/><g class="text"/></g></g></g><g class="overplot"/><path class="xlines-above crisp" d="M0,0" style="fill: none;"/><path class="ylines-above crisp" d="M0,0" style="fill: none;"/><g class="overlines-above"/><g class="xaxislayer-above"><g class="xtick"><text text-anchor="middle" x="0" y="845" transform="translate(112.81,0)" style="font-family: 'Open Sans', verdana, arial, sans-serif; font-size: 24px; fill: rgb(42, 63, 95); fill-opacity: 1; white-space: pre;">0</text></g><g class="xtick"><text text-anchor="middle" x="0" y="845" transform="translate(400.9,0)" style="font-family: 'Open Sans', verdana, arial, sans-serif; font-size: 24px; fill: rgb(42, 63, 95); fill-opacity: 1; white-space: pre;">5</text></g><g class="xtick"><text text-anchor="middle" x="0" y="845" transform="translate(689,0)" style="font-family: 'Open Sans', verdana, arial, sans-serif; font-size: 24px; fill: rgb(42, 63, 95); fill-opacity: 1; white-space: pre;">10</text></g><g class="xtick"><text text-anchor="middle" x="0" y="845" transform="translate(977.1,0)" style="font-family: 'Open Sans', verdana, arial, sans-serif; font-size: 24px; fill: rgb(42, 63, 95); fill-opacity: 1; white-space: pre;">15</text></g><g class="xtick"><text text-anchor="middle" x="0" y="845" transform="translate(1265.19,0)" style="font-family: 'Open Sans', verdana, arial, sans-serif; font-size: 24px; fill: rgb(42, 63, 95); fill-opacity: 1; white-space: pre;">20</text></g></g><g class="yaxislayer-above"><g class="ytick"><text text-anchor="end" x="83" y="8.399999999999999" transform="translate(0,784)" style="font-family: 'Open Sans', verdana, arial, sans-serif; font-size: 24px; fill: rgb(42, 63, 95); fill-opacity: 1; white-space: pre;">0</text></g><g class="ytick"><text text-anchor="end" x="83" y="8.399999999999999" transform="translate(0,654.4)" style="font-family: 'Open Sans', verdana, arial, sans-serif; font-size: 24px; fill: rgb(42, 63, 95); fill-opacity: 1; white-space: pre;">0.1</text></g><g class="ytick"><text text-anchor="end" x="83" y="8.399999999999999" transform="translate(0,524.8)" style="font-family: 'Open Sans', verdana, arial, sans-serif; font-size: 24px; fill: rgb(42, 63, 95); fill-opacity: 1; white-space: pre;">0.2</text></g><g class="ytick"><text text-anchor="end" x="83" y="8.399999999999999" transform="translate(0,395.2)" style="font-family: 'Open Sans', verdana, arial, sans-serif; font-size: 24px; fill: rgb(42, 63, 95); fill-opacity: 1; white-space: pre;">0.3</text></g><g class="ytick"><text text-anchor="end" x="83" y="8.399999999999999" transform="translate(0,265.6)" style="font-family: 'Open Sans', verdana, arial, sans-serif; font-size: 24px; fill: rgb(42, 63, 95); fill-opacity: 1; white-space: pre;">0.4</text></g><g class="ytick"><text text-anchor="end" x="83" y="8.399999999999999" transform="translate(0,136)" style="font-family: 'Open Sans', verdana, arial, sans-serif; font-size: 24px; fill: rgb(42, 63, 95); fill-opacity: 1; white-space: pre;">0.5</text></g></g><g class="overaxes-above"/></g></g><g class="polarlayer"/><g class="ternarylayer"/><g class="geolayer"/><g class="funnelarealayer"/><g class="pielayer"/><g class="treemaplayer"/><g class="sunburstlayer"/><g class="glimages"/><defs id="topdefs-c8b709"><g class="clips"/><clipPath id="legendc8b709"><rect width="70" height="367" x="0" y="0"/></clipPath></defs><g class="layer-above"><g class="imagelayer"/><g class="shapelayer"/></g><g class="infolayer"><g class="legend" pointer-events="all" transform="translate(1318.2,100)"><rect class="bg" shape-rendering="crispEdges" width="70" height="367" x="0" y="0" style="stroke: rgb(68, 68, 68); stroke-opacity: 1; fill: rgb(255, 255, 255); fill-opacity: 1; stroke-width: 0px;"/><g class="scrollbox" transform="" clip-path="url('#legendc8b709')"><g class="groups"><g class="traces" transform="translate(0,27.3)" style="opacity: 1;"><text class="legendtext" text-anchor="start" x="40" y="12.48" style="font-family: 'Open Sans', verdana, arial, sans-serif; font-size: 32px; fill: rgb(42, 63, 95); fill-opacity: 1; white-space: pre;">A</text><g class="layers" style="opacity: 1;"><g class="legendfill"/><g class="legendlines"><path class="js-line" d="M5,0h30" style="fill: none; stroke: rgb(0, 113, 188); stroke-opacity: 1; stroke-width: 4px;"/></g><g class="legendsymbols"><g class="legendpoints"/></g></g><rect class="legendtoggle" x="0" y="-22.3" width="64.890625" height="44.6" style="fill: rgb(0, 0, 0); fill-opacity: 0;"/></g><g class="traces" transform="translate(0,71.9)" style="opacity: 1;"><text class="legendtext" text-anchor="start" x="40" y="12.48" style="font-family: 'Open Sans', verdana, arial, sans-serif; font-size: 32px; fill: rgb(42, 63, 95); fill-opacity: 1; white-space: pre;">B</text><g class="layers" style="opacity: 1;"><g class="legendfill"/><g class="legendlines"><path class="js-line" d="M5,0h30" style="fill: none; stroke: rgb(216, 82, 24); stroke-opacity: 1; stroke-width: 4px;"/></g><g class="legendsymbols"><g class="legendpoints"/></g></g><rect class="legendtoggle" x="0" y="-22.3" width="64.890625" height="44.6" style="fill: rgb(0, 0, 0); fill-opacity: 0;"/></g><g class="traces" transform="translate(0,116.5)" style="opacity: 1;"><text class="legendtext" text-anchor="start" x="40" y="12.48" style="font-family: 'Open Sans', verdana, arial, sans-serif; font-size: 32px; fill: rgb(42, 63, 95); fill-opacity: 1; white-space: pre;">C</text><g class="layers" style="opacity: 1;"><g class="legendfill"/><g class="legendlines"><path class="js-line" d="M5,0h30" style="fill: none; stroke: rgb(236, 176, 31); stroke-opacity: 1; stroke-width: 4px;"/></g><g class="legendsymbols"><g class="legendpoints"/></g></g><rect class="legendtoggle" x="0" y="-22.3" width="64.890625" height="44.6" style="fill: rgb(0, 0, 0); fill-opacity: 0;"/></g><g class="traces" transform="translate(0,161.10000000000002)" style="opacity: 1;"><text class="legendtext" text-anchor="start" x="40" y="12.48" style="font-family: 'Open Sans', verdana, arial, sans-serif; font-size: 32px; fill: rgb(42, 63, 95); fill-opacity: 1; white-space: pre;">D</text><g class="layers" style="opacity: 1;"><g class="legendfill"/><g class="legendlines"><path class="js-line" d="M5,0h30" style="fill: none; stroke: rgb(125, 46, 141); stroke-opacity: 1; stroke-width: 4px;"/></g><g class="legendsymbols"><g class="legendpoints"/></g></g><rect class="legendtoggle" x="0" y="-22.3" width="64.890625" height="44.6" style="fill: rgb(0, 0, 0); fill-opacity: 0;"/></g><g class="traces" transform="translate(0,205.70000000000002)" style="opacity: 1;"><text class="legendtext" text-anchor="start" x="40" y="12.48" style="font-family: 'Open Sans', verdana, arial, sans-serif; font-size: 32px; fill: rgb(42, 63, 95); fill-opacity: 1; white-space: pre;">E</text><g class="layers" style="opacity: 1;"><g class="legendfill"/><g class="legendlines"><path class="js-line" d="M5,0h30" style="fill: none; stroke: rgb(118, 171, 47); stroke-opacity: 1; stroke-width: 4px;"/></g><g class="legendsymbols"><g class="legendpoints"/></g></g><rect class="legendtoggle" x="0" y="-22.3" width="64.890625" height="44.6" style="fill: rgb(0, 0, 0); fill-opacity: 0;"/></g><g class="traces" transform="translate(0,250.3)" style="opacity: 1;"><text class="legendtext" text-anchor="start" x="40" y="12.48" style="font-family: 'Open Sans', verdana, arial, sans-serif; font-size: 32px; fill: rgb(42, 63, 95); fill-opacity: 1; white-space: pre;">F</text><g class="layers" style="opacity: 1;"><g class="legendfill"/><g class="legendlines"><path class="js-line" d="M5,0h30" style="fill: none; stroke: rgb(76, 189, 237); stroke-opacity: 1; stroke-width: 4px;"/></g><g class="legendsymbols"><g class="legendpoints"/></g></g><rect class="legendtoggle" x="0" y="-22.3" width="64.890625" height="44.6" style="fill: rgb(0, 0, 0); fill-opacity: 0;"/></g><g class="traces" transform="translate(0,294.90000000000003)" style="opacity: 1;"><text class="legendtext" text-anchor="start" x="40" y="12.48" style="font-family: 'Open Sans', verdana, arial, sans-serif; font-size: 32px; fill: rgb(42, 63, 95); fill-opacity: 1; white-space: pre;">G</text><g class="layers" style="opacity: 1;"><g class="legendfill"/><g class="legendlines"><path class="js-line" d="M5,0h30" style="fill: none; stroke: rgb(161, 19, 46); stroke-opacity: 1; stroke-width: 4px;"/></g><g class="legendsymbols"><g class="legendpoints"/></g></g><rect class="legendtoggle" x="0" y="-22.3" width="64.890625" height="44.6" style="fill: rgb(0, 0, 0); fill-opacity: 0;"/></g><g class="traces" transform="translate(0,339.50000000000006)" style="opacity: 1;"><text class="legendtext" text-anchor="start" x="40" y="12.48" style="font-family: 'Open Sans', verdana, arial, sans-serif; font-size: 32px; fill: rgb(42, 63, 95); fill-opacity: 1; white-space: pre;">H</text><g class="layers" style="opacity: 1;"><g class="legendfill"/><g class="legendlines"><path class="js-line" d="M5,0h30" style="fill: none; stroke: rgb(66, 133, 244); stroke-opacity: 1; stroke-width: 4px;"/></g><g class="legendsymbols"><g class="legendpoints"/></g></g><rect class="legendtoggle" x="0" y="-22.3" width="64.890625" height="44.6" style="fill: rgb(0, 0, 0); fill-opacity: 0;"/></g></g></g><rect class="scrollbar" rx="20" ry="3" width="0" height="0" x="0" y="0" style="fill: rgb(128, 139, 164); fill-opacity: 1;"/></g><g class="g-gtitle"><text class="gtitle" x="70" y="50" text-anchor="start" dy="0em" style="font-family: 'Open Sans', verdana, arial, sans-serif; font-size: 32px; fill: rgb(42, 63, 95); opacity: 1; font-weight: normal; white-space: pre;">Model: simulation | Concentration Profiles</text></g><g class="g-xtitle"><text class="xtitle" x="689" y="887.4" text-anchor="middle" style="font-family: 'Open Sans', verdana, arial, sans-serif; font-size: 32px; fill: rgb(42, 63, 95); opacity: 1; font-weight: normal; white-space: pre;">Time [hr]</text></g><g class="g-ytitle" transform="translate(16.775390625,0)"><text class="ytitle" transform="rotate(-90,12.224999999999994,460)" x="12.224999999999994" y="460" text-anchor="middle" style="font-family: 'Open Sans', verdana, arial, sans-serif; font-size: 32px; fill: rgb(42, 63, 95); opacity: 1; font-weight: normal; white-space: pre;">Concentration [dimensionless]</text></g></g></svg>